<svg width="104" height="74" viewBox="0 0 104 74" fill="none" xmlns="http://www.w3.org/2000/svg">
<mask id="path-1-inside-1_1820_21306" fill="white">
<path fill-rule="evenodd" clip-rule="evenodd" d="M31.5645 73.016C48.7167 73.016 62.6213 64.9085 62.6213 54.9074C62.6213 54.907 62.6213 54.9065 62.6213 54.9061V47.1892C62.6214 47.1754 62.6214 47.1615 62.6214 47.1476C62.6214 37.1465 48.7168 29.0391 31.5646 29.0391C14.4138 29.0391 0.510019 37.1453 0.507813 47.1453H0.507737L0.507737 54.9061C0.507737 54.9065 0.507737 54.907 0.507737 54.9074C0.507737 64.9085 14.4123 73.016 31.5645 73.016Z"/>
</mask>
<path fill-rule="evenodd" clip-rule="evenodd" d="M31.5645 73.016C48.7167 73.016 62.6213 64.9085 62.6213 54.9074C62.6213 54.907 62.6213 54.9065 62.6213 54.9061V47.1892C62.6214 47.1754 62.6214 47.1615 62.6214 47.1476C62.6214 37.1465 48.7168 29.0391 31.5646 29.0391C14.4138 29.0391 0.510019 37.1453 0.507813 47.1453H0.507737L0.507737 54.9061C0.507737 54.9065 0.507737 54.907 0.507737 54.9074C0.507737 64.9085 14.4123 73.016 31.5645 73.016Z" fill="white"/>
<path d="M62.6213 47.1892H62.1213L62.1214 47.1873L62.6213 47.1892ZM0.507813 47.1453L1.00781 47.1454L1.0077 47.6453H0.507813L0.507813 47.1453ZM0.507737 47.1453H0.00773698L0.00773698 46.6453H0.507737L0.507737 47.1453ZM0.507737 54.9061H1.00774V54.9061L0.507737 54.9061ZM63.1213 54.9074C63.1213 60.1597 59.4739 64.8223 53.7769 68.1441C48.0676 71.473 40.2132 73.516 31.5645 73.516V72.516C40.0681 72.516 47.7421 70.5052 53.2732 67.2802C58.8165 64.048 62.1213 59.6562 62.1213 54.9074H63.1213ZM63.1213 54.9061V54.9061C63.1213 54.9061 63.1213 54.9061 63.1213 54.9061V54.9061C63.1213 54.9061 63.1213 54.9061 63.1213 54.9061V54.9061V54.9061C63.1213 54.9061 63.1213 54.9061 63.1213 54.9061V54.9061C63.1213 54.9061 63.1213 54.9061 63.1213 54.9061C63.1213 54.9061 63.1213 54.9061 63.1213 54.9061V54.9061C63.1213 54.9061 63.1213 54.9061 63.1213 54.9061V54.9061C63.1213 54.9061 63.1213 54.9061 63.1213 54.9061C63.1213 54.9061 63.1213 54.9061 63.1213 54.9061V54.9061C63.1213 54.9061 63.1213 54.9061 63.1213 54.9061V54.9061C63.1213 54.9061 63.1213 54.9061 63.1213 54.9061C63.1213 54.9061 63.1213 54.9061 63.1213 54.9061V54.9061C63.1213 54.9061 63.1213 54.9061 63.1213 54.9061V54.9061C63.1213 54.9061 63.1213 54.9061 63.1213 54.9061C63.1213 54.9061 63.1213 54.9061 63.1213 54.9061V54.9061C63.1213 54.9061 63.1213 54.9061 63.1213 54.9061V54.9061C63.1213 54.9061 63.1213 54.9061 63.1213 54.9061C63.1213 54.9061 63.1213 54.9061 63.1213 54.9061V54.9062C63.1213 54.9062 63.1213 54.9062 63.1213 54.9062V54.9062V54.9062C63.1213 54.9062 63.1213 54.9062 63.1213 54.9062V54.9062C63.1213 54.9062 63.1213 54.9062 63.1213 54.9062V54.9062V54.9062C63.1213 54.9062 63.1213 54.9062 63.1213 54.9062V54.9062C63.1213 54.9062 63.1213 54.9062 63.1213 54.9062C63.1213 54.9062 63.1213 54.9062 63.1213 54.9062V54.9062C63.1213 54.9062 63.1213 54.9062 63.1213 54.9062V54.9062C63.1213 54.9062 63.1213 54.9062 63.1213 54.9062C63.1213 54.9062 63.1213 54.9062 63.1213 54.9062V54.9062C63.1213 54.9062 63.1213 54.9062 63.1213 54.9062V54.9062C63.1213 54.9062 63.1213 54.9062 63.1213 54.9062C63.1213 54.9062 63.1213 54.9062 63.1213 54.9062V54.9062C63.1213 54.9062 63.1213 54.9062 63.1213 54.9062V54.9062C63.1213 54.9062 63.1213 54.9062 63.1213 54.9062C63.1213 54.9062 63.1213 54.9062 63.1213 54.9062V54.9062C63.1213 54.9062 63.1213 54.9062 63.1213 54.9062V54.9062C63.1213 54.9062 63.1213 54.9062 63.1213 54.9062C63.1213 54.9062 63.1213 54.9062 63.1213 54.9062V54.9062C63.1213 54.9062 63.1213 54.9062 63.1213 54.9062V54.9062C63.1213 54.9062 63.1213 54.9062 63.1213 54.9062C63.1213 54.9062 63.1213 54.9062 63.1213 54.9062V54.9063C63.1213 54.9063 63.1213 54.9063 63.1213 54.9063V54.9063V54.9063C63.1213 54.9063 63.1213 54.9063 63.1213 54.9063V54.9063C63.1213 54.9063 63.1213 54.9063 63.1213 54.9063V54.9063V54.9063C63.1213 54.9063 63.1213 54.9063 63.1213 54.9063V54.9063C63.1213 54.9063 63.1213 54.9063 63.1213 54.9063C63.1213 54.9063 63.1213 54.9063 63.1213 54.9063V54.9063C63.1213 54.9063 63.1213 54.9063 63.1213 54.9063V54.9063C63.1213 54.9063 63.1213 54.9063 63.1213 54.9063C63.1213 54.9063 63.1213 54.9063 63.1213 54.9063V54.9063C63.1213 54.9063 63.1213 54.9063 63.1213 54.9063V54.9063C63.1213 54.9063 63.1213 54.9063 63.1213 54.9063C63.1213 54.9063 63.1213 54.9063 63.1213 54.9063V54.9063C63.1213 54.9063 63.1213 54.9063 63.1213 54.9063V54.9063C63.1213 54.9063 63.1213 54.9063 63.1213 54.9063C63.1213 54.9063 63.1213 54.9063 63.1213 54.9063V54.9063C63.1213 54.9063 63.1213 54.9063 63.1213 54.9063V54.9063C63.1213 54.9063 63.1213 54.9063 63.1213 54.9063C63.1213 54.9063 63.1213 54.9063 63.1213 54.9063V54.9063C63.1213 54.9063 63.1213 54.9063 63.1213 54.9063V54.9063V54.9063C63.1213 54.9063 63.1213 54.9063 63.1213 54.9064V54.9064C63.1213 54.9064 63.1213 54.9064 63.1213 54.9064V54.9064V54.9064C63.1213 54.9064 63.1213 54.9064 63.1213 54.9064V54.9064C63.1213 54.9064 63.1213 54.9064 63.1213 54.9064V54.9064V54.9064C63.1213 54.9064 63.1213 54.9064 63.1213 54.9064V54.9064C63.1213 54.9064 63.1213 54.9064 63.1213 54.9064C63.1213 54.9064 63.1213 54.9064 63.1213 54.9064V54.9064C63.1213 54.9064 63.1213 54.9064 63.1213 54.9064V54.9064C63.1213 54.9064 63.1213 54.9064 63.1213 54.9064C63.1213 54.9064 63.1213 54.9064 63.1213 54.9064V54.9064C63.1213 54.9064 63.1213 54.9064 63.1213 54.9064V54.9064C63.1213 54.9064 63.1213 54.9064 63.1213 54.9064C63.1213 54.9064 63.1213 54.9064 63.1213 54.9064V54.9064C63.1213 54.9064 63.1213 54.9064 63.1213 54.9064V54.9064C63.1213 54.9064 63.1213 54.9064 63.1213 54.9064C63.1213 54.9064 63.1213 54.9064 63.1213 54.9064V54.9064C63.1213 54.9064 63.1213 54.9064 63.1213 54.9064V54.9064C63.1213 54.9064 63.1213 54.9064 63.1213 54.9064C63.1213 54.9064 63.1213 54.9064 63.1213 54.9064V54.9064C63.1213 54.9064 63.1213 54.9064 63.1213 54.9064V54.9064V54.9064C63.1213 54.9065 63.1213 54.9065 63.1213 54.9065V54.9065C63.1213 54.9065 63.1213 54.9065 63.1213 54.9065V54.9065V54.9065C63.1213 54.9065 63.1213 54.9065 63.1213 54.9065V54.9065C63.1213 54.9065 63.1213 54.9065 63.1213 54.9065V54.9065V54.9065C63.1213 54.9065 63.1213 54.9065 63.1213 54.9065V54.9065C63.1213 54.9065 63.1213 54.9065 63.1213 54.9065C63.1213 54.9065 63.1213 54.9065 63.1213 54.9065V54.9065C63.1213 54.9065 63.1213 54.9065 63.1213 54.9065V54.9065C63.1213 54.9065 63.1213 54.9065 63.1213 54.9065C63.1213 54.9065 63.1213 54.9065 63.1213 54.9065V54.9065C63.1213 54.9065 63.1213 54.9065 63.1213 54.9065V54.9065C63.1213 54.9065 63.1213 54.9065 63.1213 54.9065C63.1213 54.9065 63.1213 54.9065 63.1213 54.9065V54.9065C63.1213 54.9065 63.1213 54.9065 63.1213 54.9065V54.9065C63.1213 54.9065 63.1213 54.9065 63.1213 54.9065C63.1213 54.9065 63.1213 54.9065 63.1213 54.9065V54.9065C63.1213 54.9065 63.1213 54.9065 63.1213 54.9065V54.9065C63.1213 54.9065 63.1213 54.9065 63.1213 54.9065C63.1213 54.9065 63.1213 54.9065 63.1213 54.9065V54.9065C63.1213 54.9065 63.1213 54.9065 63.1213 54.9065V54.9065V54.9065C63.1213 54.9066 63.1213 54.9066 63.1213 54.9066V54.9066C63.1213 54.9066 63.1213 54.9066 63.1213 54.9066V54.9066V54.9066C63.1213 54.9066 63.1213 54.9066 63.1213 54.9066V54.9066C63.1213 54.9066 63.1213 54.9066 63.1213 54.9066C63.1213 54.9066 63.1213 54.9066 63.1213 54.9066V54.9066C63.1213 54.9066 63.1213 54.9066 63.1213 54.9066V54.9066C63.1213 54.9066 63.1213 54.9066 63.1213 54.9066C63.1213 54.9066 63.1213 54.9066 63.1213 54.9066V54.9066C63.1213 54.9066 63.1213 54.9066 63.1213 54.9066V54.9066C63.1213 54.9066 63.1213 54.9066 63.1213 54.9066C63.1213 54.9066 63.1213 54.9066 63.1213 54.9066V54.9066C63.1213 54.9066 63.1213 54.9066 63.1213 54.9066V54.9066C63.1213 54.9066 63.1213 54.9066 63.1213 54.9066C63.1213 54.9066 63.1213 54.9066 63.1213 54.9066V54.9066C63.1213 54.9066 63.1213 54.9066 63.1213 54.9066V54.9066C63.1213 54.9066 63.1213 54.9066 63.1213 54.9066C63.1213 54.9066 63.1213 54.9066 63.1213 54.9066V54.9066C63.1213 54.9066 63.1213 54.9066 63.1213 54.9066V54.9066V54.9066C63.1213 54.9066 63.1213 54.9066 63.1213 54.9066V54.9066C63.1213 54.9066 63.1213 54.9066 63.1213 54.9066V54.9066V54.9067C63.1213 54.9067 63.1213 54.9067 63.1213 54.9067V54.9067C63.1213 54.9067 63.1213 54.9067 63.1213 54.9067V54.9067V54.9067C63.1213 54.9067 63.1213 54.9067 63.1213 54.9067V54.9067C63.1213 54.9067 63.1213 54.9067 63.1213 54.9067C63.1213 54.9067 63.1213 54.9067 63.1213 54.9067V54.9067C63.1213 54.9067 63.1213 54.9067 63.1213 54.9067V54.9067C63.1213 54.9067 63.1213 54.9067 63.1213 54.9067C63.1213 54.9067 63.1213 54.9067 63.1213 54.9067V54.9067C63.1213 54.9067 63.1213 54.9067 63.1213 54.9067V54.9067C63.1213 54.9067 63.1213 54.9067 63.1213 54.9067C63.1213 54.9067 63.1213 54.9067 63.1213 54.9067V54.9067C63.1213 54.9067 63.1213 54.9067 63.1213 54.9067V54.9067C63.1213 54.9067 63.1213 54.9067 63.1213 54.9067C63.1213 54.9067 63.1213 54.9067 63.1213 54.9067V54.9067C63.1213 54.9067 63.1213 54.9067 63.1213 54.9067V54.9067C63.1213 54.9067 63.1213 54.9067 63.1213 54.9067C63.1213 54.9067 63.1213 54.9067 63.1213 54.9067V54.9067C63.1213 54.9067 63.1213 54.9067 63.1213 54.9067V54.9067V54.9067C63.1213 54.9067 63.1213 54.9067 63.1213 54.9067V54.9067C63.1213 54.9067 63.1213 54.9067 63.1213 54.9067V54.9067V54.9068C63.1213 54.9068 63.1213 54.9068 63.1213 54.9068V54.9068C63.1213 54.9068 63.1213 54.9068 63.1213 54.9068V54.9068V54.9068C63.1213 54.9068 63.1213 54.9068 63.1213 54.9068V54.9068C63.1213 54.9068 63.1213 54.9068 63.1213 54.9068C63.1213 54.9068 63.1213 54.9068 63.1213 54.9068V54.9068C63.1213 54.9068 63.1213 54.9068 63.1213 54.9068V54.9068C63.1213 54.9068 63.1213 54.9068 63.1213 54.9068C63.1213 54.9068 63.1213 54.9068 63.1213 54.9068V54.9068C63.1213 54.9068 63.1213 54.9068 63.1213 54.9068V54.9068C63.1213 54.9068 63.1213 54.9068 63.1213 54.9068C63.1213 54.9068 63.1213 54.9068 63.1213 54.9068V54.9068C63.1213 54.9068 63.1213 54.9068 63.1213 54.9068V54.9068C63.1213 54.9068 63.1213 54.9068 63.1213 54.9068C63.1213 54.9068 63.1213 54.9068 63.1213 54.9068V54.9068C63.1213 54.9068 63.1213 54.9068 63.1213 54.9068V54.9068C63.1213 54.9068 63.1213 54.9068 63.1213 54.9068C63.1213 54.9068 63.1213 54.9068 63.1213 54.9068V54.9068C63.1213 54.9068 63.1213 54.9068 63.1213 54.9068V54.9068V54.9068C63.1213 54.9068 63.1213 54.9068 63.1213 54.9068V54.9068C63.1213 54.9068 63.1213 54.9068 63.1213 54.9068V54.9069V54.9069C63.1213 54.9069 63.1213 54.9069 63.1213 54.9069V54.9069C63.1213 54.9069 63.1213 54.9069 63.1213 54.9069V54.9069V54.9069C63.1213 54.9069 63.1213 54.9069 63.1213 54.9069V54.9069C63.1213 54.9069 63.1213 54.9069 63.1213 54.9069C63.1213 54.9069 63.1213 54.9069 63.1213 54.9069V54.9069C63.1213 54.9069 63.1213 54.9069 63.1213 54.9069V54.9069C63.1213 54.9069 63.1213 54.9069 63.1213 54.9069C63.1213 54.9069 63.1213 54.9069 63.1213 54.9069V54.9069C63.1213 54.9069 63.1213 54.9069 63.1213 54.9069V54.9069C63.1213 54.9069 63.1213 54.9069 63.1213 54.9069C63.1213 54.9069 63.1213 54.9069 63.1213 54.9069V54.9069C63.1213 54.9069 63.1213 54.9069 63.1213 54.9069V54.9069C63.1213 54.9069 63.1213 54.9069 63.1213 54.9069C63.1213 54.9069 63.1213 54.9069 63.1213 54.9069V54.9069C63.1213 54.9069 63.1213 54.9069 63.1213 54.9069V54.9069C63.1213 54.9069 63.1213 54.9069 63.1213 54.9069C63.1213 54.9069 63.1213 54.9069 63.1213 54.9069V54.9069C63.1213 54.9069 63.1213 54.9069 63.1213 54.9069V54.9069V54.9069C63.1213 54.9069 63.1213 54.9069 63.1213 54.9069V54.9069C63.1213 54.9069 63.1213 54.9069 63.1213 54.9069V54.907V54.907C63.1213 54.907 63.1213 54.907 63.1213 54.907V54.907C63.1213 54.907 63.1213 54.907 63.1213 54.907C63.1213 54.907 63.1213 54.907 63.1213 54.907V54.907C63.1213 54.907 63.1213 54.907 63.1213 54.907V54.907C63.1213 54.907 63.1213 54.907 63.1213 54.907C63.1213 54.907 63.1213 54.907 63.1213 54.907V54.907C63.1213 54.907 63.1213 54.907 63.1213 54.907V54.907C63.1213 54.907 63.1213 54.907 63.1213 54.907C63.1213 54.907 63.1213 54.907 63.1213 54.907V54.907C63.1213 54.907 63.1213 54.907 63.1213 54.907V54.907C63.1213 54.907 63.1213 54.907 63.1213 54.907C63.1213 54.907 63.1213 54.907 63.1213 54.907V54.907C63.1213 54.907 63.1213 54.907 63.1213 54.907V54.907C63.1213 54.907 63.1213 54.907 63.1213 54.907C63.1213 54.907 63.1213 54.907 63.1213 54.907V54.907C63.1213 54.907 63.1213 54.907 63.1213 54.907V54.907V54.907C63.1213 54.907 63.1213 54.907 63.1213 54.907V54.907C63.1213 54.907 63.1213 54.907 63.1213 54.907V54.907V54.907C63.1213 54.907 63.1213 54.907 63.1213 54.907V54.907C63.1213 54.907 63.1213 54.907 63.1213 54.9071V54.9071V54.9071C63.1213 54.9071 63.1213 54.9071 63.1213 54.9071V54.9071C63.1213 54.9071 63.1213 54.9071 63.1213 54.9071C63.1213 54.9071 63.1213 54.9071 63.1213 54.9071V54.9071C63.1213 54.9071 63.1213 54.9071 63.1213 54.9071V54.9071C63.1213 54.9071 63.1213 54.9071 63.1213 54.9071C63.1213 54.9071 63.1213 54.9071 63.1213 54.9071V54.9071C63.1213 54.9071 63.1213 54.9071 63.1213 54.9071V54.9071C63.1213 54.9071 63.1213 54.9071 63.1213 54.9071C63.1213 54.9071 63.1213 54.9071 63.1213 54.9071V54.9071C63.1213 54.9071 63.1213 54.9071 63.1213 54.9071V54.9071C63.1213 54.9071 63.1213 54.9071 63.1213 54.9071C63.1213 54.9071 63.1213 54.9071 63.1213 54.9071V54.9071C63.1213 54.9071 63.1213 54.9071 63.1213 54.9071V54.9071C63.1213 54.9071 63.1213 54.9071 63.1213 54.9071C63.1213 54.9071 63.1213 54.9071 63.1213 54.9071V54.9071C63.1213 54.9071 63.1213 54.9071 63.1213 54.9071V54.9071V54.9071C63.1213 54.9071 63.1213 54.9071 63.1213 54.9071V54.9071C63.1213 54.9071 63.1213 54.9071 63.1213 54.9071V54.9071V54.9071C63.1213 54.9071 63.1213 54.9071 63.1213 54.9071V54.9071C63.1213 54.9072 63.1213 54.9072 63.1213 54.9072V54.9072V54.9072C63.1213 54.9072 63.1213 54.9072 63.1213 54.9072V54.9072C63.1213 54.9072 63.1213 54.9072 63.1213 54.9072C63.1213 54.9072 63.1213 54.9072 63.1213 54.9072V54.9072C63.1213 54.9072 63.1213 54.9072 63.1213 54.9072V54.9072C63.1213 54.9072 63.1213 54.9072 63.1213 54.9072C63.1213 54.9072 63.1213 54.9072 63.1213 54.9072V54.9072C63.1213 54.9072 63.1213 54.9072 63.1213 54.9072V54.9072C63.1213 54.9072 63.1213 54.9072 63.1213 54.9072C63.1213 54.9072 63.1213 54.9072 63.1213 54.9072V54.9072C63.1213 54.9072 63.1213 54.9072 63.1213 54.9072V54.9072C63.1213 54.9072 63.1213 54.9072 63.1213 54.9072C63.1213 54.9072 63.1213 54.9072 63.1213 54.9072V54.9072C63.1213 54.9072 63.1213 54.9072 63.1213 54.9072V54.9072C63.1213 54.9072 63.1213 54.9072 63.1213 54.9072C63.1213 54.9072 63.1213 54.9072 63.1213 54.9072V54.9072C63.1213 54.9072 63.1213 54.9072 63.1213 54.9072V54.9072V54.9072C63.1213 54.9072 63.1213 54.9072 63.1213 54.9072V54.9072C63.1213 54.9072 63.1213 54.9072 63.1213 54.9072V54.9072V54.9072C63.1213 54.9072 63.1213 54.9072 63.1213 54.9072V54.9072C63.1213 54.9073 63.1213 54.9073 63.1213 54.9073C63.1213 54.9073 63.1213 54.9073 63.1213 54.9073V54.9073C63.1213 54.9073 63.1213 54.9073 63.1213 54.9073V54.9073C63.1213 54.9073 63.1213 54.9073 63.1213 54.9073C63.1213 54.9073 63.1213 54.9073 63.1213 54.9073V54.9073C63.1213 54.9073 63.1213 54.9073 63.1213 54.9073V54.9073C63.1213 54.9073 63.1213 54.9073 63.1213 54.9073C63.1213 54.9073 63.1213 54.9073 63.1213 54.9073V54.9073C63.1213 54.9073 63.1213 54.9073 63.1213 54.9073V54.9073C63.1213 54.9073 63.1213 54.9073 63.1213 54.9073C63.1213 54.9073 63.1213 54.9073 63.1213 54.9073V54.9073C63.1213 54.9073 63.1213 54.9073 63.1213 54.9073V54.9073C63.1213 54.9073 63.1213 54.9073 63.1213 54.9073C63.1213 54.9073 63.1213 54.9073 63.1213 54.9073V54.9073C63.1213 54.9073 63.1213 54.9073 63.1213 54.9073V54.9073C63.1213 54.9073 63.1213 54.9073 63.1213 54.9073C63.1213 54.9073 63.1213 54.9073 63.1213 54.9073V54.9073C63.1213 54.9073 63.1213 54.9073 63.1213 54.9073V54.9073V54.9073C63.1213 54.9073 63.1213 54.9073 63.1213 54.9073V54.9073C63.1213 54.9073 63.1213 54.9073 63.1213 54.9073V54.9073V54.9073C63.1213 54.9073 63.1213 54.9073 63.1213 54.9073V54.9074C63.1213 54.9074 63.1213 54.9074 63.1213 54.9074C63.1213 54.9074 63.1213 54.9074 63.1213 54.9074V54.9074C63.1213 54.9074 63.1213 54.9074 63.1213 54.9074V54.9074C63.1213 54.9074 63.1213 54.9074 63.1213 54.9074C63.1213 54.9074 63.1213 54.9074 63.1213 54.9074V54.9074C63.1213 54.9074 63.1213 54.9074 63.1213 54.9074V54.9074C63.1213 54.9074 63.1213 54.9074 63.1213 54.9074C63.1213 54.9074 63.1213 54.9074 63.1213 54.9074V54.9074C63.1213 54.9074 63.1213 54.9074 63.1213 54.9074V54.9074C63.1213 54.9074 63.1213 54.9074 63.1213 54.9074C63.1213 54.9074 63.1213 54.9074 63.1213 54.9074V54.9074C63.1213 54.9074 63.1213 54.9074 63.1213 54.9074V54.9074C63.1213 54.9074 63.1213 54.9074 63.1213 54.9074C63.1213 54.9074 63.1213 54.9074 63.1213 54.9074V54.9074C63.1213 54.9074 63.1213 54.9074 63.1213 54.9074V54.9074V54.9074C63.1213 54.9074 63.1213 54.9074 63.1213 54.9074V54.9074C63.1213 54.9074 63.1213 54.9074 63.1213 54.9074V54.9074H62.1213V54.9074C62.1213 54.9074 62.1213 54.9074 62.1213 54.9074V54.9074C62.1213 54.9074 62.1213 54.9074 62.1213 54.9074V54.9074V54.9074C62.1213 54.9074 62.1213 54.9074 62.1213 54.9074V54.9074C62.1213 54.9074 62.1213 54.9074 62.1213 54.9074C62.1213 54.9074 62.1213 54.9074 62.1213 54.9074V54.9074C62.1213 54.9074 62.1213 54.9074 62.1213 54.9074V54.9074C62.1213 54.9074 62.1213 54.9074 62.1213 54.9074C62.1213 54.9074 62.1213 54.9074 62.1213 54.9074V54.9074C62.1213 54.9074 62.1213 54.9074 62.1213 54.9074V54.9074C62.1213 54.9074 62.1213 54.9074 62.1213 54.9074C62.1213 54.9074 62.1213 54.9074 62.1213 54.9074V54.9074C62.1213 54.9074 62.1213 54.9074 62.1213 54.9074V54.9074C62.1213 54.9074 62.1213 54.9074 62.1213 54.9074C62.1213 54.9074 62.1213 54.9074 62.1213 54.9074V54.9074C62.1213 54.9074 62.1213 54.9074 62.1213 54.9074V54.9074C62.1213 54.9074 62.1213 54.9074 62.1213 54.9074C62.1213 54.9074 62.1213 54.9074 62.1213 54.9074V54.9073C62.1213 54.9073 62.1213 54.9073 62.1213 54.9073V54.9073V54.9073C62.1213 54.9073 62.1213 54.9073 62.1213 54.9073V54.9073C62.1213 54.9073 62.1213 54.9073 62.1213 54.9073V54.9073V54.9073C62.1213 54.9073 62.1213 54.9073 62.1213 54.9073V54.9073C62.1213 54.9073 62.1213 54.9073 62.1213 54.9073C62.1213 54.9073 62.1213 54.9073 62.1213 54.9073V54.9073C62.1213 54.9073 62.1213 54.9073 62.1213 54.9073V54.9073C62.1213 54.9073 62.1213 54.9073 62.1213 54.9073C62.1213 54.9073 62.1213 54.9073 62.1213 54.9073V54.9073C62.1213 54.9073 62.1213 54.9073 62.1213 54.9073V54.9073C62.1213 54.9073 62.1213 54.9073 62.1213 54.9073C62.1213 54.9073 62.1213 54.9073 62.1213 54.9073V54.9073C62.1213 54.9073 62.1213 54.9073 62.1213 54.9073V54.9073C62.1213 54.9073 62.1213 54.9073 62.1213 54.9073C62.1213 54.9073 62.1213 54.9073 62.1213 54.9073V54.9073C62.1213 54.9073 62.1213 54.9073 62.1213 54.9073V54.9073C62.1213 54.9073 62.1213 54.9073 62.1213 54.9073C62.1213 54.9073 62.1213 54.9073 62.1213 54.9073V54.9073C62.1213 54.9073 62.1213 54.9073 62.1213 54.9073V54.9073C62.1213 54.9073 62.1213 54.9073 62.1213 54.9073C62.1213 54.9073 62.1213 54.9073 62.1213 54.9072V54.9072C62.1213 54.9072 62.1213 54.9072 62.1213 54.9072V54.9072V54.9072C62.1213 54.9072 62.1213 54.9072 62.1213 54.9072V54.9072C62.1213 54.9072 62.1213 54.9072 62.1213 54.9072V54.9072V54.9072C62.1213 54.9072 62.1213 54.9072 62.1213 54.9072V54.9072C62.1213 54.9072 62.1213 54.9072 62.1213 54.9072C62.1213 54.9072 62.1213 54.9072 62.1213 54.9072V54.9072C62.1213 54.9072 62.1213 54.9072 62.1213 54.9072V54.9072C62.1213 54.9072 62.1213 54.9072 62.1213 54.9072C62.1213 54.9072 62.1213 54.9072 62.1213 54.9072V54.9072C62.1213 54.9072 62.1213 54.9072 62.1213 54.9072V54.9072C62.1213 54.9072 62.1213 54.9072 62.1213 54.9072C62.1213 54.9072 62.1213 54.9072 62.1213 54.9072V54.9072C62.1213 54.9072 62.1213 54.9072 62.1213 54.9072V54.9072C62.1213 54.9072 62.1213 54.9072 62.1213 54.9072C62.1213 54.9072 62.1213 54.9072 62.1213 54.9072V54.9072C62.1213 54.9072 62.1213 54.9072 62.1213 54.9072V54.9072C62.1213 54.9072 62.1213 54.9072 62.1213 54.9072C62.1213 54.9072 62.1213 54.9072 62.1213 54.9072V54.9072C62.1213 54.9072 62.1213 54.9072 62.1213 54.9072V54.9072V54.9072C62.1213 54.9072 62.1213 54.9072 62.1213 54.9071V54.9071C62.1213 54.9071 62.1213 54.9071 62.1213 54.9071V54.9071V54.9071C62.1213 54.9071 62.1213 54.9071 62.1213 54.9071V54.9071C62.1213 54.9071 62.1213 54.9071 62.1213 54.9071V54.9071V54.9071C62.1213 54.9071 62.1213 54.9071 62.1213 54.9071V54.9071C62.1213 54.9071 62.1213 54.9071 62.1213 54.9071C62.1213 54.9071 62.1213 54.9071 62.1213 54.9071V54.9071C62.1213 54.9071 62.1213 54.9071 62.1213 54.9071V54.9071C62.1213 54.9071 62.1213 54.9071 62.1213 54.9071C62.1213 54.9071 62.1213 54.9071 62.1213 54.9071V54.9071C62.1213 54.9071 62.1213 54.9071 62.1213 54.9071V54.9071C62.1213 54.9071 62.1213 54.9071 62.1213 54.9071C62.1213 54.9071 62.1213 54.9071 62.1213 54.9071V54.9071C62.1213 54.9071 62.1213 54.9071 62.1213 54.9071V54.9071C62.1213 54.9071 62.1213 54.9071 62.1213 54.9071C62.1213 54.9071 62.1213 54.9071 62.1213 54.9071V54.9071C62.1213 54.9071 62.1213 54.9071 62.1213 54.9071V54.9071C62.1213 54.9071 62.1213 54.9071 62.1213 54.9071C62.1213 54.9071 62.1213 54.9071 62.1213 54.9071V54.9071C62.1213 54.9071 62.1213 54.9071 62.1213 54.9071V54.9071V54.9071C62.1213 54.907 62.1213 54.907 62.1213 54.907V54.907C62.1213 54.907 62.1213 54.907 62.1213 54.907V54.907V54.907C62.1213 54.907 62.1213 54.907 62.1213 54.907V54.907C62.1213 54.907 62.1213 54.907 62.1213 54.907V54.907V54.907C62.1213 54.907 62.1213 54.907 62.1213 54.907V54.907C62.1213 54.907 62.1213 54.907 62.1213 54.907C62.1213 54.907 62.1213 54.907 62.1213 54.907V54.907C62.1213 54.907 62.1213 54.907 62.1213 54.907V54.907C62.1213 54.907 62.1213 54.907 62.1213 54.907C62.1213 54.907 62.1213 54.907 62.1213 54.907V54.907C62.1213 54.907 62.1213 54.907 62.1213 54.907V54.907C62.1213 54.907 62.1213 54.907 62.1213 54.907C62.1213 54.907 62.1213 54.907 62.1213 54.907V54.907C62.1213 54.907 62.1213 54.907 62.1213 54.907V54.907C62.1213 54.907 62.1213 54.907 62.1213 54.907C62.1213 54.907 62.1213 54.907 62.1213 54.907V54.907C62.1213 54.907 62.1213 54.907 62.1213 54.907V54.907C62.1213 54.907 62.1213 54.907 62.1213 54.907C62.1213 54.907 62.1213 54.907 62.1213 54.907V54.907C62.1213 54.907 62.1213 54.907 62.1213 54.907V54.907V54.9069C62.1213 54.9069 62.1213 54.9069 62.1213 54.9069V54.9069C62.1213 54.9069 62.1213 54.9069 62.1213 54.9069V54.9069V54.9069C62.1213 54.9069 62.1213 54.9069 62.1213 54.9069V54.9069C62.1213 54.9069 62.1213 54.9069 62.1213 54.9069C62.1213 54.9069 62.1213 54.9069 62.1213 54.9069V54.9069C62.1213 54.9069 62.1213 54.9069 62.1213 54.9069V54.9069C62.1213 54.9069 62.1213 54.9069 62.1213 54.9069C62.1213 54.9069 62.1213 54.9069 62.1213 54.9069V54.9069C62.1213 54.9069 62.1213 54.9069 62.1213 54.9069V54.9069C62.1213 54.9069 62.1213 54.9069 62.1213 54.9069C62.1213 54.9069 62.1213 54.9069 62.1213 54.9069V54.9069C62.1213 54.9069 62.1213 54.9069 62.1213 54.9069V54.9069C62.1213 54.9069 62.1213 54.9069 62.1213 54.9069C62.1213 54.9069 62.1213 54.9069 62.1213 54.9069V54.9069C62.1213 54.9069 62.1213 54.9069 62.1213 54.9069V54.9069C62.1213 54.9069 62.1213 54.9069 62.1213 54.9069C62.1213 54.9069 62.1213 54.9069 62.1213 54.9069V54.9069C62.1213 54.9069 62.1213 54.9069 62.1213 54.9069V54.9069V54.9069C62.1213 54.9069 62.1213 54.9069 62.1213 54.9069V54.9069C62.1213 54.9069 62.1213 54.9069 62.1213 54.9069V54.9069V54.9068C62.1213 54.9068 62.1213 54.9068 62.1213 54.9068V54.9068C62.1213 54.9068 62.1213 54.9068 62.1213 54.9068V54.9068V54.9068C62.1213 54.9068 62.1213 54.9068 62.1213 54.9068V54.9068C62.1213 54.9068 62.1213 54.9068 62.1213 54.9068C62.1213 54.9068 62.1213 54.9068 62.1213 54.9068V54.9068C62.1213 54.9068 62.1213 54.9068 62.1213 54.9068V54.9068C62.1213 54.9068 62.1213 54.9068 62.1213 54.9068C62.1213 54.9068 62.1213 54.9068 62.1213 54.9068V54.9068C62.1213 54.9068 62.1213 54.9068 62.1213 54.9068V54.9068C62.1213 54.9068 62.1213 54.9068 62.1213 54.9068C62.1213 54.9068 62.1213 54.9068 62.1213 54.9068V54.9068C62.1213 54.9068 62.1213 54.9068 62.1213 54.9068V54.9068C62.1213 54.9068 62.1213 54.9068 62.1213 54.9068C62.1213 54.9068 62.1213 54.9068 62.1213 54.9068V54.9068C62.1213 54.9068 62.1213 54.9068 62.1213 54.9068V54.9068C62.1213 54.9068 62.1213 54.9068 62.1213 54.9068C62.1213 54.9068 62.1213 54.9068 62.1213 54.9068V54.9068C62.1213 54.9068 62.1213 54.9068 62.1213 54.9068V54.9068V54.9068C62.1213 54.9068 62.1213 54.9068 62.1213 54.9068V54.9068C62.1213 54.9068 62.1213 54.9068 62.1213 54.9068V54.9067V54.9067C62.1213 54.9067 62.1213 54.9067 62.1213 54.9067V54.9067C62.1213 54.9067 62.1213 54.9067 62.1213 54.9067V54.9067V54.9067C62.1213 54.9067 62.1213 54.9067 62.1213 54.9067V54.9067C62.1213 54.9067 62.1213 54.9067 62.1213 54.9067C62.1213 54.9067 62.1213 54.9067 62.1213 54.9067V54.9067C62.1213 54.9067 62.1213 54.9067 62.1213 54.9067V54.9067C62.1213 54.9067 62.1213 54.9067 62.1213 54.9067C62.1213 54.9067 62.1213 54.9067 62.1213 54.9067V54.9067C62.1213 54.9067 62.1213 54.9067 62.1213 54.9067V54.9067C62.1213 54.9067 62.1213 54.9067 62.1213 54.9067C62.1213 54.9067 62.1213 54.9067 62.1213 54.9067V54.9067C62.1213 54.9067 62.1213 54.9067 62.1213 54.9067V54.9067C62.1213 54.9067 62.1213 54.9067 62.1213 54.9067C62.1213 54.9067 62.1213 54.9067 62.1213 54.9067V54.9067C62.1213 54.9067 62.1213 54.9067 62.1213 54.9067V54.9067C62.1213 54.9067 62.1213 54.9067 62.1213 54.9067C62.1213 54.9067 62.1213 54.9067 62.1213 54.9067V54.9067C62.1213 54.9067 62.1213 54.9067 62.1213 54.9067V54.9067V54.9067C62.1213 54.9067 62.1213 54.9067 62.1213 54.9067V54.9067C62.1213 54.9067 62.1213 54.9067 62.1213 54.9067V54.9066V54.9066C62.1213 54.9066 62.1213 54.9066 62.1213 54.9066V54.9066C62.1213 54.9066 62.1213 54.9066 62.1213 54.9066V54.9066V54.9066C62.1213 54.9066 62.1213 54.9066 62.1213 54.9066V54.9066C62.1213 54.9066 62.1213 54.9066 62.1213 54.9066C62.1213 54.9066 62.1213 54.9066 62.1213 54.9066V54.9066C62.1213 54.9066 62.1213 54.9066 62.1213 54.9066V54.9066C62.1213 54.9066 62.1213 54.9066 62.1213 54.9066C62.1213 54.9066 62.1213 54.9066 62.1213 54.9066V54.9066C62.1213 54.9066 62.1213 54.9066 62.1213 54.9066V54.9066C62.1213 54.9066 62.1213 54.9066 62.1213 54.9066C62.1213 54.9066 62.1213 54.9066 62.1213 54.9066V54.9066C62.1213 54.9066 62.1213 54.9066 62.1213 54.9066V54.9066C62.1213 54.9066 62.1213 54.9066 62.1213 54.9066C62.1213 54.9066 62.1213 54.9066 62.1213 54.9066V54.9066C62.1213 54.9066 62.1213 54.9066 62.1213 54.9066V54.9066C62.1213 54.9066 62.1213 54.9066 62.1213 54.9066C62.1213 54.9066 62.1213 54.9066 62.1213 54.9066V54.9066C62.1213 54.9066 62.1213 54.9066 62.1213 54.9066V54.9066V54.9066C62.1213 54.9066 62.1213 54.9066 62.1213 54.9066V54.9066C62.1213 54.9066 62.1213 54.9066 62.1213 54.9065V54.9065V54.9065C62.1213 54.9065 62.1213 54.9065 62.1213 54.9065V54.9065C62.1213 54.9065 62.1213 54.9065 62.1213 54.9065C62.1213 54.9065 62.1213 54.9065 62.1213 54.9065V54.9065C62.1213 54.9065 62.1213 54.9065 62.1213 54.9065V54.9065C62.1213 54.9065 62.1213 54.9065 62.1213 54.9065C62.1213 54.9065 62.1213 54.9065 62.1213 54.9065V54.9065C62.1213 54.9065 62.1213 54.9065 62.1213 54.9065V54.9065C62.1213 54.9065 62.1213 54.9065 62.1213 54.9065C62.1213 54.9065 62.1213 54.9065 62.1213 54.9065V54.9065C62.1213 54.9065 62.1213 54.9065 62.1213 54.9065V54.9065C62.1213 54.9065 62.1213 54.9065 62.1213 54.9065C62.1213 54.9065 62.1213 54.9065 62.1213 54.9065V54.9065C62.1213 54.9065 62.1213 54.9065 62.1213 54.9065V54.9065C62.1213 54.9065 62.1213 54.9065 62.1213 54.9065C62.1213 54.9065 62.1213 54.9065 62.1213 54.9065V54.9065C62.1213 54.9065 62.1213 54.9065 62.1213 54.9065V54.9065V54.9065C62.1213 54.9065 62.1213 54.9065 62.1213 54.9065V54.9065C62.1213 54.9065 62.1213 54.9065 62.1213 54.9065V54.9065V54.9065C62.1213 54.9065 62.1213 54.9065 62.1213 54.9065V54.9065C62.1213 54.9065 62.1213 54.9065 62.1213 54.9064V54.9064V54.9064C62.1213 54.9064 62.1213 54.9064 62.1213 54.9064V54.9064C62.1213 54.9064 62.1213 54.9064 62.1213 54.9064C62.1213 54.9064 62.1213 54.9064 62.1213 54.9064V54.9064C62.1213 54.9064 62.1213 54.9064 62.1213 54.9064V54.9064C62.1213 54.9064 62.1213 54.9064 62.1213 54.9064C62.1213 54.9064 62.1213 54.9064 62.1213 54.9064V54.9064C62.1213 54.9064 62.1213 54.9064 62.1213 54.9064V54.9064C62.1213 54.9064 62.1213 54.9064 62.1213 54.9064C62.1213 54.9064 62.1213 54.9064 62.1213 54.9064V54.9064C62.1213 54.9064 62.1213 54.9064 62.1213 54.9064V54.9064C62.1213 54.9064 62.1213 54.9064 62.1213 54.9064C62.1213 54.9064 62.1213 54.9064 62.1213 54.9064V54.9064C62.1213 54.9064 62.1213 54.9064 62.1213 54.9064V54.9064C62.1213 54.9064 62.1213 54.9064 62.1213 54.9064C62.1213 54.9064 62.1213 54.9064 62.1213 54.9064V54.9064C62.1213 54.9064 62.1213 54.9064 62.1213 54.9064V54.9064V54.9064C62.1213 54.9064 62.1213 54.9064 62.1213 54.9064V54.9064C62.1213 54.9064 62.1213 54.9064 62.1213 54.9064V54.9064V54.9064C62.1213 54.9064 62.1213 54.9064 62.1213 54.9064V54.9064C62.1213 54.9063 62.1213 54.9063 62.1213 54.9063V54.9063V54.9063C62.1213 54.9063 62.1213 54.9063 62.1213 54.9063V54.9063C62.1213 54.9063 62.1213 54.9063 62.1213 54.9063C62.1213 54.9063 62.1213 54.9063 62.1213 54.9063V54.9063C62.1213 54.9063 62.1213 54.9063 62.1213 54.9063V54.9063C62.1213 54.9063 62.1213 54.9063 62.1213 54.9063C62.1213 54.9063 62.1213 54.9063 62.1213 54.9063V54.9063C62.1213 54.9063 62.1213 54.9063 62.1213 54.9063V54.9063C62.1213 54.9063 62.1213 54.9063 62.1213 54.9063C62.1213 54.9063 62.1213 54.9063 62.1213 54.9063V54.9063C62.1213 54.9063 62.1213 54.9063 62.1213 54.9063V54.9063C62.1213 54.9063 62.1213 54.9063 62.1213 54.9063C62.1213 54.9063 62.1213 54.9063 62.1213 54.9063V54.9063C62.1213 54.9063 62.1213 54.9063 62.1213 54.9063V54.9063C62.1213 54.9063 62.1213 54.9063 62.1213 54.9063C62.1213 54.9063 62.1213 54.9063 62.1213 54.9063V54.9063C62.1213 54.9063 62.1213 54.9063 62.1213 54.9063V54.9063V54.9063C62.1213 54.9063 62.1213 54.9063 62.1213 54.9063V54.9063C62.1213 54.9063 62.1213 54.9063 62.1213 54.9063V54.9063V54.9063C62.1213 54.9063 62.1213 54.9063 62.1213 54.9063V54.9062C62.1213 54.9062 62.1213 54.9062 62.1213 54.9062C62.1213 54.9062 62.1213 54.9062 62.1213 54.9062V54.9062C62.1213 54.9062 62.1213 54.9062 62.1213 54.9062V54.9062C62.1213 54.9062 62.1213 54.9062 62.1213 54.9062C62.1213 54.9062 62.1213 54.9062 62.1213 54.9062V54.9062C62.1213 54.9062 62.1213 54.9062 62.1213 54.9062V54.9062C62.1213 54.9062 62.1213 54.9062 62.1213 54.9062C62.1213 54.9062 62.1213 54.9062 62.1213 54.9062V54.9062C62.1213 54.9062 62.1213 54.9062 62.1213 54.9062V54.9062C62.1213 54.9062 62.1213 54.9062 62.1213 54.9062C62.1213 54.9062 62.1213 54.9062 62.1213 54.9062V54.9062C62.1213 54.9062 62.1213 54.9062 62.1213 54.9062V54.9062C62.1213 54.9062 62.1213 54.9062 62.1213 54.9062C62.1213 54.9062 62.1213 54.9062 62.1213 54.9062V54.9062C62.1213 54.9062 62.1213 54.9062 62.1213 54.9062V54.9062C62.1213 54.9062 62.1213 54.9062 62.1213 54.9062C62.1213 54.9062 62.1213 54.9062 62.1213 54.9062V54.9062C62.1213 54.9062 62.1213 54.9062 62.1213 54.9062V54.9062V54.9062C62.1213 54.9062 62.1213 54.9062 62.1213 54.9062V54.9062C62.1213 54.9062 62.1213 54.9062 62.1213 54.9062V54.9062V54.9062C62.1213 54.9062 62.1213 54.9062 62.1213 54.9062V54.9061C62.1213 54.9061 62.1213 54.9061 62.1213 54.9061C62.1213 54.9061 62.1213 54.9061 62.1213 54.9061V54.9061C62.1213 54.9061 62.1213 54.9061 62.1213 54.9061V54.9061C62.1213 54.9061 62.1213 54.9061 62.1213 54.9061C62.1213 54.9061 62.1213 54.9061 62.1213 54.9061V54.9061C62.1213 54.9061 62.1213 54.9061 62.1213 54.9061V54.9061C62.1213 54.9061 62.1213 54.9061 62.1213 54.9061C62.1213 54.9061 62.1213 54.9061 62.1213 54.9061V54.9061C62.1213 54.9061 62.1213 54.9061 62.1213 54.9061V54.9061C62.1213 54.9061 62.1213 54.9061 62.1213 54.9061C62.1213 54.9061 62.1213 54.9061 62.1213 54.9061V54.9061C62.1213 54.9061 62.1213 54.9061 62.1213 54.9061V54.9061C62.1213 54.9061 62.1213 54.9061 62.1213 54.9061C62.1213 54.9061 62.1213 54.9061 62.1213 54.9061V54.9061C62.1213 54.9061 62.1213 54.9061 62.1213 54.9061V54.9061V54.9061C62.1213 54.9061 62.1213 54.9061 62.1213 54.9061V54.9061C62.1213 54.9061 62.1213 54.9061 62.1213 54.9061V54.9061H63.1213ZM62.1213 54.9061V47.1892H63.1213V54.9061H62.1213ZM63.1214 47.1476C63.1214 47.1621 63.1214 47.1766 63.1213 47.1911L62.1214 47.1873C62.1214 47.1741 62.1214 47.1609 62.1214 47.1476H63.1214ZM31.5646 28.5391C40.2133 28.5391 48.0677 30.582 53.777 33.911C59.4739 37.2328 63.1214 41.8953 63.1214 47.1476H62.1214C62.1214 42.3989 58.8166 38.0071 53.2732 34.7749C47.7422 31.5498 40.0681 29.5391 31.5646 29.5391V28.5391ZM0.00781277 47.1451C0.00897136 41.8934 3.65678 37.2315 9.35365 33.9102C15.0628 30.5817 22.9166 28.5391 31.5646 28.5391V29.5391C23.0618 29.5391 15.3883 31.5495 9.85731 34.7741C4.31403 38.0059 1.00886 42.3971 1.00781 47.1454L0.00781277 47.1451ZM0.507813 47.6453H0.507737L0.507737 46.6453H0.507813L0.507813 47.6453ZM1.00774 47.1453L1.00774 54.9061H0.00773698L0.00773698 47.1453H1.00774ZM0.00773698 54.9074C0.00773698 54.9071 0.00773692 54.9065 0.00773698 54.906L1.00774 54.9061C1.00774 54.9065 1.00774 54.9069 1.00774 54.9074H0.00773698ZM31.5645 73.516C22.9159 73.516 15.0615 71.473 9.35221 68.1441C3.65523 64.8223 0.00773698 60.1597 0.00773698 54.9074H1.00774C1.00774 59.6562 4.31255 64.048 9.85592 67.2802C15.387 70.5052 23.061 72.516 31.5645 72.516V73.516Z" fill="#C5C9C2" mask="url(#path-1-inside-1_1820_21306)"/>
<path d="M31.5597 65.0091C40.0995 65.0091 47.8187 62.9903 53.3943 59.7393C58.9761 56.4847 62.3665 52.0252 62.3665 47.1506C62.3665 42.2759 58.9761 37.8165 53.3943 34.5618C47.8187 31.3108 40.0995 29.292 31.5597 29.292C23.0199 29.292 15.3008 31.3108 9.72518 34.5618C4.14341 37.8165 0.75293 42.2759 0.75293 47.1506C0.75293 52.0252 4.14341 56.4847 9.72518 59.7393C15.3008 62.9903 23.0199 65.0091 31.5597 65.0091Z" fill="#F3F4F2" stroke="#C5C9C2" stroke-width="0.5"/>
<path d="M31.5718 62.4219C39.5768 62.4219 46.8117 60.5836 52.0365 57.6241C57.2689 54.6604 60.4376 50.6047 60.4376 46.1802C60.4376 41.7557 57.2689 37.7 52.0365 34.7363C46.8117 31.7769 39.5768 29.9385 31.5718 29.9385C23.5668 29.9385 16.3319 31.7769 11.1071 34.7363C5.87471 37.7 2.70605 41.7557 2.70605 46.1802C2.70605 50.6047 5.87471 54.6604 11.1071 57.6241C16.3319 60.5836 23.5668 62.4219 31.5718 62.4219Z" fill="white" stroke="#C5C9C2" stroke-width="0.5"/>
<mask id="path-5-inside-2_1820_21306" fill="white">
<path fill-rule="evenodd" clip-rule="evenodd" d="M31.5645 65.025C48.7167 65.025 62.6213 56.9175 62.6213 46.9164C62.6213 46.916 62.6213 46.9155 62.6213 46.9151V39.1982C62.6214 39.1844 62.6214 39.1705 62.6214 39.1567C62.6214 29.1556 48.7168 21.0481 31.5646 21.0481C14.4138 21.0481 0.510037 29.1543 0.507813 39.1543H0.507737L0.507737 46.9151C0.507737 46.9155 0.507737 46.916 0.507737 46.9164C0.507737 56.9175 14.4123 65.025 31.5645 65.025Z"/>
</mask>
<path fill-rule="evenodd" clip-rule="evenodd" d="M31.5645 65.025C48.7167 65.025 62.6213 56.9175 62.6213 46.9164C62.6213 46.916 62.6213 46.9155 62.6213 46.9151V39.1982C62.6214 39.1844 62.6214 39.1705 62.6214 39.1567C62.6214 29.1556 48.7168 21.0481 31.5646 21.0481C14.4138 21.0481 0.510037 29.1543 0.507813 39.1543H0.507737L0.507737 46.9151C0.507737 46.9155 0.507737 46.916 0.507737 46.9164C0.507737 56.9175 14.4123 65.025 31.5645 65.025Z" fill="white"/>
<path d="M62.6213 39.1982H62.1213L62.1214 39.1963L62.6213 39.1982ZM0.507813 39.1543L1.00781 39.1544L1.0077 39.6543H0.507813L0.507813 39.1543ZM0.507737 39.1543H0.00773698L0.00773698 38.6543H0.507737L0.507737 39.1543ZM0.507737 46.9151H1.00774V46.9151L0.507737 46.9151ZM63.1213 46.9164C63.1213 52.1688 59.4739 56.8313 53.7769 60.1531C48.0676 63.482 40.2132 65.525 31.5645 65.525V64.525C40.0681 64.525 47.7421 62.5142 53.2732 59.2892C58.8165 56.057 62.1213 51.6652 62.1213 46.9164H63.1213ZM63.1213 46.9151V46.9151C63.1213 46.9151 63.1213 46.9151 63.1213 46.9151V46.9151C63.1213 46.9151 63.1213 46.9151 63.1213 46.9151V46.9151V46.9151C63.1213 46.9151 63.1213 46.9151 63.1213 46.9151V46.9151C63.1213 46.9151 63.1213 46.9151 63.1213 46.9151C63.1213 46.9151 63.1213 46.9151 63.1213 46.9151V46.9151C63.1213 46.9151 63.1213 46.9151 63.1213 46.9151V46.9151C63.1213 46.9151 63.1213 46.9151 63.1213 46.9151C63.1213 46.9151 63.1213 46.9151 63.1213 46.9151V46.9151C63.1213 46.9151 63.1213 46.9151 63.1213 46.9151V46.9151C63.1213 46.9151 63.1213 46.9151 63.1213 46.9151C63.1213 46.9151 63.1213 46.9151 63.1213 46.9151V46.9151C63.1213 46.9151 63.1213 46.9151 63.1213 46.9151V46.9151C63.1213 46.9151 63.1213 46.9151 63.1213 46.9151C63.1213 46.9151 63.1213 46.9151 63.1213 46.9151V46.9152C63.1213 46.9152 63.1213 46.9152 63.1213 46.9152V46.9152C63.1213 46.9152 63.1213 46.9152 63.1213 46.9152C63.1213 46.9152 63.1213 46.9152 63.1213 46.9152V46.9152C63.1213 46.9152 63.1213 46.9152 63.1213 46.9152V46.9152V46.9152C63.1213 46.9152 63.1213 46.9152 63.1213 46.9152V46.9152C63.1213 46.9152 63.1213 46.9152 63.1213 46.9152V46.9152V46.9152C63.1213 46.9152 63.1213 46.9152 63.1213 46.9152V46.9152C63.1213 46.9152 63.1213 46.9152 63.1213 46.9152C63.1213 46.9152 63.1213 46.9152 63.1213 46.9152V46.9152C63.1213 46.9152 63.1213 46.9152 63.1213 46.9152V46.9152C63.1213 46.9152 63.1213 46.9152 63.1213 46.9152C63.1213 46.9152 63.1213 46.9152 63.1213 46.9152V46.9152C63.1213 46.9152 63.1213 46.9152 63.1213 46.9152V46.9152C63.1213 46.9152 63.1213 46.9152 63.1213 46.9152C63.1213 46.9152 63.1213 46.9152 63.1213 46.9152V46.9152C63.1213 46.9152 63.1213 46.9152 63.1213 46.9152V46.9152C63.1213 46.9152 63.1213 46.9152 63.1213 46.9152C63.1213 46.9152 63.1213 46.9152 63.1213 46.9152V46.9152C63.1213 46.9152 63.1213 46.9152 63.1213 46.9152V46.9152C63.1213 46.9152 63.1213 46.9152 63.1213 46.9152C63.1213 46.9152 63.1213 46.9152 63.1213 46.9153V46.9153C63.1213 46.9153 63.1213 46.9153 63.1213 46.9153V46.9153C63.1213 46.9153 63.1213 46.9153 63.1213 46.9153C63.1213 46.9153 63.1213 46.9153 63.1213 46.9153V46.9153C63.1213 46.9153 63.1213 46.9153 63.1213 46.9153V46.9153V46.9153C63.1213 46.9153 63.1213 46.9153 63.1213 46.9153V46.9153C63.1213 46.9153 63.1213 46.9153 63.1213 46.9153V46.9153V46.9153C63.1213 46.9153 63.1213 46.9153 63.1213 46.9153V46.9153C63.1213 46.9153 63.1213 46.9153 63.1213 46.9153C63.1213 46.9153 63.1213 46.9153 63.1213 46.9153V46.9153C63.1213 46.9153 63.1213 46.9153 63.1213 46.9153V46.9153C63.1213 46.9153 63.1213 46.9153 63.1213 46.9153C63.1213 46.9153 63.1213 46.9153 63.1213 46.9153V46.9153C63.1213 46.9153 63.1213 46.9153 63.1213 46.9153V46.9153C63.1213 46.9153 63.1213 46.9153 63.1213 46.9153C63.1213 46.9153 63.1213 46.9153 63.1213 46.9153V46.9153C63.1213 46.9153 63.1213 46.9153 63.1213 46.9153V46.9153C63.1213 46.9153 63.1213 46.9153 63.1213 46.9153C63.1213 46.9153 63.1213 46.9153 63.1213 46.9153V46.9153C63.1213 46.9153 63.1213 46.9153 63.1213 46.9153V46.9153C63.1213 46.9153 63.1213 46.9153 63.1213 46.9153C63.1213 46.9153 63.1213 46.9153 63.1213 46.9154V46.9154C63.1213 46.9154 63.1213 46.9154 63.1213 46.9154V46.9154V46.9154C63.1213 46.9154 63.1213 46.9154 63.1213 46.9154V46.9154C63.1213 46.9154 63.1213 46.9154 63.1213 46.9154V46.9154V46.9154C63.1213 46.9154 63.1213 46.9154 63.1213 46.9154V46.9154C63.1213 46.9154 63.1213 46.9154 63.1213 46.9154V46.9154V46.9154C63.1213 46.9154 63.1213 46.9154 63.1213 46.9154V46.9154C63.1213 46.9154 63.1213 46.9154 63.1213 46.9154C63.1213 46.9154 63.1213 46.9154 63.1213 46.9154V46.9154C63.1213 46.9154 63.1213 46.9154 63.1213 46.9154V46.9154C63.1213 46.9154 63.1213 46.9154 63.1213 46.9154C63.1213 46.9154 63.1213 46.9154 63.1213 46.9154V46.9154C63.1213 46.9154 63.1213 46.9154 63.1213 46.9154V46.9154C63.1213 46.9154 63.1213 46.9154 63.1213 46.9154C63.1213 46.9154 63.1213 46.9154 63.1213 46.9154V46.9154C63.1213 46.9154 63.1213 46.9154 63.1213 46.9154V46.9154C63.1213 46.9154 63.1213 46.9154 63.1213 46.9154C63.1213 46.9154 63.1213 46.9154 63.1213 46.9154V46.9154C63.1213 46.9154 63.1213 46.9154 63.1213 46.9154V46.9154C63.1213 46.9154 63.1213 46.9154 63.1213 46.9154C63.1213 46.9155 63.1213 46.9155 63.1213 46.9155V46.9155C63.1213 46.9155 63.1213 46.9155 63.1213 46.9155V46.9155V46.9155C63.1213 46.9155 63.1213 46.9155 63.1213 46.9155V46.9155C63.1213 46.9155 63.1213 46.9155 63.1213 46.9155V46.9155V46.9155C63.1213 46.9155 63.1213 46.9155 63.1213 46.9155V46.9155C63.1213 46.9155 63.1213 46.9155 63.1213 46.9155V46.9155V46.9155C63.1213 46.9155 63.1213 46.9155 63.1213 46.9155V46.9155C63.1213 46.9155 63.1213 46.9155 63.1213 46.9155C63.1213 46.9155 63.1213 46.9155 63.1213 46.9155V46.9155C63.1213 46.9155 63.1213 46.9155 63.1213 46.9155V46.9155C63.1213 46.9155 63.1213 46.9155 63.1213 46.9155C63.1213 46.9155 63.1213 46.9155 63.1213 46.9155V46.9155C63.1213 46.9155 63.1213 46.9155 63.1213 46.9155V46.9155C63.1213 46.9155 63.1213 46.9155 63.1213 46.9155C63.1213 46.9155 63.1213 46.9155 63.1213 46.9155V46.9155C63.1213 46.9155 63.1213 46.9155 63.1213 46.9155V46.9155C63.1213 46.9155 63.1213 46.9155 63.1213 46.9155C63.1213 46.9155 63.1213 46.9155 63.1213 46.9155V46.9155C63.1213 46.9155 63.1213 46.9155 63.1213 46.9155V46.9155C63.1213 46.9156 63.1213 46.9156 63.1213 46.9156C63.1213 46.9156 63.1213 46.9156 63.1213 46.9156V46.9156C63.1213 46.9156 63.1213 46.9156 63.1213 46.9156V46.9156V46.9156C63.1213 46.9156 63.1213 46.9156 63.1213 46.9156V46.9156C63.1213 46.9156 63.1213 46.9156 63.1213 46.9156V46.9156V46.9156C63.1213 46.9156 63.1213 46.9156 63.1213 46.9156V46.9156C63.1213 46.9156 63.1213 46.9156 63.1213 46.9156C63.1213 46.9156 63.1213 46.9156 63.1213 46.9156V46.9156C63.1213 46.9156 63.1213 46.9156 63.1213 46.9156V46.9156C63.1213 46.9156 63.1213 46.9156 63.1213 46.9156C63.1213 46.9156 63.1213 46.9156 63.1213 46.9156V46.9156C63.1213 46.9156 63.1213 46.9156 63.1213 46.9156V46.9156C63.1213 46.9156 63.1213 46.9156 63.1213 46.9156C63.1213 46.9156 63.1213 46.9156 63.1213 46.9156V46.9156C63.1213 46.9156 63.1213 46.9156 63.1213 46.9156V46.9156C63.1213 46.9156 63.1213 46.9156 63.1213 46.9156C63.1213 46.9156 63.1213 46.9156 63.1213 46.9156V46.9156C63.1213 46.9156 63.1213 46.9156 63.1213 46.9156V46.9156C63.1213 46.9156 63.1213 46.9156 63.1213 46.9156C63.1213 46.9156 63.1213 46.9156 63.1213 46.9156V46.9156C63.1213 46.9156 63.1213 46.9156 63.1213 46.9156V46.9156V46.9157C63.1213 46.9157 63.1213 46.9157 63.1213 46.9157V46.9157C63.1213 46.9157 63.1213 46.9157 63.1213 46.9157V46.9157V46.9157C63.1213 46.9157 63.1213 46.9157 63.1213 46.9157V46.9157C63.1213 46.9157 63.1213 46.9157 63.1213 46.9157V46.9157V46.9157C63.1213 46.9157 63.1213 46.9157 63.1213 46.9157V46.9157C63.1213 46.9157 63.1213 46.9157 63.1213 46.9157C63.1213 46.9157 63.1213 46.9157 63.1213 46.9157V46.9157C63.1213 46.9157 63.1213 46.9157 63.1213 46.9157V46.9157C63.1213 46.9157 63.1213 46.9157 63.1213 46.9157C63.1213 46.9157 63.1213 46.9157 63.1213 46.9157V46.9157C63.1213 46.9157 63.1213 46.9157 63.1213 46.9157V46.9157C63.1213 46.9157 63.1213 46.9157 63.1213 46.9157C63.1213 46.9157 63.1213 46.9157 63.1213 46.9157V46.9157C63.1213 46.9157 63.1213 46.9157 63.1213 46.9157V46.9157C63.1213 46.9157 63.1213 46.9157 63.1213 46.9157C63.1213 46.9157 63.1213 46.9157 63.1213 46.9157V46.9157C63.1213 46.9157 63.1213 46.9157 63.1213 46.9157V46.9157C63.1213 46.9157 63.1213 46.9157 63.1213 46.9157C63.1213 46.9157 63.1213 46.9157 63.1213 46.9157V46.9157C63.1213 46.9157 63.1213 46.9157 63.1213 46.9157V46.9158V46.9158C63.1213 46.9158 63.1213 46.9158 63.1213 46.9158V46.9158C63.1213 46.9158 63.1213 46.9158 63.1213 46.9158V46.9158V46.9158C63.1213 46.9158 63.1213 46.9158 63.1213 46.9158V46.9158C63.1213 46.9158 63.1213 46.9158 63.1213 46.9158V46.9158V46.9158C63.1213 46.9158 63.1213 46.9158 63.1213 46.9158V46.9158C63.1213 46.9158 63.1213 46.9158 63.1213 46.9158C63.1213 46.9158 63.1213 46.9158 63.1213 46.9158V46.9158C63.1213 46.9158 63.1213 46.9158 63.1213 46.9158V46.9158C63.1213 46.9158 63.1213 46.9158 63.1213 46.9158C63.1213 46.9158 63.1213 46.9158 63.1213 46.9158V46.9158C63.1213 46.9158 63.1213 46.9158 63.1213 46.9158V46.9158C63.1213 46.9158 63.1213 46.9158 63.1213 46.9158C63.1213 46.9158 63.1213 46.9158 63.1213 46.9158V46.9158C63.1213 46.9158 63.1213 46.9158 63.1213 46.9158V46.9158C63.1213 46.9158 63.1213 46.9158 63.1213 46.9158C63.1213 46.9158 63.1213 46.9158 63.1213 46.9158V46.9158C63.1213 46.9158 63.1213 46.9158 63.1213 46.9158V46.9158C63.1213 46.9158 63.1213 46.9158 63.1213 46.9158C63.1213 46.9158 63.1213 46.9158 63.1213 46.9158V46.9158C63.1213 46.9158 63.1213 46.9158 63.1213 46.9158V46.9159V46.9159C63.1213 46.9159 63.1213 46.9159 63.1213 46.9159V46.9159C63.1213 46.9159 63.1213 46.9159 63.1213 46.9159V46.9159V46.9159C63.1213 46.9159 63.1213 46.9159 63.1213 46.9159V46.9159C63.1213 46.9159 63.1213 46.9159 63.1213 46.9159V46.9159V46.9159C63.1213 46.9159 63.1213 46.9159 63.1213 46.9159V46.9159C63.1213 46.9159 63.1213 46.9159 63.1213 46.9159C63.1213 46.9159 63.1213 46.9159 63.1213 46.9159V46.9159C63.1213 46.9159 63.1213 46.9159 63.1213 46.9159V46.9159C63.1213 46.9159 63.1213 46.9159 63.1213 46.9159C63.1213 46.9159 63.1213 46.9159 63.1213 46.9159V46.9159C63.1213 46.9159 63.1213 46.9159 63.1213 46.9159V46.9159C63.1213 46.9159 63.1213 46.9159 63.1213 46.9159C63.1213 46.9159 63.1213 46.9159 63.1213 46.9159V46.9159C63.1213 46.9159 63.1213 46.9159 63.1213 46.9159V46.9159C63.1213 46.9159 63.1213 46.9159 63.1213 46.9159C63.1213 46.9159 63.1213 46.9159 63.1213 46.9159V46.9159C63.1213 46.9159 63.1213 46.9159 63.1213 46.9159V46.9159C63.1213 46.9159 63.1213 46.9159 63.1213 46.9159C63.1213 46.9159 63.1213 46.9159 63.1213 46.9159V46.9159C63.1213 46.9159 63.1213 46.9159 63.1213 46.916V46.916V46.916C63.1213 46.916 63.1213 46.916 63.1213 46.916V46.916C63.1213 46.916 63.1213 46.916 63.1213 46.916V46.916V46.916C63.1213 46.916 63.1213 46.916 63.1213 46.916V46.916C63.1213 46.916 63.1213 46.916 63.1213 46.916C63.1213 46.916 63.1213 46.916 63.1213 46.916V46.916C63.1213 46.916 63.1213 46.916 63.1213 46.916V46.916C63.1213 46.916 63.1213 46.916 63.1213 46.916C63.1213 46.916 63.1213 46.916 63.1213 46.916V46.916C63.1213 46.916 63.1213 46.916 63.1213 46.916V46.916C63.1213 46.916 63.1213 46.916 63.1213 46.916C63.1213 46.916 63.1213 46.916 63.1213 46.916V46.916C63.1213 46.916 63.1213 46.916 63.1213 46.916V46.916C63.1213 46.916 63.1213 46.916 63.1213 46.916C63.1213 46.916 63.1213 46.916 63.1213 46.916V46.916C63.1213 46.916 63.1213 46.916 63.1213 46.916V46.916C63.1213 46.916 63.1213 46.916 63.1213 46.916C63.1213 46.916 63.1213 46.916 63.1213 46.916V46.916C63.1213 46.916 63.1213 46.916 63.1213 46.916V46.916V46.916C63.1213 46.916 63.1213 46.916 63.1213 46.916V46.916C63.1213 46.916 63.1213 46.916 63.1213 46.9161V46.9161V46.9161C63.1213 46.9161 63.1213 46.9161 63.1213 46.9161V46.9161C63.1213 46.9161 63.1213 46.9161 63.1213 46.9161V46.9161V46.9161C63.1213 46.9161 63.1213 46.9161 63.1213 46.9161V46.9161C63.1213 46.9161 63.1213 46.9161 63.1213 46.9161C63.1213 46.9161 63.1213 46.9161 63.1213 46.9161V46.9161C63.1213 46.9161 63.1213 46.9161 63.1213 46.9161V46.9161C63.1213 46.9161 63.1213 46.9161 63.1213 46.9161C63.1213 46.9161 63.1213 46.9161 63.1213 46.9161V46.9161C63.1213 46.9161 63.1213 46.9161 63.1213 46.9161V46.9161C63.1213 46.9161 63.1213 46.9161 63.1213 46.9161C63.1213 46.9161 63.1213 46.9161 63.1213 46.9161V46.9161C63.1213 46.9161 63.1213 46.9161 63.1213 46.9161V46.9161C63.1213 46.9161 63.1213 46.9161 63.1213 46.9161C63.1213 46.9161 63.1213 46.9161 63.1213 46.9161V46.9161C63.1213 46.9161 63.1213 46.9161 63.1213 46.9161V46.9161C63.1213 46.9161 63.1213 46.9161 63.1213 46.9161C63.1213 46.9161 63.1213 46.9161 63.1213 46.9161V46.9161C63.1213 46.9161 63.1213 46.9161 63.1213 46.9161V46.9161V46.9161C63.1213 46.9161 63.1213 46.9161 63.1213 46.9161V46.9161C63.1213 46.9162 63.1213 46.9162 63.1213 46.9162V46.9162V46.9162C63.1213 46.9162 63.1213 46.9162 63.1213 46.9162V46.9162C63.1213 46.9162 63.1213 46.9162 63.1213 46.9162V46.9162V46.9162C63.1213 46.9162 63.1213 46.9162 63.1213 46.9162V46.9162C63.1213 46.9162 63.1213 46.9162 63.1213 46.9162C63.1213 46.9162 63.1213 46.9162 63.1213 46.9162V46.9162C63.1213 46.9162 63.1213 46.9162 63.1213 46.9162V46.9162C63.1213 46.9162 63.1213 46.9162 63.1213 46.9162C63.1213 46.9162 63.1213 46.9162 63.1213 46.9162V46.9162C63.1213 46.9162 63.1213 46.9162 63.1213 46.9162V46.9162C63.1213 46.9162 63.1213 46.9162 63.1213 46.9162C63.1213 46.9162 63.1213 46.9162 63.1213 46.9162V46.9162C63.1213 46.9162 63.1213 46.9162 63.1213 46.9162V46.9162C63.1213 46.9162 63.1213 46.9162 63.1213 46.9162C63.1213 46.9162 63.1213 46.9162 63.1213 46.9162V46.9162C63.1213 46.9162 63.1213 46.9162 63.1213 46.9162V46.9162C63.1213 46.9162 63.1213 46.9162 63.1213 46.9162C63.1213 46.9162 63.1213 46.9162 63.1213 46.9162V46.9162C63.1213 46.9162 63.1213 46.9162 63.1213 46.9162V46.9162V46.9162C63.1213 46.9162 63.1213 46.9162 63.1213 46.9162V46.9163C63.1213 46.9163 63.1213 46.9163 63.1213 46.9163V46.9163V46.9163C63.1213 46.9163 63.1213 46.9163 63.1213 46.9163V46.9163C63.1213 46.9163 63.1213 46.9163 63.1213 46.9163C63.1213 46.9163 63.1213 46.9163 63.1213 46.9163V46.9163C63.1213 46.9163 63.1213 46.9163 63.1213 46.9163V46.9163C63.1213 46.9163 63.1213 46.9163 63.1213 46.9163C63.1213 46.9163 63.1213 46.9163 63.1213 46.9163V46.9163C63.1213 46.9163 63.1213 46.9163 63.1213 46.9163V46.9163C63.1213 46.9163 63.1213 46.9163 63.1213 46.9163C63.1213 46.9163 63.1213 46.9163 63.1213 46.9163V46.9163C63.1213 46.9163 63.1213 46.9163 63.1213 46.9163V46.9163C63.1213 46.9163 63.1213 46.9163 63.1213 46.9163C63.1213 46.9163 63.1213 46.9163 63.1213 46.9163V46.9163C63.1213 46.9163 63.1213 46.9163 63.1213 46.9163V46.9163C63.1213 46.9163 63.1213 46.9163 63.1213 46.9163C63.1213 46.9163 63.1213 46.9163 63.1213 46.9163V46.9163C63.1213 46.9163 63.1213 46.9163 63.1213 46.9163V46.9163C63.1213 46.9163 63.1213 46.9163 63.1213 46.9163C63.1213 46.9163 63.1213 46.9163 63.1213 46.9163V46.9163C63.1213 46.9163 63.1213 46.9163 63.1213 46.9163V46.9163V46.9163C63.1213 46.9163 63.1213 46.9163 63.1213 46.9163V46.9164C63.1213 46.9164 63.1213 46.9164 63.1213 46.9164V46.9164V46.9164C63.1213 46.9164 63.1213 46.9164 63.1213 46.9164V46.9164C63.1213 46.9164 63.1213 46.9164 63.1213 46.9164C63.1213 46.9164 63.1213 46.9164 63.1213 46.9164V46.9164C63.1213 46.9164 63.1213 46.9164 63.1213 46.9164V46.9164C63.1213 46.9164 63.1213 46.9164 63.1213 46.9164C63.1213 46.9164 63.1213 46.9164 63.1213 46.9164V46.9164C63.1213 46.9164 63.1213 46.9164 63.1213 46.9164V46.9164C63.1213 46.9164 63.1213 46.9164 63.1213 46.9164C63.1213 46.9164 63.1213 46.9164 63.1213 46.9164V46.9164C63.1213 46.9164 63.1213 46.9164 63.1213 46.9164V46.9164C63.1213 46.9164 63.1213 46.9164 63.1213 46.9164C63.1213 46.9164 63.1213 46.9164 63.1213 46.9164V46.9164C63.1213 46.9164 63.1213 46.9164 63.1213 46.9164V46.9164C63.1213 46.9164 63.1213 46.9164 63.1213 46.9164C63.1213 46.9164 63.1213 46.9164 63.1213 46.9164V46.9164C63.1213 46.9164 63.1213 46.9164 63.1213 46.9164V46.9164V46.9164C63.1213 46.9164 63.1213 46.9164 63.1213 46.9164V46.9164C63.1213 46.9164 63.1213 46.9164 63.1213 46.9164V46.9164H62.1213V46.9164C62.1213 46.9164 62.1213 46.9164 62.1213 46.9164V46.9164C62.1213 46.9164 62.1213 46.9164 62.1213 46.9164V46.9164V46.9164C62.1213 46.9164 62.1213 46.9164 62.1213 46.9164V46.9164C62.1213 46.9164 62.1213 46.9164 62.1213 46.9164C62.1213 46.9164 62.1213 46.9164 62.1213 46.9164V46.9164C62.1213 46.9164 62.1213 46.9164 62.1213 46.9164V46.9164C62.1213 46.9164 62.1213 46.9164 62.1213 46.9164C62.1213 46.9164 62.1213 46.9164 62.1213 46.9164V46.9164C62.1213 46.9164 62.1213 46.9164 62.1213 46.9164V46.9164C62.1213 46.9164 62.1213 46.9164 62.1213 46.9164C62.1213 46.9164 62.1213 46.9164 62.1213 46.9164V46.9164C62.1213 46.9164 62.1213 46.9164 62.1213 46.9164V46.9164C62.1213 46.9164 62.1213 46.9164 62.1213 46.9164C62.1213 46.9164 62.1213 46.9164 62.1213 46.9164V46.9164C62.1213 46.9164 62.1213 46.9164 62.1213 46.9164V46.9164C62.1213 46.9164 62.1213 46.9164 62.1213 46.9164C62.1213 46.9164 62.1213 46.9164 62.1213 46.9164V46.9164C62.1213 46.9164 62.1213 46.9164 62.1213 46.9164V46.9164V46.9164C62.1213 46.9164 62.1213 46.9164 62.1213 46.9164V46.9163C62.1213 46.9163 62.1213 46.9163 62.1213 46.9163V46.9163V46.9163C62.1213 46.9163 62.1213 46.9163 62.1213 46.9163V46.9163C62.1213 46.9163 62.1213 46.9163 62.1213 46.9163C62.1213 46.9163 62.1213 46.9163 62.1213 46.9163V46.9163C62.1213 46.9163 62.1213 46.9163 62.1213 46.9163V46.9163C62.1213 46.9163 62.1213 46.9163 62.1213 46.9163C62.1213 46.9163 62.1213 46.9163 62.1213 46.9163V46.9163C62.1213 46.9163 62.1213 46.9163 62.1213 46.9163V46.9163C62.1213 46.9163 62.1213 46.9163 62.1213 46.9163C62.1213 46.9163 62.1213 46.9163 62.1213 46.9163V46.9163C62.1213 46.9163 62.1213 46.9163 62.1213 46.9163V46.9163C62.1213 46.9163 62.1213 46.9163 62.1213 46.9163C62.1213 46.9163 62.1213 46.9163 62.1213 46.9163V46.9163C62.1213 46.9163 62.1213 46.9163 62.1213 46.9163V46.9163C62.1213 46.9163 62.1213 46.9163 62.1213 46.9163C62.1213 46.9163 62.1213 46.9163 62.1213 46.9163V46.9163C62.1213 46.9163 62.1213 46.9163 62.1213 46.9163V46.9163C62.1213 46.9163 62.1213 46.9163 62.1213 46.9163C62.1213 46.9163 62.1213 46.9163 62.1213 46.9163V46.9163C62.1213 46.9163 62.1213 46.9163 62.1213 46.9163V46.9163V46.9163C62.1213 46.9163 62.1213 46.9163 62.1213 46.9163V46.9162C62.1213 46.9162 62.1213 46.9162 62.1213 46.9162V46.9162V46.9162C62.1213 46.9162 62.1213 46.9162 62.1213 46.9162V46.9162C62.1213 46.9162 62.1213 46.9162 62.1213 46.9162C62.1213 46.9162 62.1213 46.9162 62.1213 46.9162V46.9162C62.1213 46.9162 62.1213 46.9162 62.1213 46.9162V46.9162C62.1213 46.9162 62.1213 46.9162 62.1213 46.9162C62.1213 46.9162 62.1213 46.9162 62.1213 46.9162V46.9162C62.1213 46.9162 62.1213 46.9162 62.1213 46.9162V46.9162C62.1213 46.9162 62.1213 46.9162 62.1213 46.9162C62.1213 46.9162 62.1213 46.9162 62.1213 46.9162V46.9162C62.1213 46.9162 62.1213 46.9162 62.1213 46.9162V46.9162C62.1213 46.9162 62.1213 46.9162 62.1213 46.9162C62.1213 46.9162 62.1213 46.9162 62.1213 46.9162V46.9162C62.1213 46.9162 62.1213 46.9162 62.1213 46.9162V46.9162C62.1213 46.9162 62.1213 46.9162 62.1213 46.9162C62.1213 46.9162 62.1213 46.9162 62.1213 46.9162V46.9162C62.1213 46.9162 62.1213 46.9162 62.1213 46.9162V46.9162V46.9162C62.1213 46.9162 62.1213 46.9162 62.1213 46.9162V46.9162C62.1213 46.9162 62.1213 46.9162 62.1213 46.9162V46.9162V46.9162C62.1213 46.9162 62.1213 46.9162 62.1213 46.9161V46.9161C62.1213 46.9161 62.1213 46.9161 62.1213 46.9161V46.9161V46.9161C62.1213 46.9161 62.1213 46.9161 62.1213 46.9161V46.9161C62.1213 46.9161 62.1213 46.9161 62.1213 46.9161C62.1213 46.9161 62.1213 46.9161 62.1213 46.9161V46.9161C62.1213 46.9161 62.1213 46.9161 62.1213 46.9161V46.9161C62.1213 46.9161 62.1213 46.9161 62.1213 46.9161C62.1213 46.9161 62.1213 46.9161 62.1213 46.9161V46.9161C62.1213 46.9161 62.1213 46.9161 62.1213 46.9161V46.9161C62.1213 46.9161 62.1213 46.9161 62.1213 46.9161C62.1213 46.9161 62.1213 46.9161 62.1213 46.9161V46.9161C62.1213 46.9161 62.1213 46.9161 62.1213 46.9161V46.9161C62.1213 46.9161 62.1213 46.9161 62.1213 46.9161C62.1213 46.9161 62.1213 46.9161 62.1213 46.9161V46.9161C62.1213 46.9161 62.1213 46.9161 62.1213 46.9161V46.9161C62.1213 46.9161 62.1213 46.9161 62.1213 46.9161C62.1213 46.9161 62.1213 46.9161 62.1213 46.9161V46.9161C62.1213 46.9161 62.1213 46.9161 62.1213 46.9161V46.9161V46.9161C62.1213 46.9161 62.1213 46.9161 62.1213 46.9161V46.9161C62.1213 46.9161 62.1213 46.9161 62.1213 46.9161V46.9161V46.9161C62.1213 46.916 62.1213 46.916 62.1213 46.916V46.916C62.1213 46.916 62.1213 46.916 62.1213 46.916V46.916V46.916C62.1213 46.916 62.1213 46.916 62.1213 46.916V46.916C62.1213 46.916 62.1213 46.916 62.1213 46.916C62.1213 46.916 62.1213 46.916 62.1213 46.916V46.916C62.1213 46.916 62.1213 46.916 62.1213 46.916V46.916C62.1213 46.916 62.1213 46.916 62.1213 46.916C62.1213 46.916 62.1213 46.916 62.1213 46.916V46.916C62.1213 46.916 62.1213 46.916 62.1213 46.916V46.916C62.1213 46.916 62.1213 46.916 62.1213 46.916C62.1213 46.916 62.1213 46.916 62.1213 46.916V46.916C62.1213 46.916 62.1213 46.916 62.1213 46.916V46.916C62.1213 46.916 62.1213 46.916 62.1213 46.916C62.1213 46.916 62.1213 46.916 62.1213 46.916V46.916C62.1213 46.916 62.1213 46.916 62.1213 46.916V46.916C62.1213 46.916 62.1213 46.916 62.1213 46.916C62.1213 46.916 62.1213 46.916 62.1213 46.916V46.916C62.1213 46.916 62.1213 46.916 62.1213 46.916V46.916V46.916C62.1213 46.916 62.1213 46.916 62.1213 46.916V46.916C62.1213 46.916 62.1213 46.916 62.1213 46.916V46.916V46.916C62.1213 46.9159 62.1213 46.9159 62.1213 46.9159V46.9159C62.1213 46.9159 62.1213 46.9159 62.1213 46.9159C62.1213 46.9159 62.1213 46.9159 62.1213 46.9159V46.9159C62.1213 46.9159 62.1213 46.9159 62.1213 46.9159V46.9159C62.1213 46.9159 62.1213 46.9159 62.1213 46.9159C62.1213 46.9159 62.1213 46.9159 62.1213 46.9159V46.9159C62.1213 46.9159 62.1213 46.9159 62.1213 46.9159V46.9159C62.1213 46.9159 62.1213 46.9159 62.1213 46.9159C62.1213 46.9159 62.1213 46.9159 62.1213 46.9159V46.9159C62.1213 46.9159 62.1213 46.9159 62.1213 46.9159V46.9159C62.1213 46.9159 62.1213 46.9159 62.1213 46.9159C62.1213 46.9159 62.1213 46.9159 62.1213 46.9159V46.9159C62.1213 46.9159 62.1213 46.9159 62.1213 46.9159V46.9159C62.1213 46.9159 62.1213 46.9159 62.1213 46.9159C62.1213 46.9159 62.1213 46.9159 62.1213 46.9159V46.9159C62.1213 46.9159 62.1213 46.9159 62.1213 46.9159V46.9159V46.9159C62.1213 46.9159 62.1213 46.9159 62.1213 46.9159V46.9159C62.1213 46.9159 62.1213 46.9159 62.1213 46.9159V46.9159V46.9159C62.1213 46.9159 62.1213 46.9159 62.1213 46.9159V46.9159C62.1213 46.9159 62.1213 46.9159 62.1213 46.9159V46.9159V46.9158C62.1213 46.9158 62.1213 46.9158 62.1213 46.9158V46.9158C62.1213 46.9158 62.1213 46.9158 62.1213 46.9158C62.1213 46.9158 62.1213 46.9158 62.1213 46.9158V46.9158C62.1213 46.9158 62.1213 46.9158 62.1213 46.9158V46.9158C62.1213 46.9158 62.1213 46.9158 62.1213 46.9158C62.1213 46.9158 62.1213 46.9158 62.1213 46.9158V46.9158C62.1213 46.9158 62.1213 46.9158 62.1213 46.9158V46.9158C62.1213 46.9158 62.1213 46.9158 62.1213 46.9158C62.1213 46.9158 62.1213 46.9158 62.1213 46.9158V46.9158C62.1213 46.9158 62.1213 46.9158 62.1213 46.9158V46.9158C62.1213 46.9158 62.1213 46.9158 62.1213 46.9158C62.1213 46.9158 62.1213 46.9158 62.1213 46.9158V46.9158C62.1213 46.9158 62.1213 46.9158 62.1213 46.9158V46.9158C62.1213 46.9158 62.1213 46.9158 62.1213 46.9158C62.1213 46.9158 62.1213 46.9158 62.1213 46.9158V46.9158C62.1213 46.9158 62.1213 46.9158 62.1213 46.9158V46.9158V46.9158C62.1213 46.9158 62.1213 46.9158 62.1213 46.9158V46.9158C62.1213 46.9158 62.1213 46.9158 62.1213 46.9158V46.9158V46.9158C62.1213 46.9158 62.1213 46.9158 62.1213 46.9158V46.9158C62.1213 46.9158 62.1213 46.9158 62.1213 46.9158V46.9158V46.9157C62.1213 46.9157 62.1213 46.9157 62.1213 46.9157V46.9157C62.1213 46.9157 62.1213 46.9157 62.1213 46.9157C62.1213 46.9157 62.1213 46.9157 62.1213 46.9157V46.9157C62.1213 46.9157 62.1213 46.9157 62.1213 46.9157V46.9157C62.1213 46.9157 62.1213 46.9157 62.1213 46.9157C62.1213 46.9157 62.1213 46.9157 62.1213 46.9157V46.9157C62.1213 46.9157 62.1213 46.9157 62.1213 46.9157V46.9157C62.1213 46.9157 62.1213 46.9157 62.1213 46.9157C62.1213 46.9157 62.1213 46.9157 62.1213 46.9157V46.9157C62.1213 46.9157 62.1213 46.9157 62.1213 46.9157V46.9157C62.1213 46.9157 62.1213 46.9157 62.1213 46.9157C62.1213 46.9157 62.1213 46.9157 62.1213 46.9157V46.9157C62.1213 46.9157 62.1213 46.9157 62.1213 46.9157V46.9157C62.1213 46.9157 62.1213 46.9157 62.1213 46.9157C62.1213 46.9157 62.1213 46.9157 62.1213 46.9157V46.9157C62.1213 46.9157 62.1213 46.9157 62.1213 46.9157V46.9157V46.9157C62.1213 46.9157 62.1213 46.9157 62.1213 46.9157V46.9157C62.1213 46.9157 62.1213 46.9157 62.1213 46.9157V46.9157V46.9157C62.1213 46.9157 62.1213 46.9157 62.1213 46.9157V46.9157C62.1213 46.9157 62.1213 46.9157 62.1213 46.9157V46.9156V46.9156C62.1213 46.9156 62.1213 46.9156 62.1213 46.9156V46.9156C62.1213 46.9156 62.1213 46.9156 62.1213 46.9156C62.1213 46.9156 62.1213 46.9156 62.1213 46.9156V46.9156C62.1213 46.9156 62.1213 46.9156 62.1213 46.9156V46.9156C62.1213 46.9156 62.1213 46.9156 62.1213 46.9156C62.1213 46.9156 62.1213 46.9156 62.1213 46.9156V46.9156C62.1213 46.9156 62.1213 46.9156 62.1213 46.9156V46.9156C62.1213 46.9156 62.1213 46.9156 62.1213 46.9156C62.1213 46.9156 62.1213 46.9156 62.1213 46.9156V46.9156C62.1213 46.9156 62.1213 46.9156 62.1213 46.9156V46.9156C62.1213 46.9156 62.1213 46.9156 62.1213 46.9156C62.1213 46.9156 62.1213 46.9156 62.1213 46.9156V46.9156C62.1213 46.9156 62.1213 46.9156 62.1213 46.9156V46.9156C62.1213 46.9156 62.1213 46.9156 62.1213 46.9156C62.1213 46.9156 62.1213 46.9156 62.1213 46.9156V46.9156C62.1213 46.9156 62.1213 46.9156 62.1213 46.9156V46.9156V46.9156C62.1213 46.9156 62.1213 46.9156 62.1213 46.9156V46.9156C62.1213 46.9156 62.1213 46.9156 62.1213 46.9156V46.9156V46.9156C62.1213 46.9156 62.1213 46.9156 62.1213 46.9156V46.9156C62.1213 46.9156 62.1213 46.9156 62.1213 46.9156C62.1213 46.9156 62.1213 46.9156 62.1213 46.9155V46.9155C62.1213 46.9155 62.1213 46.9155 62.1213 46.9155V46.9155C62.1213 46.9155 62.1213 46.9155 62.1213 46.9155C62.1213 46.9155 62.1213 46.9155 62.1213 46.9155V46.9155C62.1213 46.9155 62.1213 46.9155 62.1213 46.9155V46.9155C62.1213 46.9155 62.1213 46.9155 62.1213 46.9155C62.1213 46.9155 62.1213 46.9155 62.1213 46.9155V46.9155C62.1213 46.9155 62.1213 46.9155 62.1213 46.9155V46.9155C62.1213 46.9155 62.1213 46.9155 62.1213 46.9155C62.1213 46.9155 62.1213 46.9155 62.1213 46.9155V46.9155C62.1213 46.9155 62.1213 46.9155 62.1213 46.9155V46.9155C62.1213 46.9155 62.1213 46.9155 62.1213 46.9155C62.1213 46.9155 62.1213 46.9155 62.1213 46.9155V46.9155C62.1213 46.9155 62.1213 46.9155 62.1213 46.9155V46.9155V46.9155C62.1213 46.9155 62.1213 46.9155 62.1213 46.9155V46.9155C62.1213 46.9155 62.1213 46.9155 62.1213 46.9155V46.9155V46.9155C62.1213 46.9155 62.1213 46.9155 62.1213 46.9155V46.9155C62.1213 46.9155 62.1213 46.9155 62.1213 46.9155V46.9155V46.9155C62.1213 46.9155 62.1213 46.9155 62.1213 46.9155V46.9155C62.1213 46.9155 62.1213 46.9155 62.1213 46.9154C62.1213 46.9154 62.1213 46.9154 62.1213 46.9154V46.9154C62.1213 46.9154 62.1213 46.9154 62.1213 46.9154V46.9154C62.1213 46.9154 62.1213 46.9154 62.1213 46.9154C62.1213 46.9154 62.1213 46.9154 62.1213 46.9154V46.9154C62.1213 46.9154 62.1213 46.9154 62.1213 46.9154V46.9154C62.1213 46.9154 62.1213 46.9154 62.1213 46.9154C62.1213 46.9154 62.1213 46.9154 62.1213 46.9154V46.9154C62.1213 46.9154 62.1213 46.9154 62.1213 46.9154V46.9154C62.1213 46.9154 62.1213 46.9154 62.1213 46.9154C62.1213 46.9154 62.1213 46.9154 62.1213 46.9154V46.9154C62.1213 46.9154 62.1213 46.9154 62.1213 46.9154V46.9154C62.1213 46.9154 62.1213 46.9154 62.1213 46.9154C62.1213 46.9154 62.1213 46.9154 62.1213 46.9154V46.9154C62.1213 46.9154 62.1213 46.9154 62.1213 46.9154V46.9154V46.9154C62.1213 46.9154 62.1213 46.9154 62.1213 46.9154V46.9154C62.1213 46.9154 62.1213 46.9154 62.1213 46.9154V46.9154V46.9154C62.1213 46.9154 62.1213 46.9154 62.1213 46.9154V46.9154C62.1213 46.9154 62.1213 46.9154 62.1213 46.9154V46.9154V46.9154C62.1213 46.9154 62.1213 46.9154 62.1213 46.9154V46.9154C62.1213 46.9153 62.1213 46.9153 62.1213 46.9153C62.1213 46.9153 62.1213 46.9153 62.1213 46.9153V46.9153C62.1213 46.9153 62.1213 46.9153 62.1213 46.9153V46.9153C62.1213 46.9153 62.1213 46.9153 62.1213 46.9153C62.1213 46.9153 62.1213 46.9153 62.1213 46.9153V46.9153C62.1213 46.9153 62.1213 46.9153 62.1213 46.9153V46.9153C62.1213 46.9153 62.1213 46.9153 62.1213 46.9153C62.1213 46.9153 62.1213 46.9153 62.1213 46.9153V46.9153C62.1213 46.9153 62.1213 46.9153 62.1213 46.9153V46.9153C62.1213 46.9153 62.1213 46.9153 62.1213 46.9153C62.1213 46.9153 62.1213 46.9153 62.1213 46.9153V46.9153C62.1213 46.9153 62.1213 46.9153 62.1213 46.9153V46.9153C62.1213 46.9153 62.1213 46.9153 62.1213 46.9153C62.1213 46.9153 62.1213 46.9153 62.1213 46.9153V46.9153C62.1213 46.9153 62.1213 46.9153 62.1213 46.9153V46.9153V46.9153C62.1213 46.9153 62.1213 46.9153 62.1213 46.9153V46.9153C62.1213 46.9153 62.1213 46.9153 62.1213 46.9153V46.9153V46.9153C62.1213 46.9153 62.1213 46.9153 62.1213 46.9153V46.9153C62.1213 46.9153 62.1213 46.9153 62.1213 46.9153C62.1213 46.9153 62.1213 46.9153 62.1213 46.9153V46.9153C62.1213 46.9153 62.1213 46.9153 62.1213 46.9153V46.9153C62.1213 46.9152 62.1213 46.9152 62.1213 46.9152C62.1213 46.9152 62.1213 46.9152 62.1213 46.9152V46.9152C62.1213 46.9152 62.1213 46.9152 62.1213 46.9152V46.9152C62.1213 46.9152 62.1213 46.9152 62.1213 46.9152C62.1213 46.9152 62.1213 46.9152 62.1213 46.9152V46.9152C62.1213 46.9152 62.1213 46.9152 62.1213 46.9152V46.9152C62.1213 46.9152 62.1213 46.9152 62.1213 46.9152C62.1213 46.9152 62.1213 46.9152 62.1213 46.9152V46.9152C62.1213 46.9152 62.1213 46.9152 62.1213 46.9152V46.9152C62.1213 46.9152 62.1213 46.9152 62.1213 46.9152C62.1213 46.9152 62.1213 46.9152 62.1213 46.9152V46.9152C62.1213 46.9152 62.1213 46.9152 62.1213 46.9152V46.9152C62.1213 46.9152 62.1213 46.9152 62.1213 46.9152C62.1213 46.9152 62.1213 46.9152 62.1213 46.9152V46.9152C62.1213 46.9152 62.1213 46.9152 62.1213 46.9152V46.9152V46.9152C62.1213 46.9152 62.1213 46.9152 62.1213 46.9152V46.9152C62.1213 46.9152 62.1213 46.9152 62.1213 46.9152V46.9152V46.9152C62.1213 46.9152 62.1213 46.9152 62.1213 46.9152V46.9152C62.1213 46.9152 62.1213 46.9152 62.1213 46.9152C62.1213 46.9152 62.1213 46.9152 62.1213 46.9152V46.9152C62.1213 46.9152 62.1213 46.9152 62.1213 46.9152V46.9151C62.1213 46.9151 62.1213 46.9151 62.1213 46.9151C62.1213 46.9151 62.1213 46.9151 62.1213 46.9151V46.9151C62.1213 46.9151 62.1213 46.9151 62.1213 46.9151V46.9151C62.1213 46.9151 62.1213 46.9151 62.1213 46.9151C62.1213 46.9151 62.1213 46.9151 62.1213 46.9151V46.9151C62.1213 46.9151 62.1213 46.9151 62.1213 46.9151V46.9151C62.1213 46.9151 62.1213 46.9151 62.1213 46.9151C62.1213 46.9151 62.1213 46.9151 62.1213 46.9151V46.9151C62.1213 46.9151 62.1213 46.9151 62.1213 46.9151V46.9151C62.1213 46.9151 62.1213 46.9151 62.1213 46.9151C62.1213 46.9151 62.1213 46.9151 62.1213 46.9151V46.9151C62.1213 46.9151 62.1213 46.9151 62.1213 46.9151V46.9151V46.9151C62.1213 46.9151 62.1213 46.9151 62.1213 46.9151V46.9151C62.1213 46.9151 62.1213 46.9151 62.1213 46.9151V46.9151H63.1213ZM62.1213 46.9151V39.1982H63.1213V46.9151H62.1213ZM63.1214 39.1567C63.1214 39.1712 63.1214 39.1857 63.1213 39.2002L62.1214 39.1963C62.1214 39.1831 62.1214 39.1699 62.1214 39.1567H63.1214ZM31.5646 20.5481C40.2133 20.5481 48.0677 22.5911 53.777 25.92C59.4739 29.2418 63.1214 33.9043 63.1214 39.1567H62.1214C62.1214 34.4079 58.8166 30.0161 53.2732 26.7839C47.7422 23.5589 40.0681 21.5481 31.5646 21.5481V20.5481ZM0.00781277 39.1542C0.00898063 33.9024 3.65679 29.2406 9.35366 25.9192C15.0628 22.5907 22.9166 20.5481 31.5646 20.5481V21.5481C23.0618 21.5481 15.3883 23.5585 9.85732 26.7831C4.31404 30.0149 1.00887 34.4061 1.00781 39.1544L0.00781277 39.1542ZM0.507813 39.6543H0.507737L0.507737 38.6543H0.507813L0.507813 39.6543ZM1.00774 39.1543L1.00774 46.9151H0.00773698L0.00773698 39.1543H1.00774ZM0.00773698 46.9164C0.00773698 46.9161 0.00773692 46.9155 0.00773698 46.915L1.00774 46.9151C1.00774 46.9156 1.00774 46.9159 1.00774 46.9164H0.00773698ZM31.5645 65.525C22.9159 65.525 15.0615 63.482 9.35221 60.1531C3.65523 56.8313 0.00773698 52.1688 0.00773698 46.9164H1.00774C1.00774 51.6652 4.31255 56.057 9.85592 59.2892C15.387 62.5142 23.061 64.525 31.5645 64.525V65.525Z" fill="#C5C9C2" mask="url(#path-5-inside-2_1820_21306)"/>
<path d="M31.5597 57.0177C40.0995 57.0177 47.8187 54.9989 53.3943 51.7478C58.9761 48.4932 62.3665 44.0338 62.3665 39.1591C62.3665 34.2844 58.9761 29.825 53.3943 26.5704C47.8187 23.3194 40.0995 21.3005 31.5597 21.3005C23.0199 21.3005 15.3008 23.3194 9.72518 26.5704C4.14341 29.825 0.75293 34.2844 0.75293 39.1591C0.75293 44.0338 4.14341 48.4932 9.72518 51.7478C15.3008 54.9989 23.0199 57.0177 31.5597 57.0177Z" fill="white" stroke="#C5C9C2" stroke-width="0.5"/>
<mask id="path-8-inside-3_1820_21306" fill="white">
<path fill-rule="evenodd" clip-rule="evenodd" d="M51.3866 53.6602C64.5259 64.6806 80.3911 67.4037 86.8225 59.7425C86.8239 59.7408 86.8253 59.7391 86.8268 59.7374L86.8371 59.746L91.4379 54.2655C91.5798 54.115 91.7177 53.9601 91.8516 53.8007C98.2829 46.1394 92.845 30.9949 79.7057 19.9745C66.5663 8.95405 50.7011 6.23093 44.2698 13.8922C44.2665 13.8961 44.2632 13.9001 44.2599 13.904L44.2461 13.8925L39.5982 19.4292C39.476 19.5608 39.3568 19.6957 39.2407 19.834C32.8093 27.4953 38.2472 42.6398 51.3866 53.6602Z"/>
</mask>
<path fill-rule="evenodd" clip-rule="evenodd" d="M51.3866 53.6602C64.5259 64.6806 80.3911 67.4037 86.8225 59.7425C86.8239 59.7408 86.8253 59.7391 86.8268 59.7374L86.8371 59.746L91.4379 54.2655C91.5798 54.115 91.7177 53.9601 91.8516 53.8007C98.2829 46.1394 92.845 30.9949 79.7057 19.9745C66.5663 8.95405 50.7011 6.23093 44.2698 13.8922C44.2665 13.8961 44.2632 13.9001 44.2599 13.904L44.2461 13.8925L39.5982 19.4292C39.476 19.5608 39.3568 19.6957 39.2407 19.834C32.8093 27.4953 38.2472 42.6398 51.3866 53.6602Z" fill="white"/>
<path d="M86.8268 59.7374L86.451 59.4222L86.7663 59.0465L87.1421 59.3617L86.8268 59.7374ZM86.8371 59.746L87.2129 60.0612L86.8976 60.4369L86.5218 60.1217L86.8371 59.746ZM91.4379 54.2655L91.0621 53.9503L91.0712 53.9395L91.0809 53.9292L91.4379 54.2655ZM79.7057 19.9745L80.021 19.5988L79.7057 19.9745ZM44.2698 13.8922L44.6455 14.2074L44.2698 13.8922ZM44.2599 13.904L44.6361 14.2186L44.3208 14.5953L43.9445 14.2797L44.2599 13.904ZM44.2461 13.8925L43.8703 13.5773L44.1857 13.2016L44.5614 13.5168L44.2461 13.8925ZM39.5982 19.4292L39.974 19.7444L39.966 19.7538L39.9577 19.7628L39.5982 19.4292ZM87.1983 60.0576C83.8239 64.0774 78.0356 65.3057 71.537 64.1902C65.0245 63.0724 57.6955 59.5918 51.0712 54.0358L51.7019 53.2846C58.217 58.749 65.3902 62.1401 71.7031 63.2237C78.0297 64.3096 83.3898 63.0688 86.4467 59.4273L87.1983 60.0576ZM87.2026 60.0525C87.202 60.0532 87.2014 60.0539 87.2007 60.0548C87.2 60.0556 87.1991 60.0566 87.1983 60.0576L86.4467 59.4273C86.4473 59.4266 86.4479 59.4259 86.4486 59.4251C86.4493 59.4242 86.4501 59.4232 86.451 59.4222L87.2026 60.0525ZM87.1421 59.3617L87.1525 59.3704L86.5218 60.1217L86.5114 60.113L87.1421 59.3617ZM86.4614 59.4309L91.0621 53.9503L91.8136 54.5807L87.2129 60.0612L86.4614 59.4309ZM92.2273 54.1158C92.0874 54.2825 91.9432 54.4445 91.7948 54.6019L91.0809 53.9292C91.2164 53.7856 91.348 53.6377 91.4758 53.4855L92.2273 54.1158ZM80.021 19.5988C86.6453 25.1548 91.3472 31.765 93.5794 37.9816C95.8068 44.185 95.6017 50.0961 92.2273 54.1158L91.4758 53.4855C94.5327 49.8439 94.8244 44.3521 92.6559 38.3129C90.4922 32.2868 85.9055 25.8145 79.3904 20.3501L80.021 19.5988ZM43.894 13.577C47.2684 9.55731 53.0566 8.32898 59.5553 9.44442C66.0677 10.5622 73.3968 14.0428 80.021 19.5988L79.3904 20.3501C72.8753 14.8857 65.7021 11.4945 59.3892 10.411C53.0626 9.32507 47.7025 10.5658 44.6455 14.2074L43.894 13.577ZM43.8836 13.5894C43.8871 13.5853 43.8905 13.5811 43.894 13.577L44.6455 14.2074C44.6424 14.2111 44.6392 14.2149 44.6361 14.2186L43.8836 13.5894ZM43.9445 14.2797L43.9308 14.2681L44.5614 13.5168L44.5752 13.5284L43.9445 14.2797ZM44.6219 14.2076L39.974 19.7444L39.2224 19.114L43.8703 13.5773L44.6219 14.2076ZM38.8649 19.5188C38.9863 19.3742 39.1109 19.2332 39.2387 19.0956L39.9577 19.7628C39.8411 19.8884 39.7273 20.0172 39.6165 20.1492L38.8649 19.5188ZM51.0712 54.0358C44.447 48.4799 39.7451 41.8697 37.5129 35.6531C35.2854 29.4496 35.4905 23.5385 38.8649 19.5188L39.6165 20.1492C36.5595 23.7907 36.2678 29.2825 38.4363 35.3217C40.6001 41.3478 45.1868 47.8201 51.7019 53.2846L51.0712 54.0358Z" fill="#C5C9C2" mask="url(#path-8-inside-3_1820_21306)"/>
<path d="M56.5756 47.5262C63.1175 53.0131 70.3289 56.4262 76.6907 57.5181C83.0595 58.6113 88.5245 57.3736 91.6593 53.6393C94.794 49.905 95.0645 44.3105 92.8816 38.231C90.701 32.1582 86.0861 25.6521 79.5442 20.1652C73.0024 14.6784 65.7909 11.2653 59.4292 10.1733C53.0604 9.08019 47.5953 10.3179 44.4606 14.0522C41.3258 17.7864 41.0553 23.381 43.2383 29.4605C45.4188 35.5333 50.0338 42.0393 56.5756 47.5262Z" fill="white" stroke="#C5C9C2" stroke-width="0.5"/>
</svg>
