<svg width="288" height="80" viewBox="0 0 288 80" fill="none" xmlns="http://www.w3.org/2000/svg">
  <path d="M135 38.2C135 35.2002 135 33.7003 135.764 32.6489C136.011 32.3093 136.309 32.0107 136.649 31.7639C137.7 31 139.2 31 142.2 31H147V51H142.2C139.2 51 137.7 51 136.649 50.2361C136.309 49.9893 136.011 49.6907 135.764 49.3511C135 48.2997 135 46.7998 135 43.8V38.2Z" fill="#D9DBD7"/>
  <rect x="97" y="39" width="50" height="4" fill="#D9DBD7"/>
  <rect x="159" y="39" width="50" height="4" fill="#D9DBD7"/>
  <rect x="147" y="35" width="6" height="3" fill="#D9DBD7"/>
  <rect x="147" y="44" width="6" height="3" fill="#D9DBD7"/>
  <path d="M159 31H163.8C166.8 31 168.3 31 169.351 31.7639C169.691 32.0107 169.989 32.3093 170.236 32.6489C171 33.7003 171 35.2002 171 38.2V43.8C171 46.7998 171 48.2997 170.236 49.3511C169.989 49.6907 169.691 49.9893 169.351 50.2361C168.3 51 166.8 51 163.8 51H159V31Z" fill="#D9DBD7"/>
  <path fill-rule="evenodd" clip-rule="evenodd" d="M265.778 0H217.111C209.612 0 205.862 0 203.233 1.90983C202.385 2.52663 201.638 3.2732 201.021 4.12215C199.111 6.7508 199.111 10.5005 199.111 18V62C199.111 69.4995 199.111 73.2492 201.021 75.8779C201.638 76.7268 202.385 77.4734 203.233 78.0902C205.862 80 209.612 80 217.111 80H265.778C278.051 80 288 70.0508 288 57.7778V22.2222C288 9.94923 278.051 0 265.778 0ZM248.953 28.7276C247.998 30.042 247.998 31.9168 247.998 35.6666V44.3332C247.998 48.083 247.998 49.9578 248.953 51.2722C249.261 51.6966 249.635 52.0699 250.059 52.3783C251.373 53.3332 253.248 53.3332 256.998 53.3332H265.776C268.876 53.3332 270.426 53.3332 271.697 52.9925C275.148 52.0678 277.844 49.3723 278.768 45.9214C279.109 44.6498 279.109 43.0998 279.109 39.9999C279.109 36.9 279.109 35.35 278.768 34.0784C277.844 30.6275 275.148 27.932 271.697 27.0073C270.426 26.6666 268.876 26.6666 265.776 26.6666H256.998C253.248 26.6666 251.373 26.6666 250.059 27.6215C249.635 27.9299 249.261 28.3032 248.953 28.7276ZM225.776 66.6667C225.776 69.1213 223.786 71.1112 221.331 71.1112H212.442C209.988 71.1112 207.998 69.1213 207.998 66.6667C207.998 64.2121 209.988 62.2223 212.442 62.2223H221.331C223.786 62.2223 225.776 64.2121 225.776 66.6667ZM261.329 44.4443C263.784 44.4443 265.774 42.4545 265.774 39.9999C265.774 37.5453 263.784 35.5554 261.329 35.5554C258.875 35.5554 256.885 37.5453 256.885 39.9999C256.885 42.4545 258.875 44.4443 261.329 44.4443Z" fill="#D9DBD7"/>
  <path fill-rule="evenodd" clip-rule="evenodd" d="M93.9573 3.76839C96.4267 6.20733 97.4484 9.86845 99.4918 17.1907L113.969 69.0678C114.18 69.8218 114.286 70.601 114.286 71.3838C114.286 76.1424 110.429 80 105.67 80H98.7752V76.1801C98.7752 73.5341 98.7752 72.2111 98.5653 70.915C98.4955 70.4839 98.4085 70.0557 98.3043 69.6315C97.9913 68.3564 97.4746 67.1385 96.4412 64.7027L78.9574 23.4907L78.9571 23.4902C78.5877 22.6193 78.2705 21.8717 77.9787 21.2245H77.9793C77.2399 19.5847 76.6631 18.5898 75.8111 17.8696C75.4217 17.5405 74.9952 17.2581 74.5402 17.0282C73.4551 16.48 72.1975 16.3601 70.105 16.3339C69.6028 16.3276 69.0526 16.3267 68.445 16.3265C68.344 16.3265 68.2414 16.3265 68.1371 16.3265H68.3562C68.2838 16.3265 68.2105 16.3265 68.1365 16.3265H68.1358H41.3105L40.0456 12.4417L40.0456 12.4416L40.0454 12.441L40.0453 12.4405C39.9864 12.2596 39.9569 12.169 39.9286 12.0785C39.4542 10.5618 39.2038 8.98404 39.1853 7.39502C39.1842 7.30003 39.1842 7.20452 39.1842 7.01348C39.1842 6.56512 39.1842 6.34094 39.1952 6.15158C39.3876 2.84318 42.0274 0.203348 45.3358 0.0110084C45.5252 0 45.7493 0 46.1977 0H76.8469C84.4489 0 88.2499 0 91.2629 1.72294C92.2459 2.28507 93.1516 2.97265 93.9573 3.76839ZM5.90959 32.653H20.7302C21.513 34.4982 21.9044 35.4208 22.5549 36.0836C23.037 36.575 23.6173 36.9591 24.2579 37.2111C25.1221 37.551 26.1243 37.551 28.1287 37.551H55.0133L69.6655 63.4741L69.6656 63.4743C71.3456 66.4466 72.1856 67.9328 72.6978 69.5389C72.8679 70.0725 73.0105 70.6145 73.1249 71.1628C73.4694 72.813 73.4694 74.5202 73.4694 77.9346V80H48.6592C36.7954 80 30.8636 80 25.7538 77.7025C24.0744 76.9475 22.4796 76.0169 20.9959 74.9265C16.4815 71.6086 13.5627 66.4445 7.72505 56.1164L7.72502 56.1163L1.9123 45.8323C0.658756 43.6145 0 41.1102 0 38.5626C0 35.2989 2.64581 32.653 5.90959 32.653ZM20.7302 32.653L19.2489 29.1618C18.398 27.1561 17.9595 24.9996 17.9595 22.8209C17.9595 19.2342 20.8671 16.3265 24.4538 16.3265H41.3109C41.7833 17.7775 42.0195 18.503 42.4094 19.0774C43.0511 20.0228 44.0032 20.714 45.1007 21.0316C45.7676 21.2245 46.5306 21.2245 48.0566 21.2245H72.2823L90.7276 64.7027C91.7609 67.1384 92.2777 68.3565 92.5907 69.6315C92.6948 70.0557 92.7819 70.4839 92.8517 70.915C93.0615 72.2111 93.0615 73.5341 93.0615 76.1801V80H79.1839V77.9346C79.1839 74.5202 79.1839 72.813 78.8395 71.1628C78.725 70.6145 78.5825 70.0725 78.4123 69.5389C77.9002 67.9329 77.0601 66.4465 75.3801 63.4742L61.3343 38.624C59.8749 36.0419 59.1452 34.7509 58.0166 33.9214C57.6457 33.6488 57.247 33.4162 56.8271 33.2274C55.7258 32.7323 54.4718 32.664 52.2465 32.6546L52.2457 32.6531L20.7302 32.653Z" fill="#D9DBD7"/>
</svg>
