<svg width="206" height="148" fill="none" xmlns="http://www.w3.org/2000/svg"><mask id="a" fill="#fff"><path fill-rule="evenodd" clip-rule="evenodd" d="M0 109.883v-15.53c0-20.012 27.811-36.235 62.118-36.235 34.306 0 62.117 16.223 62.117 36.235V109.883c0 20.012-27.81 36.235-62.117 36.235S0 129.895 0 109.883Z"/></mask><path fill-rule="evenodd" clip-rule="evenodd" d="M0 109.883v-15.53c0-20.012 27.811-36.235 62.118-36.235 34.306 0 62.117 16.223 62.117 36.235V109.883c0 20.012-27.81 36.235-62.117 36.235S0 129.895 0 109.883Z" fill="#fff"/><path d="M0 94.354h-.981v-.982h.98v.982Zm0 15.529v.981h-.981v-.981h.98Zm0-15.53h.981v.982H0v-.981Zm124.235.066h-.981v-.003l.981.003Zm0 15.416-.981.002v-.002h.981ZM0 109.883v-.981h.981v.981H0Zm.981-15.53v15.53H-.98v-15.53H.98ZM0 95.336v-1.963 1.963Zm-.981-.981H.98-.98Zm0 0c0-10.5 7.289-19.825 18.68-26.47 11.416-6.66 27.123-10.747 44.419-10.747v1.962c-17.011 0-32.364 4.025-43.43 10.48C7.598 76.049.981 84.84.981 94.354H-.98Zm63.099-37.217c17.296 0 33.002 4.087 44.418 10.747 11.392 6.645 18.681 15.97 18.681 26.47h-1.963c0-9.513-6.617-18.306-17.707-24.775-11.066-6.455-26.418-10.48-43.43-10.48v-1.962Zm63.099 37.216v.069l-1.963-.006v-.063h1.963Zm-1.963 15.482V94.419h1.963v15.416h-1.963Zm1.963-.002v.05h-1.963v-.046l1.963-.004Zm0 .05c0 10.5-7.289 19.824-18.681 26.47-11.416 6.659-27.123 10.746-44.418 10.746v-1.962c17.01 0 32.363-4.024 43.429-10.479 11.09-6.47 17.707-15.263 17.707-24.775h1.963Zm-63.1 37.216c-17.295 0-33.002-4.087-44.417-10.746-11.392-6.646-18.681-15.97-18.681-26.47H.98c0 9.512 6.617 18.305 17.707 24.775 11.066 6.455 26.419 10.479 43.43 10.479v1.962ZM0 108.902v1.962-1.962Z" fill="#C5C9C2" mask="url(#a)"/><path d="M62.118 130.098c17.082 0 32.523-4.04 43.676-10.546 11.166-6.513 17.951-15.439 17.951-25.199 0-9.759-6.785-18.685-17.951-25.198C94.641 62.649 79.2 58.609 62.118 58.609s-32.523 4.04-43.677 10.546C7.275 75.668.491 84.595.491 94.353c0 9.76 6.784 18.686 17.95 25.199 11.154 6.506 26.595 10.546 43.677 10.546Z" fill="#F3F4F2" stroke="#C5C9C2" stroke-width=".981"/><path d="M62.118 124.921c16.012 0 30.485-3.679 40.937-9.601 10.467-5.932 16.808-14.05 16.808-22.908 0-8.859-6.341-16.977-16.808-22.908-10.452-5.923-24.925-9.602-40.937-9.602-16.012 0-30.485 3.68-40.937 9.602-10.466 5.931-16.808 14.05-16.808 22.908s6.342 16.976 16.808 22.908c10.453 5.922 24.925 9.601 40.937 9.601Z" fill="#fff" stroke="#C5C9C2" stroke-width=".981"/><mask id="b" fill="#fff"><path fill-rule="evenodd" clip-rule="evenodd" d="M0 93.883v-15.53c0-20.012 27.811-36.235 62.118-36.235 34.306 0 62.117 16.223 62.117 36.235V93.883c0 20.012-27.81 36.235-62.117 36.235S0 113.895 0 93.883Z"/></mask><path fill-rule="evenodd" clip-rule="evenodd" d="M0 93.883v-15.53c0-20.012 27.811-36.235 62.118-36.235 34.306 0 62.117 16.223 62.117 36.235V93.883c0 20.012-27.81 36.235-62.117 36.235S0 113.895 0 93.883Z" fill="#fff"/><path d="M0 78.354h-.981v-.982h.98v.982Zm0 15.529v.981h-.981v-.981h.98Zm0-15.53h.981v.982H0v-.981Zm124.235.066h-.981v-.003l.981.003Zm0 15.416-.981.002v-.002h.981ZM0 93.883v-.981h.981v.981H0Zm.981-15.53v15.53H-.98v-15.53H.98ZM0 79.336v-1.963 1.963Zm-.981-.981H.98-.98Zm0 0c0-10.5 7.289-19.825 18.68-26.47 11.416-6.66 27.123-10.747 44.419-10.747v1.962c-17.011 0-32.364 4.025-43.43 10.48C7.598 60.049.981 68.84.981 78.353H-.98Zm63.099-37.217c17.296 0 33.002 4.087 44.418 10.747 11.392 6.645 18.681 15.97 18.681 26.47h-1.963c0-9.513-6.617-18.306-17.707-24.775-11.066-6.456-26.418-10.48-43.43-10.48v-1.962Zm63.099 37.216v.069l-1.963-.006v-.063h1.963Zm-1.963 15.482V78.419h1.963v15.416h-1.963Zm1.963-.002v.05h-1.963v-.046l1.963-.004Zm0 .05c0 10.5-7.289 19.824-18.681 26.47-11.416 6.659-27.123 10.746-44.418 10.746v-1.962c17.01 0 32.363-4.024 43.429-10.479 11.09-6.47 17.707-15.263 17.707-24.775h1.963Zm-63.1 37.216c-17.295 0-33.002-4.087-44.417-10.746-11.392-6.646-18.681-15.97-18.681-26.47H.98c0 9.512 6.617 18.305 17.707 24.775 11.066 6.455 26.419 10.479 43.43 10.479v1.962ZM0 92.902v1.962-1.962Z" fill="#C5C9C2" mask="url(#b)"/><path d="M62.118 114.098c17.082 0 32.523-4.04 43.676-10.546 11.166-6.513 17.951-15.44 17.951-25.199 0-9.759-6.785-18.685-17.951-25.198C94.641 46.649 79.2 42.609 62.118 42.609s-32.523 4.04-43.677 10.546C7.275 59.668.491 68.595.491 78.353c0 9.76 6.784 18.686 17.95 25.199 11.154 6.506 26.595 10.546 43.677 10.546Z" fill="#F3F4F2" stroke="#C5C9C2" stroke-width=".981"/><path d="M62.118 108.921c16.012 0 30.485-3.679 40.937-9.602 10.467-5.93 16.808-14.049 16.808-22.907 0-8.859-6.341-16.977-16.808-22.908-10.452-5.923-24.925-9.602-40.937-9.602-16.012 0-30.485 3.68-40.937 9.602-10.466 5.931-16.808 14.05-16.808 22.908s6.342 16.976 16.808 22.907c10.453 5.923 24.925 9.602 40.937 9.602Z" fill="#fff" stroke="#C5C9C2" stroke-width=".981"/><mask id="c" fill="#fff"><path fill-rule="evenodd" clip-rule="evenodd" d="m77.542 39.654 9.982-11.896c12.863-15.33 44.596-9.881 70.876 12.17 26.281 22.052 37.157 52.357 24.294 67.687l-.042.05-9.91 11.809a1.2 1.2 0 0 1-.03.037c-12.864 15.33-44.597 9.881-70.877-12.171-26.28-22.051-37.157-52.356-24.293-67.686Z"/></mask><path fill-rule="evenodd" clip-rule="evenodd" d="m77.542 39.654 9.982-11.896c12.863-15.33 44.596-9.881 70.876 12.17 26.281 22.052 37.157 52.357 24.294 67.687l-.042.05-9.91 11.809a1.2 1.2 0 0 1-.03.037c-12.864 15.33-44.597 9.881-70.877-12.171-26.28-22.051-37.157-52.356-24.293-67.686Z" fill="#fff"/><path d="m87.524 27.758-.752-.63.63-.753.752.631-.63.752Zm-9.982 11.896-.631.752-.752-.631.63-.752.753.631Zm9.982-11.896.751.63-.63.752-.752-.63.63-.752Zm95.128 79.907-.752-.631.002-.002.75.633Zm-9.91 11.809-.753-.629.002-.001.751.63Zm-95.2-79.82.63-.752.752.631-.63.752-.752-.63ZM88.275 28.39l-9.982 11.896-1.503-1.262 9.982-11.896 1.503 1.262Zm-1.382.12 1.261-1.503-1.26 1.504Zm-.12-1.382 1.502 1.262-1.503-1.262Zm0 0c6.748-8.043 18.326-10.501 31.324-8.27 13.026 2.238 27.685 9.202 40.934 20.32l-1.261 1.503c-13.031-10.934-27.379-17.72-40.005-19.888-12.654-2.173-23.375.31-29.49 7.597l-1.503-1.262Zm72.258 12.05C172.28 50.294 181.685 63.52 186.15 75.96c4.455 12.413 4.045 24.241-2.705 32.285l-1.503-1.262c6.114-7.287 6.698-18.276 2.361-30.36-4.328-12.058-13.502-25.01-26.533-35.944l1.261-1.503Zm24.414 69.069-.044.052-1.499-1.266.04-.048 1.503 1.262Zm-11.454 10.598 9.909-11.81 1.503 1.262-9.909 11.809-1.503-1.261Zm1.504 1.259-.032.039-1.503-1.262a.49.49 0 0 0 .029-.035l1.506 1.258Zm-.032.039c-6.749 8.043-18.326 10.501-31.325 8.269-13.025-2.237-27.684-9.201-40.934-20.319l1.262-1.503c13.031 10.934 27.378 17.72 40.005 19.888 12.654 2.173 23.375-.31 29.489-7.597l1.503 1.262Zm-72.259-12.05C87.954 96.975 78.55 83.748 74.086 71.308 69.63 58.895 70.04 47.067 76.79 39.023l1.503 1.262c-6.114 7.287-6.698 18.276-2.36 30.36 4.328 12.059 13.502 25.01 26.533 35.944l-1.262 1.503Zm-23.032-69.19-1.261 1.504 1.261-1.503Z" fill="#C5C9C2" mask="url(#c)"/><path d="M112.132 95.068c13.086 10.981 27.511 17.811 40.238 19.996 12.74 2.188 23.675-.288 29.948-7.764s6.813-18.675 2.446-30.842c-4.362-12.153-13.593-25.173-26.679-36.154-13.086-10.98-27.511-17.81-40.237-19.996-12.74-2.187-23.675.29-29.948 7.765-6.274 7.476-6.814 18.675-2.447 30.842 4.362 12.153 13.594 25.173 26.679 36.153Z" fill="#F3F4F2" stroke="#C5C9C2" stroke-width=".981"/><path d="M115.46 91.103c12.266 10.293 25.718 16.777 37.531 18.958 11.831 2.185 21.907.042 27.601-6.744 5.694-6.786 6.055-17.08 1.849-28.352-4.2-11.256-12.921-23.377-25.187-33.67-12.267-10.292-25.718-16.776-37.532-18.958-11.83-2.184-21.906-.041-27.6 6.745-5.694 6.786-6.055 17.08-1.85 28.352 4.2 11.256 12.922 23.377 25.188 33.669Z" fill="#fff" stroke="#C5C9C2" stroke-width=".981"/></svg>

