<svg width="2016" height="1089" fill="none" xmlns="http://www.w3.org/2000/svg"><mask id="a" fill="#fff"><path d="M0 1088v-64h2016v64H0Z"/></mask><path d="M2016 1087H0v2h2016v-2Z" fill="#ECEDEB" mask="url(#a)"/><mask id="b" fill="#fff"><path d="M0 1024v-64h2016v64H0Z"/></mask><path d="M2016 1023H0v2h2016v-2Z" fill="#ECEDEB" mask="url(#b)"/><mask id="c" fill="#fff"><path d="M0 960v-64h2016v64H0Z"/></mask><path d="M2016 959H0v2h2016v-2Z" fill="#ECEDEB" mask="url(#c)"/><mask id="d" fill="#fff"><path d="M0 896v-64h2016v64H0Z"/></mask><path d="M2016 895H0v2h2016v-2Z" fill="#ECEDEB" mask="url(#d)"/><mask id="e" fill="#fff"><path d="M0 832v-64h2016v64H0Z"/></mask><path d="M2016 831H0v2h2016v-2Z" fill="#ECEDEB" mask="url(#e)"/><mask id="f" fill="#fff"><path d="M0 768v-64h2016v64H0Z"/></mask><path d="M2016 767H0v2h2016v-2Z" fill="#ECEDEB" mask="url(#f)"/><mask id="g" fill="#fff"><path d="M0 704v-64h2016v64H0Z"/></mask><path d="M2016 703H0v2h2016v-2Z" fill="#ECEDEB" mask="url(#g)"/><mask id="h" fill="#fff"><path d="M0 640v-64h2016v64H0Z"/></mask><path d="M2016 639H0v2h2016v-2Z" fill="#ECEDEB" mask="url(#h)"/><mask id="i" fill="#fff"><path d="M0 576v-64h2016v64H0Z"/></mask><path d="M2016 575H0v2h2016v-2Z" fill="#ECEDEB" mask="url(#i)"/><mask id="j" fill="#fff"><path d="M0 512v-64h2016v64H0Z"/></mask><path d="M2016 511H0v2h2016v-2Z" fill="#ECEDEB" mask="url(#j)"/><mask id="k" fill="#fff"><path d="M0 448v-64h2016v64H0Z"/></mask><path d="M2016 447H0v2h2016v-2Z" fill="#ECEDEB" mask="url(#k)"/><mask id="l" fill="#fff"><path d="M0 384v-64h2016v64H0Z"/></mask><path d="M2016 383H0v2h2016v-2Z" fill="#ECEDEB" mask="url(#l)"/><mask id="m" fill="#fff"><path d="M0 320v-64h2016v64H0Z"/></mask><path d="M2016 319H0v2h2016v-2Z" fill="#ECEDEB" mask="url(#m)"/><mask id="n" fill="#fff"><path d="M0 256v-64h2016v64H0Z"/></mask><path d="M2016 255H0v2h2016v-2Z" fill="#ECEDEB" mask="url(#n)"/><mask id="o" fill="#fff"><path d="M0 192v-64h2016v64H0Z"/></mask><path d="M2016 191H0v2h2016v-2Z" fill="#ECEDEB" mask="url(#o)"/><mask id="p" fill="#fff"><path d="M0 128V64h2016v64H0Z"/></mask><path d="M2016 127H0v2h2016v-2Z" fill="#ECEDEB" mask="url(#p)"/><mask id="q" fill="#fff"><path d="M0 64V0h2016v64H0Z"/></mask><path d="M0 1h2016v-2H0v2Zm2016 62H0v2h2016v-2Z" fill="#ECEDEB" mask="url(#q)"/><mask id="s" fill="#fff"><path d="M0 .47h112v1088H0V.47Z"/></mask><path d="M0 .47h112v1088H0V.47Z" fill="url(#r)"/><path d="M1 1088.47V.47h-2v1088h2Z" fill="#ECEDEB" mask="url(#s)"/><mask id="u" fill="#fff"><path d="M112 .47h112v1088H112V.47Z"/></mask><path d="M112 .47h112v1088H112V.47Z" fill="url(#t)"/><path d="M113 1088.47V.47h-2v1088h2Z" fill="#ECEDEB" mask="url(#u)"/><mask id="w" fill="#fff"><path d="M224 .47h112v1088H224V.47Z"/></mask><path d="M224 .47h112v1088H224V.47Z" fill="url(#v)"/><path d="M225 1088.47V.47h-2v1088h2Z" fill="#ECEDEB" mask="url(#w)"/><mask id="y" fill="#fff"><path d="M336 .47h112v1088H336V.47Z"/></mask><path d="M336 .47h112v1088H336V.47Z" fill="url(#x)"/><path d="M337 1088.47V.47h-2v1088h2Z" fill="#ECEDEB" mask="url(#y)"/><mask id="A" fill="#fff"><path d="M448 .47h112v1088H448V.47Z"/></mask><path d="M448 .47h112v1088H448V.47Z" fill="url(#z)"/><path d="M449 1088.47V.47h-2v1088h2Z" fill="#ECEDEB" mask="url(#A)"/><mask id="C" fill="#fff"><path d="M560 .47h112v1088H560V.47Z"/></mask><path d="M560 .47h112v1088H560V.47Z" fill="url(#B)"/><path d="M561 1088.47V.47h-2v1088h2Z" fill="#ECEDEB" mask="url(#C)"/><mask id="E" fill="#fff"><path d="M672 .47h112v1088H672V.47Z"/></mask><path d="M672 .47h112v1088H672V.47Z" fill="url(#D)"/><path d="M673 1088.47V.47h-2v1088h2Z" fill="#ECEDEB" mask="url(#E)"/><mask id="G" fill="#fff"><path d="M784 .47h112v1088H784V.47Z"/></mask><path d="M784 .47h112v1088H784V.47Z" fill="url(#F)"/><path d="M785 1088.47V.47h-2v1088h2Z" fill="#ECEDEB" mask="url(#G)"/><mask id="I" fill="#fff"><path d="M896 .47h112v1088H896V.47Z"/></mask><path d="M896 .47h112v1088H896V.47Z" fill="url(#H)"/><path d="M897 1088.47V.47h-2v1088h2Z" fill="#ECEDEB" mask="url(#I)"/><mask id="K" fill="#fff"><path d="M1008 .47h112v1088h-112V.47Z"/></mask><path d="M1008 .47h112v1088h-112V.47Z" fill="url(#J)"/><path d="M1009 1088.47V.47h-2v1088h2Z" fill="#ECEDEB" mask="url(#K)"/><mask id="M" fill="#fff"><path d="M1120 .47h112v1088h-112V.47Z"/></mask><path d="M1120 .47h112v1088h-112V.47Z" fill="url(#L)"/><path d="M1121 1088.47V.47h-2v1088h2Z" fill="#ECEDEB" mask="url(#M)"/><mask id="O" fill="#fff"><path d="M1232 .47h112v1088h-112V.47Z"/></mask><path d="M1232 .47h112v1088h-112V.47Z" fill="url(#N)"/><path d="M1233 1088.47V.47h-2v1088h2Z" fill="#ECEDEB" mask="url(#O)"/><mask id="Q" fill="#fff"><path d="M1344 .47h112v1088h-112V.47Z"/></mask><path d="M1344 .47h112v1088h-112V.47Z" fill="url(#P)"/><path d="M1345 1088.47V.47h-2v1088h2Z" fill="#ECEDEB" mask="url(#Q)"/><mask id="S" fill="#fff"><path d="M1456 .47h112v1088h-112V.47Z"/></mask><path d="M1456 .47h112v1088h-112V.47Z" fill="url(#R)"/><path d="M1457 1088.47V.47h-2v1088h2Z" fill="#ECEDEB" mask="url(#S)"/><mask id="U" fill="#fff"><path d="M1568 .47h112v1088h-112V.47Z"/></mask><path d="M1568 .47h112v1088h-112V.47Z" fill="url(#T)"/><path d="M1569 1088.47V.47h-2v1088h2Z" fill="#ECEDEB" mask="url(#U)"/><mask id="W" fill="#fff"><path d="M1680 .47h112v1088h-112V.47Z"/></mask><path d="M1680 .47h112v1088h-112V.47Z" fill="url(#V)"/><path d="M1681 1088.47V.47h-2v1088h2Z" fill="#ECEDEB" mask="url(#W)"/><mask id="Y" fill="#fff"><path d="M1792 .47h112v1088h-112V.47Z"/></mask><path d="M1792 .47h112v1088h-112V.47Z" fill="url(#X)"/><path d="M1793 1088.47V.47h-2v1088h2Z" fill="#ECEDEB" mask="url(#Y)"/><mask id="aa" fill="#fff"><path d="M1904 .47h112v1088h-112V.47Z"/></mask><path d="M1904 .47h112v1088h-112V.47Z" fill="url(#Z)"/><path d="M2015 .47v1088h2V.47h-2Zm-110 1088V.47h-2v1088h2Z" fill="#ECEDEB" mask="url(#aa)"/><defs><linearGradient id="r" x1="56" y1=".471" x2="56" y2="1088.47" gradientUnits="userSpaceOnUse"><stop offset=".667" stop-color="#F8F8F7" stop-opacity="0"/><stop offset="1" stop-color="#E3FFCA"/></linearGradient><linearGradient id="t" x1="168" y1=".471" x2="168" y2="1088.47" gradientUnits="userSpaceOnUse"><stop offset=".667" stop-color="#F8F8F7" stop-opacity="0"/><stop offset="1" stop-color="#E3FFCA"/></linearGradient><linearGradient id="v" x1="280" y1=".471" x2="280" y2="1088.47" gradientUnits="userSpaceOnUse"><stop offset=".667" stop-color="#F8F8F7" stop-opacity="0"/><stop offset="1" stop-color="#E3FFCA"/></linearGradient><linearGradient id="x" x1="392" y1=".471" x2="392" y2="1088.47" gradientUnits="userSpaceOnUse"><stop offset=".667" stop-color="#F8F8F7" stop-opacity="0"/><stop offset="1" stop-color="#E3FFCA"/></linearGradient><linearGradient id="z" x1="504" y1=".471" x2="504" y2="1088.47" gradientUnits="userSpaceOnUse"><stop offset=".667" stop-color="#F8F8F7" stop-opacity="0"/><stop offset="1" stop-color="#E3FFCA"/></linearGradient><linearGradient id="B" x1="616" y1=".471" x2="616" y2="1088.47" gradientUnits="userSpaceOnUse"><stop offset=".667" stop-color="#F8F8F7" stop-opacity="0"/><stop offset="1" stop-color="#E3FFCA"/></linearGradient><linearGradient id="D" x1="728" y1=".471" x2="728" y2="1088.47" gradientUnits="userSpaceOnUse"><stop offset=".667" stop-color="#F8F8F7" stop-opacity="0"/><stop offset="1" stop-color="#E3FFCA"/></linearGradient><linearGradient id="F" x1="840" y1=".471" x2="840" y2="1088.47" gradientUnits="userSpaceOnUse"><stop offset=".667" stop-color="#F8F8F7" stop-opacity="0"/><stop offset="1" stop-color="#E3FFCA"/></linearGradient><linearGradient id="H" x1="952" y1=".471" x2="952" y2="1088.47" gradientUnits="userSpaceOnUse"><stop offset=".667" stop-color="#F8F8F7" stop-opacity="0"/><stop offset="1" stop-color="#E3FFCA"/></linearGradient><linearGradient id="J" x1="1064" y1=".471" x2="1064" y2="1088.47" gradientUnits="userSpaceOnUse"><stop offset=".667" stop-color="#F8F8F7" stop-opacity="0"/><stop offset="1" stop-color="#E3FFCA"/></linearGradient><linearGradient id="L" x1="1176" y1=".471" x2="1176" y2="1088.47" gradientUnits="userSpaceOnUse"><stop offset=".667" stop-color="#F8F8F7" stop-opacity="0"/><stop offset="1" stop-color="#E3FFCA"/></linearGradient><linearGradient id="N" x1="1288" y1=".471" x2="1288" y2="1088.47" gradientUnits="userSpaceOnUse"><stop offset=".667" stop-color="#F8F8F7" stop-opacity="0"/><stop offset="1" stop-color="#E3FFCA"/></linearGradient><linearGradient id="P" x1="1400" y1=".471" x2="1400" y2="1088.47" gradientUnits="userSpaceOnUse"><stop offset=".667" stop-color="#F8F8F7" stop-opacity="0"/><stop offset="1" stop-color="#E3FFCA"/></linearGradient><linearGradient id="R" x1="1512" y1=".471" x2="1512" y2="1088.47" gradientUnits="userSpaceOnUse"><stop offset=".667" stop-color="#F8F8F7" stop-opacity="0"/><stop offset="1" stop-color="#E3FFCA"/></linearGradient><linearGradient id="T" x1="1624" y1=".471" x2="1624" y2="1088.47" gradientUnits="userSpaceOnUse"><stop offset=".667" stop-color="#F8F8F7" stop-opacity="0"/><stop offset="1" stop-color="#E3FFCA"/></linearGradient><linearGradient id="V" x1="1736" y1=".471" x2="1736" y2="1088.47" gradientUnits="userSpaceOnUse"><stop offset=".667" stop-color="#F8F8F7" stop-opacity="0"/><stop offset="1" stop-color="#E3FFCA"/></linearGradient><linearGradient id="X" x1="1848" y1=".471" x2="1848" y2="1088.47" gradientUnits="userSpaceOnUse"><stop offset=".667" stop-color="#F8F8F7" stop-opacity="0"/><stop offset="1" stop-color="#E3FFCA"/></linearGradient><linearGradient id="Z" x1="1960" y1=".471" x2="1960" y2="1088.47" gradientUnits="userSpaceOnUse"><stop offset=".667" stop-color="#F8F8F7" stop-opacity="0"/><stop offset="1" stop-color="#E3FFCA"/></linearGradient></defs></svg>