<svg width="2016" height="1089" fill="none" xmlns="http://www.w3.org/2000/svg"><mask id="a" fill="#fff"><path d="M0 1088v-64h2016v64H0Z"/></mask><path d="M2016 1087H0v2h2016v-2Z" fill="#ECEDEB" mask="url(#a)"/><mask id="b" fill="#fff"><path d="M0 1024v-64h2016v64H0Z"/></mask><path d="M2016 1023H0v2h2016v-2Z" fill="#ECEDEB" mask="url(#b)"/><mask id="c" fill="#fff"><path d="M0 960v-64h2016v64H0Z"/></mask><path d="M2016 959H0v2h2016v-2Z" fill="#ECEDEB" mask="url(#c)"/><mask id="d" fill="#fff"><path d="M0 896v-64h2016v64H0Z"/></mask><path d="M2016 895H0v2h2016v-2Z" fill="#ECEDEB" mask="url(#d)"/><mask id="e" fill="#fff"><path d="M0 832v-64h2016v64H0Z"/></mask><path d="M2016 831H0v2h2016v-2Z" fill="#ECEDEB" mask="url(#e)"/><mask id="f" fill="#fff"><path d="M0 768v-64h2016v64H0Z"/></mask><path d="M2016 767H0v2h2016v-2Z" fill="#ECEDEB" mask="url(#f)"/><mask id="g" fill="#fff"><path d="M0 704v-64h2016v64H0Z"/></mask><path d="M2016 703H0v2h2016v-2Z" fill="#ECEDEB" mask="url(#g)"/><mask id="h" fill="#fff"><path d="M0 640v-64h2016v64H0Z"/></mask><path d="M2016 639H0v2h2016v-2Z" fill="#ECEDEB" mask="url(#h)"/><mask id="i" fill="#fff"><path d="M0 576v-64h2016v64H0Z"/></mask><path d="M2016 575H0v2h2016v-2Z" fill="#ECEDEB" mask="url(#i)"/><mask id="j" fill="#fff"><path d="M0 512v-64h2016v64H0Z"/></mask><path d="M2016 511H0v2h2016v-2Z" fill="#ECEDEB" mask="url(#j)"/><mask id="k" fill="#fff"><path d="M0 448v-64h2016v64H0Z"/></mask><path d="M2016 447H0v2h2016v-2Z" fill="#ECEDEB" mask="url(#k)"/><mask id="l" fill="#fff"><path d="M0 384v-64h2016v64H0Z"/></mask><path d="M2016 383H0v2h2016v-2Z" fill="#ECEDEB" mask="url(#l)"/><mask id="m" fill="#fff"><path d="M0 320v-64h2016v64H0Z"/></mask><path d="M2016 319H0v2h2016v-2Z" fill="#ECEDEB" mask="url(#m)"/><mask id="n" fill="#fff"><path d="M0 256v-64h2016v64H0Z"/></mask><path d="M2016 255H0v2h2016v-2Z" fill="#ECEDEB" mask="url(#n)"/><mask id="o" fill="#fff"><path d="M0 192v-64h2016v64H0Z"/></mask><path d="M2016 191H0v2h2016v-2Z" fill="#ECEDEB" mask="url(#o)"/><mask id="p" fill="#fff"><path d="M0 128V64h2016v64H0Z"/></mask><path d="M2016 127H0v2h2016v-2Z" fill="#ECEDEB" mask="url(#p)"/><mask id="q" fill="#fff"><path d="M0 64V0h2016v64H0Z"/></mask><path d="M0 1h2016v-2H0v2Zm2016 62H0v2h2016v-2Z" fill="#ECEDEB" mask="url(#q)"/><path d="M0 .47h112v1088H0V.47Z" fill="url(#r)"/><mask id="t" fill="#fff"><path d="M112 .47h112v1088H112V.47Z"/></mask><path d="M112 .47h112v1088H112V.47Z" fill="url(#s)"/><path d="M113 1088.47V.47h-2v1088h2Z" fill="#ECEDEB" mask="url(#t)"/><mask id="v" fill="#fff"><path d="M224 .47h112v1088H224V.47Z"/></mask><path d="M224 .47h112v1088H224V.47Z" fill="url(#u)"/><path d="M225 1088.47V.47h-2v1088h2Z" fill="#ECEDEB" mask="url(#v)"/><mask id="x" fill="#fff"><path d="M336 .47h112v1088H336V.47Z"/></mask><path d="M336 .47h112v1088H336V.47Z" fill="url(#w)"/><path d="M337 1088.47V.47h-2v1088h2Z" fill="#ECEDEB" mask="url(#x)"/><mask id="z" fill="#fff"><path d="M448 .47h112v1088H448V.47Z"/></mask><path d="M448 .47h112v1088H448V.47Z" fill="url(#y)"/><path d="M449 1088.47V.47h-2v1088h2Z" fill="#ECEDEB" mask="url(#z)"/><mask id="B" fill="#fff"><path d="M560 .47h112v1088H560V.47Z"/></mask><path d="M560 .47h112v1088H560V.47Z" fill="url(#A)"/><path d="M561 1088.47V.47h-2v1088h2Z" fill="#ECEDEB" mask="url(#B)"/><mask id="D" fill="#fff"><path d="M672 .47h112v1088H672V.47Z"/></mask><path d="M672 .47h112v1088H672V.47Z" fill="url(#C)"/><path d="M673 1088.47V.47h-2v1088h2Z" fill="#ECEDEB" mask="url(#D)"/><mask id="F" fill="#fff"><path d="M784 .47h112v1088H784V.47Z"/></mask><path d="M784 .47h112v1088H784V.47Z" fill="url(#E)"/><path d="M785 1088.47V.47h-2v1088h2Z" fill="#ECEDEB" mask="url(#F)"/><mask id="H" fill="#fff"><path d="M896 .47h112v1088H896V.47Z"/></mask><path d="M896 .47h112v1088H896V.47Z" fill="url(#G)"/><path d="M897 1088.47V.47h-2v1088h2Z" fill="#ECEDEB" mask="url(#H)"/><mask id="J" fill="#fff"><path d="M1008 .47h112v1088h-112V.47Z"/></mask><path d="M1008 .47h112v1088h-112V.47Z" fill="url(#I)"/><path d="M1009 1088.47V.47h-2v1088h2Z" fill="#ECEDEB" mask="url(#J)"/><mask id="L" fill="#fff"><path d="M1120 .47h112v1088h-112V.47Z"/></mask><path d="M1120 .47h112v1088h-112V.47Z" fill="url(#K)"/><path d="M1121 1088.47V.47h-2v1088h2Z" fill="#ECEDEB" mask="url(#L)"/><mask id="N" fill="#fff"><path d="M1232 .47h112v1088h-112V.47Z"/></mask><path d="M1232 .47h112v1088h-112V.47Z" fill="url(#M)"/><path d="M1233 1088.47V.47h-2v1088h2Z" fill="#ECEDEB" mask="url(#N)"/><mask id="P" fill="#fff"><path d="M1344 .47h112v1088h-112V.47Z"/></mask><path d="M1344 .47h112v1088h-112V.47Z" fill="url(#O)"/><path d="M1345 1088.47V.47h-2v1088h2Z" fill="#ECEDEB" mask="url(#P)"/><mask id="R" fill="#fff"><path d="M1456 .47h112v1088h-112V.47Z"/></mask><path d="M1456 .47h112v1088h-112V.47Z" fill="url(#Q)"/><path d="M1457 1088.47V.47h-2v1088h2Z" fill="#ECEDEB" mask="url(#R)"/><mask id="T" fill="#fff"><path d="M1568 .47h112v1088h-112V.47Z"/></mask><path d="M1568 .47h112v1088h-112V.47Z" fill="url(#S)"/><path d="M1569 1088.47V.47h-2v1088h2Z" fill="#ECEDEB" mask="url(#T)"/><mask id="V" fill="#fff"><path d="M1680 .47h112v1088h-112V.47Z"/></mask><path d="M1680 .47h112v1088h-112V.47Z" fill="url(#U)"/><path d="M1681 1088.47V.47h-2v1088h2Z" fill="#ECEDEB" mask="url(#V)"/><mask id="X" fill="#fff"><path d="M1792 .47h112v1088h-112V.47Z"/></mask><path d="M1792 .47h112v1088h-112V.47Z" fill="url(#W)"/><path d="M1793 1088.47V.47h-2v1088h2Z" fill="#ECEDEB" mask="url(#X)"/><mask id="Z" fill="#fff"><path d="M1904 .47h112v1088h-112V.47Z"/></mask><path d="M1904 .47h112v1088h-112V.47Z" fill="url(#Y)"/><path d="M2015 .47v1088h2V.47h-2Zm-110 1088V.47h-2v1088h2Z" fill="#ECEDEB" mask="url(#Z)"/><defs><linearGradient id="r" x1="56" y1=".471" x2="56" y2="1088.47" gradientUnits="userSpaceOnUse"><stop offset=".667" stop-color="#F8F8F7" stop-opacity="0"/><stop offset="1" stop-color="#E3FFCA"/></linearGradient><linearGradient id="s" x1="168" y1=".471" x2="168" y2="1088.47" gradientUnits="userSpaceOnUse"><stop offset=".667" stop-color="#F8F8F7" stop-opacity="0"/><stop offset="1" stop-color="#E3FFCA"/></linearGradient><linearGradient id="u" x1="280" y1=".471" x2="280" y2="1088.47" gradientUnits="userSpaceOnUse"><stop offset=".667" stop-color="#F8F8F7" stop-opacity="0"/><stop offset="1" stop-color="#E3FFCA"/></linearGradient><linearGradient id="w" x1="392" y1=".471" x2="392" y2="1088.47" gradientUnits="userSpaceOnUse"><stop offset=".667" stop-color="#F8F8F7" stop-opacity="0"/><stop offset="1" stop-color="#E3FFCA"/></linearGradient><linearGradient id="y" x1="504" y1=".471" x2="504" y2="1088.47" gradientUnits="userSpaceOnUse"><stop offset=".667" stop-color="#F8F8F7" stop-opacity="0"/><stop offset="1" stop-color="#E3FFCA"/></linearGradient><linearGradient id="A" x1="616" y1=".471" x2="616" y2="1088.47" gradientUnits="userSpaceOnUse"><stop offset=".667" stop-color="#F8F8F7" stop-opacity="0"/><stop offset="1" stop-color="#E3FFCA"/></linearGradient><linearGradient id="C" x1="728" y1=".471" x2="728" y2="1088.47" gradientUnits="userSpaceOnUse"><stop offset=".667" stop-color="#F8F8F7" stop-opacity="0"/><stop offset="1" stop-color="#E3FFCA"/></linearGradient><linearGradient id="E" x1="840" y1=".471" x2="840" y2="1088.47" gradientUnits="userSpaceOnUse"><stop offset=".667" stop-color="#F8F8F7" stop-opacity="0"/><stop offset="1" stop-color="#E3FFCA"/></linearGradient><linearGradient id="G" x1="952" y1=".471" x2="952" y2="1088.47" gradientUnits="userSpaceOnUse"><stop offset=".667" stop-color="#F8F8F7" stop-opacity="0"/><stop offset="1" stop-color="#E3FFCA"/></linearGradient><linearGradient id="I" x1="1064" y1=".471" x2="1064" y2="1088.47" gradientUnits="userSpaceOnUse"><stop offset=".667" stop-color="#F8F8F7" stop-opacity="0"/><stop offset="1" stop-color="#E3FFCA"/></linearGradient><linearGradient id="K" x1="1176" y1=".471" x2="1176" y2="1088.47" gradientUnits="userSpaceOnUse"><stop offset=".667" stop-color="#F8F8F7" stop-opacity="0"/><stop offset="1" stop-color="#E3FFCA"/></linearGradient><linearGradient id="M" x1="1288" y1=".471" x2="1288" y2="1088.47" gradientUnits="userSpaceOnUse"><stop offset=".667" stop-color="#F8F8F7" stop-opacity="0"/><stop offset="1" stop-color="#E3FFCA"/></linearGradient><linearGradient id="O" x1="1400" y1=".471" x2="1400" y2="1088.47" gradientUnits="userSpaceOnUse"><stop offset=".667" stop-color="#F8F8F7" stop-opacity="0"/><stop offset="1" stop-color="#E3FFCA"/></linearGradient><linearGradient id="Q" x1="1512" y1=".471" x2="1512" y2="1088.47" gradientUnits="userSpaceOnUse"><stop offset=".667" stop-color="#F8F8F7" stop-opacity="0"/><stop offset="1" stop-color="#E3FFCA"/></linearGradient><linearGradient id="S" x1="1624" y1=".471" x2="1624" y2="1088.47" gradientUnits="userSpaceOnUse"><stop offset=".667" stop-color="#F8F8F7" stop-opacity="0"/><stop offset="1" stop-color="#E3FFCA"/></linearGradient><linearGradient id="U" x1="1736" y1=".471" x2="1736" y2="1088.47" gradientUnits="userSpaceOnUse"><stop offset=".667" stop-color="#F8F8F7" stop-opacity="0"/><stop offset="1" stop-color="#E3FFCA"/></linearGradient><linearGradient id="W" x1="1848" y1=".471" x2="1848" y2="1088.47" gradientUnits="userSpaceOnUse"><stop offset=".667" stop-color="#F8F8F7" stop-opacity="0"/><stop offset="1" stop-color="#E3FFCA"/></linearGradient><linearGradient id="Y" x1="1960" y1=".471" x2="1960" y2="1088.47" gradientUnits="userSpaceOnUse"><stop offset=".667" stop-color="#F8F8F7" stop-opacity="0"/><stop offset="1" stop-color="#E3FFCA"/></linearGradient></defs></svg>
