<svg width="149" height="104" viewBox="0 0 149 104" fill="none" xmlns="http://www.w3.org/2000/svg">
  <path fill-rule="evenodd" clip-rule="evenodd" d="M122.144 4.8989C125.354 8.06952 126.683 12.829 129.339 22.3479L148.16 89.7881C148.433 90.7683 148.572 91.7813 148.572 92.7989C148.572 98.9851 143.557 104 137.371 104H80.6534L102.938 104V101.315C102.938 96.8763 102.938 94.6569 102.491 92.5116C102.342 91.7989 102.156 91.0943 101.935 90.4006C101.27 88.3127 100.177 86.3804 97.9933 82.5164L79.7339 50.2111L79.7338 50.2111C77.8366 46.8545 76.888 45.1762 75.4208 44.0979C74.9386 43.7435 74.4203 43.441 73.8745 43.1956C72.4428 42.5519 70.8126 42.4632 67.9197 42.4509L67.9186 42.449L26.9492 42.4489C27.9669 44.8477 28.4757 46.047 29.3212 46.9087C29.948 47.5474 30.7024 48.0468 31.5352 48.3744C32.6586 48.8163 33.9615 48.8163 36.5672 48.8163H71.5173L90.5652 82.5164C92.7493 86.3805 93.8413 88.3126 94.5071 90.4006C94.7283 91.0943 94.9136 91.7989 95.0624 92.5116C95.5102 94.6569 95.5102 96.8763 95.5102 101.315V104H63.257C47.8341 104 40.1226 104 33.48 101.013C31.2967 100.032 29.2234 98.822 27.2946 97.4044C21.426 93.0911 17.6315 86.3778 10.0425 72.9512L2.48599 59.5819C0.856382 56.6988 0 53.4432 0 50.1314C0 45.8885 3.43955 42.4489 7.68246 42.4489L26.9483 42.449L25.0228 37.9103C23.9166 35.3029 23.3466 32.4995 23.3466 29.6671C23.3466 25.0044 27.1265 21.2245 31.7892 21.2245H53.7029C54.3171 23.1108 54.6241 24.0539 55.131 24.8006C55.9652 26.0296 57.2029 26.9282 58.6298 27.341C59.4967 27.5918 60.4886 27.5918 62.4723 27.5918H93.9662L117.945 84.1135C119.288 87.2799 119.96 88.8634 120.367 90.521C120.502 91.0724 120.616 91.629 120.706 92.1895C120.979 93.8744 120.979 95.5943 120.979 99.0341V104L128.407 104V99.0341C128.407 95.5943 128.407 93.8744 128.134 92.1895C128.044 91.629 127.931 91.0724 127.795 90.521C127.388 88.8634 126.717 87.2801 125.373 84.1137L125.373 84.1136L125.373 84.1135L102.644 30.5378L102.644 30.5378C102.164 29.4054 101.751 28.4333 101.372 27.5918H101.372C100.411 25.4601 99.6613 24.1667 98.5536 23.2304C98.0475 22.8026 97.493 22.4355 96.9015 22.1367C95.5142 21.4358 93.91 21.2734 91.2697 21.2358C91.2254 21.2352 91.1807 21.2346 91.1358 21.234C90.483 21.2258 89.7676 21.2247 88.9778 21.2245C88.8463 21.2245 88.7127 21.2245 88.577 21.2245H88.8918C88.788 21.2245 88.683 21.2245 88.5767 21.2245H53.7033L52.059 16.1742L52.0589 16.174L52.0589 16.1737C51.9821 15.9379 51.9436 15.8199 51.9068 15.7021C51.2901 13.7304 50.9646 11.6792 50.9406 9.61353C50.9392 9.49004 50.9392 9.36587 50.9392 9.11752C50.9392 8.53465 50.9392 8.24322 50.9535 7.99706C51.2035 3.69613 54.6353 0.264351 58.9362 0.0143108C59.1824 0 59.4738 0 60.0567 0H99.9006C109.783 0 114.725 0 118.641 2.23982C119.919 2.97059 121.097 3.86445 122.144 4.8989Z" fill="#D9DBD7"/>
</svg>
