<svg width="95" height="27" fill="none" xmlns="http://www.w3.org/2000/svg"><path d="M6.891 20.465c3.517 0 6.07-1.815 6.07-4.652 0-2.382-1.787-3.857-4.935-4.34l-2.213-.396c-1.05-.199-1.702-.71-1.702-1.56 0-1.163 1.078-1.872 2.411-1.872 1.645 0 2.837 1.078 2.922 2.61l3.177-.143c-.17-2.978-2.638-4.935-6.042-4.935S.736 6.992.736 9.885c0 2.156 1.39 3.773 4.34 4.227l2.24.397c1.475.255 2.213.737 2.213 1.673 0 1.163-1.191 1.815-2.638 1.815-1.758 0-3.063-1.02-3.205-2.609l-3.262.113c.227 3.035 2.78 4.964 6.467 4.964Zm16.789-.624-.029-2.95c-1.503.454-3.006.284-3.006-1.985V8.609h3.432V5.688h-3.432V2.085h-3.517v3.603h-2.581v2.921h2.58v6.58c0 4.652 3.433 5.531 6.553 4.652Zm6.657.425c2.127 0 3.942-1.077 4.708-2.722 0 1.134.085 1.787.227 2.41h3.432c-.199-1.049-.34-2.694-.34-4.226v-4.736c0-3.404-2.468-5.73-5.985-5.73-3.517 0-6.07 2.213-6.24 5.36l3.403.086c.142-1.673 1.22-2.61 2.723-2.61 1.645 0 2.61 1.078 2.61 2.808v.426l-2.638.284c-4.226.482-6.524 1.985-6.524 4.651 0 2.468 1.929 4 4.623 4Zm-1.107-4.31c0-1.39 1.192-1.958 3.262-2.213l2.44-.284v.71c0 2.155-1.532 3.658-3.49 3.658-1.247 0-2.212-.624-2.212-1.872Zm18.93 4.424c3.857 0 6.863-2.468 7.034-6.098l-3.49-.255c-.198 1.985-1.758 3.233-3.545 3.233-2.099 0-3.914-1.645-3.914-4.453 0-2.581 1.617-4.453 3.914-4.453 1.872 0 3.347 1.276 3.546 3.063l3.46-.284c-.198-3.488-3.205-5.87-7.006-5.87-4.283 0-7.431 3.204-7.431 7.544 0 4.396 3.12 7.573 7.431 7.573Zm9.448-.425h3.46V15.53l2.298-2.213 4.14 6.637h3.915l-5.673-8.934 5.588-5.332h-4.17l-6.098 5.928V.1h-3.46v19.854Zm21.914-.17-.029-2.979c-1.673.454-2.638-.085-2.638-2.014V.1h-3.517v15.401c0 4.368 3.064 5.077 6.184 4.283Zm1.048 2.807v2.95c3.603.88 6.58-.737 8.31-5.049l6.07-14.805h-3.573l-3.858 9.984-4.17-9.984h-3.743l5.985 13.926-.426.993c-1.05 2.24-2.978 2.41-4.595 1.985Z" fill="#060D00"/></svg>