<svg width="176" height="176" viewBox="0 0 176 176" fill="none" xmlns="http://www.w3.org/2000/svg">
<path d="M139.877 59.0586C137.374 50.0888 136.122 45.604 133.097 42.6163C132.11 41.6415 131.001 40.7992 129.796 40.1106C126.105 38 121.449 38 112.137 38H74.5915C74.0423 38 73.7676 38 73.5357 38.0135C69.4829 38.2491 66.2491 41.4829 66.0135 45.5357C66 45.7676 66 46.0423 66 46.5915C66 46.8255 66 46.9425 66.0014 47.0589C66.024 49.0054 66.3307 50.9383 66.9118 52.7962C66.9465 52.9072 66.9828 53.0185 67.0552 53.241L94 136H147.445C153.274 136 158 131.274 158 125.445C158 124.486 157.869 123.532 157.612 122.608L139.877 59.0586Z" fill="#A2E771"/>
<path d="M114.723 66.7761C113.124 63.0059 112.324 61.1208 110.868 59.8902C110.391 59.4871 109.869 59.1412 109.311 58.8596C107.61 58 105.562 58 101.467 58H47V70L75 136H139V131.321C139 128.079 139 126.459 138.743 124.871C138.657 124.343 138.551 123.818 138.423 123.299C138.04 121.737 137.407 120.245 136.141 117.261L114.723 66.7761Z" fill="black"/>
<path d="M104 58H47.9556C43.5618 58 40 61.5618 40 65.9556C40 68.6245 40.5372 71.2662 41.5795 73.7232L68 136H132V131.321C132 128.079 132 126.459 131.743 124.871C131.657 124.343 131.551 123.818 131.423 123.299C131.04 121.737 130.407 120.245 129.141 117.261L104 58Z" fill="#A2E771"/>
<path d="M93.1342 85.3144C91.3464 82.1514 90.4525 80.5699 89.07 79.5538C88.6156 79.2198 88.1272 78.9348 87.6129 78.7036C86.048 78 84.2314 78 80.5981 78H49V90L75 136H115V133.47C115 129.287 115 127.196 114.578 125.174C114.438 124.503 114.263 123.839 114.055 123.185C113.427 121.218 112.398 119.397 110.34 115.756L93.1342 85.3144Z" fill="black"/>
<path d="M82 78H25.2392C21.2411 78 18 81.2411 18 85.2392C18 88.36 18.807 91.4277 20.3426 94.1445L27.4631 106.742C34.6143 119.395 38.1899 125.721 43.7199 129.785C45.5375 131.121 47.4912 132.261 49.5484 133.186C55.8078 136 63.0744 136 77.6076 136H108V133.47C108 129.287 108 127.196 107.578 125.174C107.438 124.503 107.263 123.839 107.055 123.185C106.427 121.218 105.398 119.397 103.34 115.756L82 78Z" fill="#A2E771"/>
</svg>
