<svg width="20" height="20" viewBox="0 0 20 20" fill="none" xmlns="http://www.w3.org/2000/svg">
<g clip-path="url(#clip0_5411_15658)">
<path d="M10 20C15.5228 20 20 15.5228 20 10C20 4.47715 15.5228 0 10 0C4.47715 0 0 4.47715 0 10C0 15.5228 4.47715 20 10 20Z" fill="#283141"/>
<path d="M10.0801 12.1745L12.1143 15.3864L13.9936 14.2908L11.3219 10.0547L10.0801 12.1745Z" fill="#2C97E7"/>
<path d="M15.7049 13.0024L15.7035 12.1246L12.7842 7.55057L11.7012 9.39932L14.5193 13.9843L15.5383 13.3903C15.6382 13.3086 15.6987 13.1888 15.705 13.0595L15.7049 13.0024Z" fill="#2C97E7"/>
<path d="M3.4707 13.3051C3.4707 13.6303 3.6439 13.9309 3.92526 14.094L4.90962 14.6646L9.698 6.93958L8.88532 6.91801C8.19288 6.90814 7.447 7.08926 7.10463 7.65139L4.3855 11.8911L3.4707 13.3051Z" fill="white"/>
<path d="M12.4622 6.93939L10.3203 6.94721L5.47461 14.9913L7.16832 15.9723L7.62894 15.1865L12.4622 6.93939Z" fill="white"/>
<path d="M16.6065 6.9283C16.5886 6.47773 16.3461 6.06521 15.9662 5.82506L10.6415 2.7447C10.2657 2.55436 9.7962 2.55411 9.41977 2.74458C9.37527 2.76716 4.24163 5.7622 4.24163 5.7622C4.17058 5.79649 4.10214 5.83731 4.03777 5.88367C3.69865 6.12816 3.49193 6.50811 3.4707 6.92555V13.3049L4.3855 11.891L4.3775 6.96867C4.37857 6.95067 4.38082 6.93292 4.384 6.91542C4.40469 6.79961 4.46897 6.6963 4.56575 6.62648C4.5899 6.60911 9.81127 3.56878 9.82783 3.56043C9.95052 3.49843 10.1065 3.4977 10.2294 3.55851L15.4852 6.59967C15.6096 6.67936 15.6875 6.81442 15.6945 6.96211V13.0596C15.6881 13.1889 15.6373 13.3087 15.5373 13.3904L14.5184 13.9844L13.9926 14.2909L12.1134 15.3864L10.2076 16.4974C10.105 16.5347 9.98502 16.5326 9.8832 16.491L7.62839 15.1864L7.16783 15.9723L9.19414 17.1459C9.26114 17.1842 9.32083 17.2182 9.36983 17.2459C9.44564 17.2886 9.49733 17.3173 9.51564 17.3262C9.65964 17.3965 9.86689 17.4375 10.0536 17.4375C10.2248 17.4375 10.3918 17.4059 10.5497 17.3436L16.0851 14.1189C16.4028 13.8712 16.5897 13.4978 16.6065 13.0932V6.9283Z" fill="#8DB4D4"/>
</g>
<defs>
<clipPath id="clip0_5411_15658">
<rect width="20" height="20" fill="white"/>
</clipPath>
</defs>
</svg>
