<svg width="729" height="507" viewBox="0 0 729 507" fill="none" xmlns="http://www.w3.org/2000/svg">
<path fill-rule="evenodd" clip-rule="evenodd" d="M709.796 294.081L709.796 294.081L701.565 301.492L701.564 301.491C690.956 311.042 669.085 304.043 652.712 285.859C636.339 267.675 631.665 245.192 642.273 235.641C642.328 235.592 642.383 235.542 642.439 235.493L650.47 228.262C650.481 228.253 650.491 228.243 650.502 228.234C661.109 218.683 682.981 225.681 699.354 243.865C715.725 262.047 720.4 284.528 709.796 294.081Z" fill="#375C19"/>
<path d="M690.8 251.564C698.944 260.609 704.164 270.708 706.035 279.708C707.908 288.72 706.413 296.538 701.272 301.167C696.131 305.796 688.199 306.466 679.433 303.66C670.678 300.859 661.18 294.613 653.036 285.568C644.892 276.523 639.672 266.424 637.801 257.424C635.928 248.412 637.424 240.594 642.564 235.965C647.705 231.337 655.637 230.667 664.403 233.472C673.158 236.273 682.656 242.52 690.8 251.564Z" fill="url(#paint0_linear_4051_12917)" stroke="#E2E4E1" stroke-width="0.871705"/>
<path d="M688.384 253.745C703.733 270.792 708.345 291.663 698.685 300.361C689.025 309.059 668.751 302.29 653.401 285.243C638.052 268.196 633.44 247.325 643.1 238.627C652.76 229.929 673.034 236.697 688.384 253.745Z" fill="url(#paint1_linear_4051_12917)"/>
<path fill-rule="evenodd" clip-rule="evenodd" d="M674.61 335.292L666.807 344.591L666.805 344.589C666.805 344.59 666.805 344.59 666.805 344.59C656.611 356.739 631.464 352.42 610.637 334.945C589.811 317.469 581.192 293.454 591.386 281.305C591.449 281.23 591.513 281.155 591.578 281.081L599.298 271.879L599.299 271.88C609.494 259.734 634.64 264.053 655.465 281.527C676.291 299.003 684.91 323.018 674.716 335.167C674.681 335.208 674.646 335.25 674.61 335.292Z" fill="#375C19"/>
<path d="M647.274 291.284C657.639 299.981 664.949 310.293 668.403 319.915C671.86 329.549 671.428 338.403 666.472 344.31C661.516 350.216 652.871 352.179 642.783 350.447C632.707 348.717 621.283 343.308 610.919 334.611C600.554 325.914 593.244 315.603 589.79 305.98C586.332 296.347 586.765 287.492 591.721 281.586C596.677 275.679 605.322 273.716 615.41 275.448C625.485 277.178 636.909 282.587 647.274 291.284Z" fill="url(#paint2_linear_4051_12917)" stroke="#E2E4E1" stroke-width="0.871705"/>
<path d="M644.923 294.095C664.448 310.478 672.75 332.729 663.466 343.793C654.182 354.857 630.828 350.545 611.303 334.162C591.778 317.778 583.476 295.528 592.76 284.464C602.044 273.4 625.398 277.712 644.923 294.095Z" fill="url(#paint3_linear_4051_12917)"/>
<path fill-rule="evenodd" clip-rule="evenodd" d="M626.196 391.203L616.78 400.618L616.78 400.617C604.443 412.951 577.302 405.808 556.156 384.662C535.01 363.516 527.867 336.373 540.203 324.038C540.255 323.985 540.309 323.932 540.362 323.88L549.774 314.468L549.775 314.469C549.776 314.468 549.777 314.467 549.777 314.467C562.113 302.131 589.255 309.274 610.402 330.421C631.548 351.567 638.691 378.71 626.356 391.045C626.303 391.098 626.249 391.151 626.196 391.203Z" fill="#375C19"/>
<path d="M600.517 340.299C611.045 350.827 618.072 362.834 620.936 373.718C623.804 384.614 622.483 394.294 616.471 400.307C610.458 406.319 600.778 407.64 589.882 404.772C578.998 401.908 566.991 394.882 556.463 384.353C545.934 373.825 538.907 361.818 536.043 350.934C533.176 340.038 534.496 330.358 540.509 324.345C546.521 318.332 556.202 317.012 567.098 319.879C577.982 322.744 589.988 329.77 600.517 340.299Z" fill="url(#paint4_linear_4051_12917)" stroke="#E2E4E1" stroke-width="0.871705"/>
<path d="M597.638 343.183C617.463 363.007 624.427 388.186 613.193 399.42C601.959 410.654 576.781 403.69 556.956 383.865C537.131 364.04 530.167 338.862 541.401 327.628C552.635 316.394 577.813 323.358 597.638 343.183Z" fill="url(#paint5_linear_4051_12917)"/>
<path fill-rule="evenodd" clip-rule="evenodd" d="M564.211 463.788L550.622 471.633L550.622 471.632C532.767 481.94 503.968 465.484 486.296 434.876C468.624 404.268 468.773 371.098 486.628 360.79C486.695 360.751 486.763 360.712 486.832 360.674L500.483 352.792L500.484 352.794C518.339 342.487 547.138 358.943 564.809 389.55C582.481 420.158 582.332 453.328 564.478 463.636C564.389 463.687 564.3 463.738 564.211 463.788Z" fill="#375C19"/>
<path d="M550.576 397.764C559.38 413.013 563.734 428.882 563.674 442.199C563.615 455.529 559.142 466.21 550.404 471.254C541.667 476.299 530.18 474.832 518.607 468.219C507.044 461.612 495.478 449.907 486.674 434.658C477.869 419.409 473.516 403.54 473.575 390.223C473.635 376.893 478.108 366.212 486.846 361.167C495.583 356.123 507.07 357.59 518.643 364.203C530.206 370.81 541.772 382.515 550.576 397.764Z" fill="url(#paint6_linear_4051_12917)" stroke="#E2E4E1" stroke-width="0.871705"/>
<path d="M546.338 400.216C562.905 428.911 563.154 459.783 546.893 469.171C530.633 478.559 504.021 462.908 487.453 434.213C470.886 405.518 470.638 374.645 486.898 365.257C503.159 355.869 529.771 371.521 546.338 400.216Z" fill="url(#paint7_linear_4051_12917)"/>
<path fill-rule="evenodd" clip-rule="evenodd" d="M413.758 498.46L396.053 495.338L396.053 495.338C372.626 491.207 359.376 455.302 366.457 415.141C373.539 374.981 398.271 345.773 421.698 349.903C421.738 349.91 421.779 349.918 421.819 349.925L439.876 353.109L439.876 353.113C439.876 353.114 439.876 353.114 439.876 353.114C463.303 357.244 476.554 393.15 469.472 433.31C462.391 473.471 437.659 502.679 414.232 498.548C414.074 498.52 413.916 498.491 413.758 498.46Z" fill="#375C19"/>
<path d="M450.865 430.025C447.335 450.043 439.409 467.31 429.471 479.047C419.524 490.793 407.627 496.936 396.129 494.909C384.632 492.882 375.553 483.04 370.224 468.6C364.899 454.172 363.357 435.235 366.886 415.217C370.416 395.199 378.342 377.932 388.281 366.195C398.227 354.448 410.125 348.305 421.622 350.333C433.12 352.36 442.199 362.201 447.528 376.641C452.853 391.07 454.395 410.007 450.865 430.025Z" fill="url(#paint8_linear_4051_12917)" stroke="#E2E4E1" stroke-width="0.871705"/>
<path d="M445.235 429.038C438.596 466.689 415.918 494.161 394.583 490.399C373.248 486.637 361.334 453.065 367.973 415.415C374.611 377.764 397.289 350.292 418.624 354.054C439.96 357.816 451.874 391.387 445.235 429.038Z" fill="url(#paint9_linear_4051_12917)"/>
<path fill-rule="evenodd" clip-rule="evenodd" d="M242.678 460.554L224.24 445.082L224.24 445.081C199.943 424.694 208.579 374.401 243.53 332.749C278.48 291.097 326.509 273.858 350.806 294.246C350.874 294.303 350.941 294.36 351.009 294.417L369.66 310.068L369.657 310.071C369.657 310.071 369.658 310.072 369.658 310.072C393.955 330.459 385.319 380.752 350.369 422.404C315.419 464.057 267.389 481.295 243.092 460.907C242.953 460.79 242.815 460.673 242.678 460.554Z" fill="#375C19"/>
<path d="M331.183 406.299C313.749 427.076 293.065 441.747 273.736 448.685C254.396 455.626 236.501 454.8 224.52 444.747C212.54 434.695 208.619 417.215 212.097 396.963C215.572 376.723 226.429 353.806 243.863 333.029C261.298 312.251 281.981 297.58 301.31 290.643C320.65 283.701 338.546 284.527 350.526 294.58C362.506 304.633 366.427 322.113 362.95 342.364C359.474 362.604 348.617 385.521 331.183 406.299Z" fill="url(#paint10_linear_4051_12917)" stroke="#E2E4E1" stroke-width="0.871705"/>
<path d="M325.228 401.313C292.462 440.362 247.963 456.966 225.835 438.398C203.707 419.831 212.331 373.124 245.097 334.075C277.863 295.026 322.363 278.423 344.49 296.99C366.618 315.557 357.994 362.264 325.228 401.313Z" fill="url(#paint11_linear_4051_12917)"/>
<path fill-rule="evenodd" clip-rule="evenodd" d="M76.2964 312.577L66.7822 286.437L66.7829 286.437C54.3077 252.161 91.8272 207.039 150.585 185.653C209.343 164.267 267.089 174.715 279.564 208.991C279.592 209.067 279.619 209.143 279.646 209.219L289.244 235.589L289.241 235.59C289.241 235.59 289.242 235.591 289.242 235.591C301.717 269.867 264.198 314.989 205.44 336.376C146.682 357.762 88.936 347.313 76.4607 313.037C76.405 312.884 76.3502 312.731 76.2964 312.577Z" fill="#375C19"/>
<path d="M195.613 309.362C166.293 320.034 137.246 322.754 113.994 318.547C90.7297 314.338 73.3551 303.216 67.1925 286.285C61.0299 269.353 67.1911 249.666 82.3067 231.487C97.4144 213.318 121.415 196.731 150.734 186.059C180.054 175.388 209.101 172.667 232.353 176.875C255.617 181.084 272.992 192.205 279.154 209.137C285.317 226.069 279.156 245.756 264.04 263.935C248.933 282.104 224.932 298.691 195.613 309.362Z" fill="url(#paint12_linear_4051_12917)" stroke="#E2E4E1" stroke-width="0.871705"/>
<path d="M192.529 300.911C137.443 320.961 83.5776 311.909 72.2163 280.694C60.8549 249.479 96.3003 207.921 151.386 187.871C206.471 167.822 260.337 176.873 271.699 208.088C283.06 239.303 247.614 280.862 192.529 300.911Z" fill="url(#paint13_linear_4051_12917)"/>
<path fill-rule="evenodd" clip-rule="evenodd" d="M0.650925 98.8671V69.889H0.651077C0.651077 69.8884 0.651077 69.8877 0.651077 69.8871C0.651077 31.8262 53.5445 0.97168 118.792 0.97168C184.039 0.97168 236.933 31.8262 236.933 69.8871C236.933 69.9235 236.933 69.9599 236.932 69.9963V99.4242H236.929C236.929 99.4243 236.929 99.4245 236.929 99.4246C236.929 137.486 184.035 168.34 118.788 168.34C53.5406 168.34 0.647141 137.486 0.647141 99.4246C0.647141 99.2386 0.648407 99.0528 0.650925 98.8671Z" fill="#375C19"/>
<path d="M118.792 138.367C86.2315 138.367 56.7749 130.667 35.4733 118.241C14.161 105.809 1.08693 88.6982 1.08693 69.8871C1.08693 51.076 14.161 33.9652 35.4733 21.533C56.7749 9.1071 86.2315 1.40753 118.792 1.40753C151.352 1.40753 180.809 9.1071 202.11 21.533C223.423 33.9652 236.497 51.076 236.497 69.8871C236.497 88.6982 223.423 105.809 202.11 118.241C180.809 130.667 151.352 138.367 118.792 138.367Z" fill="url(#paint14_linear_4051_12917)" stroke="#E2E4E1" stroke-width="0.871705"/>
<path d="M118.784 128.959C57.6147 128.959 8.02707 100.859 8.02707 66.1968C8.02707 31.5342 57.6147 3.43457 118.784 3.43457C179.953 3.43457 229.541 31.5342 229.541 66.1968C229.541 100.859 179.953 128.959 118.784 128.959Z" fill="url(#paint15_linear_4051_12917)"/>
<defs>
<linearGradient id="paint0_linear_4051_12917" x1="642.273" y1="235.641" x2="701.564" y2="301.491" gradientUnits="userSpaceOnUse">
<stop stop-color="#375C19"/>
<stop offset="0.609375" stop-color="#87CE4C"/>
<stop offset="1" stop-color="#E1FFC9"/>
</linearGradient>
<linearGradient id="paint1_linear_4051_12917" x1="643.1" y1="238.627" x2="698.685" y2="300.361" gradientUnits="userSpaceOnUse">
<stop stop-color="#A3EA6B" stop-opacity="0.879687"/>
<stop offset="0.385417" stop-color="#7D9B64"/>
<stop offset="1" stop-color="#2C3B20" stop-opacity="0.7"/>
</linearGradient>
<linearGradient id="paint2_linear_4051_12917" x1="591.387" y1="281.305" x2="666.806" y2="344.59" gradientUnits="userSpaceOnUse">
<stop stop-color="#375C19"/>
<stop offset="0.609375" stop-color="#87CE4C"/>
<stop offset="1" stop-color="#E1FFC9"/>
</linearGradient>
<linearGradient id="paint3_linear_4051_12917" x1="592.76" y1="284.464" x2="663.466" y2="343.793" gradientUnits="userSpaceOnUse">
<stop stop-color="#A3EA6B" stop-opacity="0.879687"/>
<stop offset="0.385417" stop-color="#7D9B64"/>
<stop offset="1" stop-color="#2C3B20" stop-opacity="0.7"/>
</linearGradient>
<linearGradient id="paint4_linear_4051_12917" x1="540.201" y1="324.037" x2="616.779" y2="400.615" gradientUnits="userSpaceOnUse">
<stop stop-color="#375C19"/>
<stop offset="0.609375" stop-color="#87CE4C"/>
<stop offset="1" stop-color="#E1FFC9"/>
</linearGradient>
<linearGradient id="paint5_linear_4051_12917" x1="541.401" y1="327.628" x2="613.193" y2="399.42" gradientUnits="userSpaceOnUse">
<stop stop-color="#A3EA6B" stop-opacity="0.879687"/>
<stop offset="0.385417" stop-color="#7D9B64"/>
<stop offset="1" stop-color="#2C3B20" stop-opacity="0.7"/>
</linearGradient>
<linearGradient id="paint6_linear_4051_12917" x1="486.628" y1="360.79" x2="550.622" y2="471.632" gradientUnits="userSpaceOnUse">
<stop stop-color="#375C19"/>
<stop offset="0.609375" stop-color="#87CE4C"/>
<stop offset="1" stop-color="#E1FFC9"/>
</linearGradient>
<linearGradient id="paint7_linear_4051_12917" x1="486.898" y1="365.257" x2="546.893" y2="469.171" gradientUnits="userSpaceOnUse">
<stop stop-color="#A3EA6B" stop-opacity="0.879687"/>
<stop offset="0.385417" stop-color="#7D9B64"/>
<stop offset="1" stop-color="#2C3B20" stop-opacity="0.7"/>
</linearGradient>
<linearGradient id="paint8_linear_4051_12917" x1="421.698" y1="349.903" x2="396.054" y2="495.338" gradientUnits="userSpaceOnUse">
<stop stop-color="#375C19"/>
<stop offset="0.609375" stop-color="#87CE4C"/>
<stop offset="1" stop-color="#E1FFC9"/>
</linearGradient>
<linearGradient id="paint9_linear_4051_12917" x1="418.624" y1="354.054" x2="394.583" y2="490.399" gradientUnits="userSpaceOnUse">
<stop stop-color="#A3EA6B" stop-opacity="0.879687"/>
<stop offset="0.385417" stop-color="#7D9B64"/>
<stop offset="1" stop-color="#2C3B20" stop-opacity="0.7"/>
</linearGradient>
<linearGradient id="paint10_linear_4051_12917" x1="350.806" y1="294.246" x2="224.24" y2="445.081" gradientUnits="userSpaceOnUse">
<stop stop-color="#375C19"/>
<stop offset="0.609375" stop-color="#87CE4C"/>
<stop offset="1" stop-color="#E1FFC9"/>
</linearGradient>
<linearGradient id="paint11_linear_4051_12917" x1="344.49" y1="296.99" x2="225.835" y2="438.398" gradientUnits="userSpaceOnUse">
<stop stop-color="#A3EA6B" stop-opacity="0.879687"/>
<stop offset="0.385417" stop-color="#7D9B64"/>
<stop offset="1" stop-color="#2C3B20" stop-opacity="0.7"/>
</linearGradient>
<linearGradient id="paint12_linear_4051_12917" x1="279.564" y1="208.988" x2="66.7829" y2="286.434" gradientUnits="userSpaceOnUse">
<stop stop-color="#375C19"/>
<stop offset="0.609375" stop-color="#87CE4C"/>
<stop offset="1" stop-color="#E1FFC9"/>
</linearGradient>
<linearGradient id="paint13_linear_4051_12917" x1="271.699" y1="208.088" x2="72.2163" y2="280.694" gradientUnits="userSpaceOnUse">
<stop stop-color="#A3EA6B" stop-opacity="0.879687"/>
<stop offset="0.385417" stop-color="#7D9B64"/>
<stop offset="1" stop-color="#2C3B20" stop-opacity="0.7"/>
</linearGradient>
<linearGradient id="paint14_linear_4051_12917" x1="236.933" y1="69.8871" x2="0.651077" y2="69.8871" gradientUnits="userSpaceOnUse">
<stop stop-color="#375C19"/>
<stop offset="0.609375" stop-color="#87CE4C"/>
<stop offset="1" stop-color="#E1FFC9"/>
</linearGradient>
<linearGradient id="paint15_linear_4051_12917" x1="229.541" y1="66.1968" x2="8.02707" y2="66.1968" gradientUnits="userSpaceOnUse">
<stop stop-color="#A3EA6B" stop-opacity="0.879687"/>
<stop offset="0.385417" stop-color="#7D9B64"/>
<stop offset="1" stop-color="#2C3B20" stop-opacity="0.7"/>
</linearGradient>
</defs>
</svg>
