<svg width="20" height="20" viewBox="0 0 20 20" fill="none" xmlns="http://www.w3.org/2000/svg">
<path d="M0.402226 12.8072C-0.15305 10.909 -0.132995 8.88893 0.459853 7.00216C1.0527 5.11543 2.19172 3.44686 3.73288 2.20742C5.27404 0.967993 7.14813 0.213363 9.11818 0.0389632C11.0882 -0.135437 13.0657 0.278226 14.8007 1.22764C16.5356 2.17705 17.95 3.61958 18.8652 5.37282C19.7803 7.12605 20.1549 9.11126 19.9418 11.0774C19.7286 13.0436 18.9372 14.9024 17.6676 16.4188C16.398 17.9352 14.7073 19.041 12.8092 19.5966C11.5487 19.9659 10.2278 20.0833 8.92201 19.9419C7.61614 19.8006 6.35095 19.4033 5.19873 18.7728C4.04651 18.1423 3.02985 17.2909 2.20684 16.2673C1.38383 15.2436 0.770606 14.0679 0.402226 12.8072Z" fill="url(#paint0_linear_5413_13110)"/>
<path d="M9.807 12.4317L13.678 10.7097L10.0551 3.88141L6.04492 10.4882L9.807 12.4317Z" fill="white"/>
<path d="M10.0551 3.88141L9.96201 12.4363L6.04492 10.4883L10.0551 3.88141Z" fill="#E7E9EE"/>
<path d="M9.9392 16.7372L13.9655 11.3289L9.9392 13.1277L6.03125 11.1011L9.9392 16.7372Z" fill="white"/>
<path d="M9.91403 8.76804L13.68 10.7095L9.80895 12.4314L6.04688 10.488L9.91403 8.76804Z" fill="#AEAEAE" fill-opacity="0.7"/>
<path d="M6.04688 10.488L9.91403 8.76804L9.80895 12.4314L6.04688 10.488Z" fill="#939393"/>
<path d="M6.02148 11.1135L9.92944 13.1401V16.7373L6.02148 11.1135Z" fill="#E7E9EE"/>
<defs>
<linearGradient id="paint0_linear_5413_13110" x1="20.5074" y1="20.4168" x2="-4.80212" y2="-6.07772" gradientUnits="userSpaceOnUse">
<stop stop-color="#242424"/>
<stop offset="1" stop-color="#9B9B9B" stop-opacity="0.94"/>
</linearGradient>
</defs>
</svg>
