<svg width="20" height="20" viewBox="0 0 20 20" fill="none" xmlns="http://www.w3.org/2000/svg">
<g clip-path="url(#clip0_5411_15657)">
<path d="M5.88021 11.384C6.45621 11.384 7.01621 11.192 7.47221 10.84L3.82421 7.19196C2.94421 8.32796 3.15221 9.95996 4.28821 10.84C4.74421 11.184 5.30421 11.376 5.88021 11.376V11.384Z" fill="#04795B"/>
<path d="M16.7193 8.78396C16.7193 8.20796 16.5273 7.64796 16.1753 7.19196L12.5273 10.84C13.6633 11.72 15.2953 11.512 16.1753 10.376C16.5273 9.91996 16.7193 9.35996 16.7193 8.78396Z" fill="#04795B"/>
<path d="M18.56 4.81595L16.944 6.43195C18.24 7.99195 18.04 10.3039 16.48 11.6079C15.112 12.7519 13.136 12.7519 11.768 11.6079L10 13.3759L8.232 11.6079C6.672 12.9039 4.36 12.7039 3.056 11.1439C1.912 9.77595 1.912 7.79995 3.056 6.43195L2.232 5.60795L1.448 4.81595C0.496 6.37595 0 8.16795 0 9.99995C0 15.5199 4.48 19.9999 10 19.9999C15.52 19.9999 20 15.5199 20 9.99995C20.008 8.17595 19.496 6.37595 18.56 4.81595Z" fill="#04795B"/>
<path d="M17.2325 3.09595C13.4245 -0.896047 7.09645 -1.04805 3.10445 2.75995C2.98445 2.87195 2.87245 2.98395 2.76845 3.09595C2.52045 3.35995 2.28845 3.63195 2.06445 3.91195L10.0005 11.848L17.9365 3.91195C17.7205 3.62395 17.4805 3.35195 17.2325 3.09595ZM10.0005 1.30395C12.3365 1.30395 14.5125 2.20795 16.1525 3.84795L10.0005 9.99995L3.84845 3.84795C5.48045 2.19995 7.66445 1.30395 10.0005 1.30395Z" fill="#04795B"/>
</g>
<defs>
<clipPath id="clip0_5411_15657">
<rect width="20" height="20" fill="white"/>
</clipPath>
</defs>
</svg>
