<svg width="200" height="140" viewBox="0 0 200 140" fill="none" xmlns="http://www.w3.org/2000/svg">
  <path d="M174.11 30.0836C170.534 17.2697 168.746 10.8628 164.424 6.59465C163.015 5.20212 161.429 3.99886 159.709 3.01514C154.437 0 147.785 0 134.481 0H80.8455C80.0609 0 79.6686 0 79.3372 0.0192645C73.5475 0.355856 68.9278 4.97555 68.5912 10.7652C68.572 11.0966 68.572 11.4889 68.572 12.2735V12.2735C68.572 12.6078 68.572 12.775 68.5739 12.9412C68.6063 15.722 69.0444 18.4832 69.8745 21.1373C69.9242 21.296 69.9759 21.4549 70.0794 21.7728L108.572 139.999H184.922C193.249 139.999 200 133.249 200 124.921V124.921C200 123.551 199.813 122.188 199.445 120.868L174.11 30.0836Z" fill="#6EB436"/>
  <path d="M134.481 0.204413H80.8455C80.058 0.204413 79.673 0.2045 79.3491 0.223333C73.6629 0.553904 69.1259 5.09096 68.7953 10.7771C68.7765 11.101 68.7764 11.486 68.7764 12.2735C68.7764 12.6083 68.7764 12.7741 68.7783 12.9388C68.8104 15.6997 69.2455 18.4411 70.0696 21.0763C70.1187 21.2333 70.1699 21.3906 70.2731 21.7076L70.2738 21.7095L108.72 139.795H184.922C193.136 139.795 199.796 133.136 199.796 124.921C199.796 123.57 199.611 122.225 199.248 120.923L173.913 30.1385C172.124 23.7279 170.786 18.9336 169.356 15.2077C167.927 11.4854 166.413 8.84604 164.281 6.74009C162.883 5.36001 161.313 4.16751 159.608 3.19258C157.006 1.70487 154.057 0.95581 150.088 0.580397C146.114 0.204624 141.137 0.204413 134.481 0.204413Z" stroke="black" stroke-opacity="0.64" stroke-width="0.408825"/>
  <path d="M138.176 41.1083C135.891 35.7223 134.749 33.0293 132.669 31.2714C131.988 30.6955 131.242 30.2013 130.445 29.799C128.015 28.571 125.089 28.571 119.239 28.571H41.4294V45.7138L81.4292 139.999H172.857V133.314C172.857 128.684 172.857 126.369 172.49 124.101C172.368 123.346 172.216 122.597 172.033 121.854C171.486 119.623 170.581 117.492 168.773 113.229L138.176 41.1083Z" fill="#87CE4C"/>
  <path d="M119.239 28.7755H41.6338V45.6723L81.5646 139.795H172.653V133.314C172.653 128.678 172.652 126.381 172.288 124.133C172.167 123.384 172.016 122.64 171.835 121.903C171.292 119.691 170.396 117.577 168.585 113.309L137.988 41.1881C136.844 38.4919 135.991 36.4817 135.165 34.9251C134.341 33.3717 133.55 32.2835 132.537 31.4275C131.868 30.8619 131.135 30.3766 130.353 29.9815C129.17 29.3835 127.859 29.0804 126.107 28.9282C124.351 28.7756 122.168 28.7755 119.239 28.7755Z" stroke="black" stroke-opacity="0.64" stroke-width="0.408825"/>
  <path d="M122.858 28.571H42.7945C36.5177 28.571 31.4294 33.6594 31.4294 39.9361V39.9361C31.4294 43.7489 32.1968 47.5227 33.6859 51.0327L71.4292 139.999H162.857V133.314C162.857 128.684 162.857 126.369 162.49 124.101C162.368 123.346 162.216 122.597 162.033 121.854C161.486 119.623 160.581 117.492 158.773 113.229L122.858 28.571Z" fill="#A2E771"/>
  <path d="M158.585 113.309L122.722 28.7755H42.7945C36.6306 28.7755 31.6338 33.7723 31.6338 39.9361C31.6338 43.7215 32.3957 47.4681 33.8741 50.9529L71.5646 139.795H162.653V133.314C162.653 128.678 162.652 126.381 162.288 124.133C162.167 123.384 162.016 122.64 161.835 121.903C161.292 119.691 160.396 117.577 158.585 113.309Z" stroke="black" stroke-opacity="0.64" stroke-width="0.408825"/>
  <path d="M107.336 67.5909C104.782 63.0723 103.505 60.8131 101.53 59.3615C100.88 58.8844 100.183 58.4773 99.448 58.147C97.2125 57.1418 94.6173 57.1418 89.4269 57.1418H44.2869V74.2846L81.4296 139.999H138.572V136.384C138.572 130.409 138.572 127.422 137.969 124.534C137.769 123.574 137.52 122.626 137.222 121.692C136.326 118.881 134.856 116.28 131.916 111.079L107.336 67.5909Z" fill="#87CE4C"/>
  <path d="M89.4269 57.3463H44.4913V74.2309L81.5489 139.794H138.368V136.384C138.368 130.401 138.367 127.438 137.769 124.575C137.571 123.623 137.323 122.681 137.027 121.754C136.139 118.968 134.682 116.388 131.738 111.179L107.158 67.6915C104.594 63.1564 103.34 60.9457 101.409 59.5262C100.771 59.0577 100.086 58.6578 99.3642 58.3334C97.1781 57.3505 94.6363 57.3463 89.4269 57.3463Z" stroke="black" stroke-opacity="0.64" stroke-width="0.408825"/>
  <path d="M91.4286 57.1421H10.3421C4.63051 57.1421 0.000361681 61.7722 0.000361681 67.4838V67.4838C0.000361681 71.942 1.15318 76.3245 3.34687 80.2056L13.5191 98.2026C23.735 116.277 28.8429 125.314 36.743 131.12C39.3395 133.029 42.1304 134.657 45.0694 135.978C54.0114 139.999 64.3921 139.999 85.1537 139.999H128.571V136.385C128.571 130.409 128.571 127.422 127.968 124.534C127.768 123.574 127.519 122.626 127.221 121.692C126.325 118.881 124.855 116.281 121.915 111.079L91.4286 57.1421Z" fill="#C7F79E"/>
  <path d="M121.737 111.179L91.3093 57.3465H10.3421C4.74341 57.3465 0.204773 61.8851 0.204773 67.4838C0.204773 71.9068 1.34848 76.2546 3.52483 80.105L13.6971 98.1021C23.9223 116.193 29.0077 125.181 36.864 130.956C39.4489 132.855 42.2274 134.476 45.1532 135.792C54.0457 139.79 64.3731 139.794 85.1537 139.794H128.367V136.384C128.367 130.401 128.366 127.438 127.768 124.576C127.57 123.623 127.322 122.681 127.026 121.754C126.138 118.968 124.681 116.388 121.737 111.179Z" stroke="black" stroke-opacity="0.64" stroke-width="0.408825"/>
</svg>
