<svg width="56" height="56" viewBox="0 0 56 56" fill="none" xmlns="http://www.w3.org/2000/svg">
<path d="M44.507 18.7913C43.7105 15.9373 43.3123 14.5103 42.3498 13.5596C42.0357 13.2495 41.6827 12.9815 41.2995 12.7624C40.1252 12.0908 38.6437 12.0908 35.6806 12.0908H23.7344C23.5596 12.0908 23.4722 12.0908 23.3984 12.0951C22.1089 12.1701 21.08 13.199 21.005 14.4885C21.0007 14.5623 21.0007 14.6497 21.0007 14.8245C21.0007 14.8989 21.0007 14.9362 21.0011 14.9732C21.0083 15.5926 21.1059 16.2075 21.2908 16.7987C21.3019 16.834 21.3134 16.8694 21.3365 16.9402L29.9098 43.2726H46.9151C48.7698 43.2726 50.2734 41.769 50.2734 39.9143C50.2734 39.6092 50.2319 39.3054 50.1498 39.0116L44.507 18.7913Z" fill="#21380A"/>
<path d="M36.5035 21.2468C35.9946 20.0472 35.7402 19.4474 35.2769 19.0559C35.1252 18.9276 34.9589 18.8176 34.7816 18.728C34.2403 18.4545 33.5887 18.4545 32.2856 18.4545H14.9553V22.2726L23.8643 43.2726H44.228V41.7837C44.228 40.7524 44.228 40.2367 44.1462 39.7316C44.119 39.5635 44.0851 39.3966 44.0445 39.2313C43.9225 38.7343 43.7211 38.2596 43.3183 37.3102L36.5035 21.2468Z" fill="white"/>
<path d="M33.0916 18.4545H15.2593C13.8613 18.4545 12.728 19.5878 12.728 20.9858C12.728 21.835 12.8989 22.6755 13.2306 23.4573L21.6371 43.2726H42.0007V41.7837C42.0007 40.7524 42.0007 40.2367 41.9189 39.7316C41.8917 39.5635 41.8578 39.3966 41.8172 39.2313C41.6952 38.7343 41.4938 38.2596 41.091 37.3102L33.0916 18.4545Z" fill="#77B936"/>
<path d="M29.6343 27.1454C29.0655 26.139 28.7811 25.6358 28.3412 25.3125C28.1966 25.2062 28.0412 25.1155 27.8775 25.042C27.3796 24.8181 26.8016 24.8181 25.6456 24.8181H15.5916V28.6363L23.8643 43.2726H36.5916V42.4676C36.5916 41.1368 36.5916 40.4714 36.4574 39.8281C36.4128 39.6144 36.3572 39.4032 36.2909 39.1952C36.0912 38.5692 35.7638 37.9899 35.109 36.8313L29.6343 27.1454Z" fill="white"/>
<path d="M26.0916 24.8181H8.03138C6.75925 24.8181 5.72798 25.8494 5.72798 27.1215C5.72798 28.1145 5.98475 29.0905 6.47334 29.955L8.73899 33.9634C11.0144 37.9891 12.152 40.0019 13.9116 41.2951C14.4899 41.7201 15.1115 42.0828 15.7661 42.3772C17.7578 43.2726 20.0698 43.2726 24.694 43.2726H34.3643V42.4676C34.3643 41.1368 34.3643 40.4714 34.2301 39.8281C34.1855 39.6144 34.1299 39.4032 34.0636 39.1952C33.864 38.5692 33.5366 37.9899 32.8817 36.8313L26.0916 24.8181Z" fill="#ACE878"/>
</svg>
