<svg width="40" height="28" fill="none" xmlns="http://www.w3.org/2000/svg"><path d="M34.148 6.107c-.683-2.446-1.024-3.67-1.849-4.484a4.365 4.365 0 0 0-.9-.684C30.392.364 29.122.364 26.583.364h-10.24c-.15 0-.225 0-.288.003a2.182 2.182 0 0 0-2.051 2.052C14 2.482 14 2.557 14 2.707v.127a5.455 5.455 0 0 0 .288 1.686l7.348 22.57h14.576a2.879 2.879 0 0 0 2.773-3.651L34.148 6.107Z" fill="#122404"/><path d="M27.288 8.212c-.436-1.029-.654-1.543-1.051-1.878a2.183 2.183 0 0 0-.425-.281c-.464-.235-1.022-.235-2.14-.235H8.819v3.273l7.636 18H33.91v-1.276c0-.884 0-1.326-.07-1.76a5.444 5.444 0 0 0-.087-.428c-.105-.426-.278-.833-.623-1.647L27.29 8.212Z" fill="#fff"/><path d="M24.363 5.818H9.08a2.17 2.17 0 0 0-2.17 2.17c0 .728.147 1.448.43 2.118l7.206 16.985H32v-1.276c0-.884 0-1.326-.07-1.76a5.444 5.444 0 0 0-.087-.428c-.105-.426-.278-.833-.623-1.647L24.363 5.818Z" fill="#6EB436"/><path d="M21.4 13.268c-.487-.863-.731-1.294-1.108-1.572a2.18 2.18 0 0 0-.398-.231c-.426-.192-.922-.192-1.913-.192H9.364v3.273l7.09 12.545h10.91v-.69c0-1.14 0-1.711-.116-2.262a5.484 5.484 0 0 0-.142-.543c-.171-.537-.452-1.033-1.013-2.026L21.4 13.268Z" fill="#fff"/><path d="M18.363 11.273H2.883c-1.09 0-1.974.884-1.974 1.974 0 .851.22 1.688.639 2.429l1.942 3.436c1.95 3.45 2.925 5.175 4.434 6.284a8.73 8.73 0 0 0 1.59.927c1.706.768 3.688.768 7.652.768h8.288v-.69c0-1.14 0-1.711-.115-2.262a5.484 5.484 0 0 0-.142-.543c-.171-.537-.452-1.033-1.013-2.026l-5.82-10.297Z" fill="#A2E771"/></svg>