<svg viewBox="0 0 24 24" fill="none" xmlns="http://www.w3.org/2000/svg">
  <path d="M14.9813 7.25L5.11523 17.116L6.883 18.8838L16.7491 9.01764V17H19.2491V4.75H6.99915V7.25H14.9813Z" fill="currentcolor"/>
</svg>

<svg xmlns="http://www.w3.org/2000/svg" width="12" height="12" fill="none" viewBox="0 0 256 256">
  <path fill="currentcolor" d="M224,104a8,8,0,0,1-16,0V59.32l-66.33,66.34a8,8,0,0,1-11.32-11.32L196.68,48H152a8,8,0,0,1,0-16h64a8,8,0,0,1,8,8Zm-40,24a8,8,0,0,0-8,8v72H48V80h72a8,8,0,0,0,0-16H48A16,16,0,0,0,32,80V208a16,16,0,0,0,16,16H176a16,16,0,0,0,16-16V136A8,8,0,0,0,184,128Z">
  </path>
</svg>

<svg xmlns="http://www.w3.org/2000/svg" width="32" height="32" fill="none" viewBox="0 0 256 256">
  <path fill="currentcolor" d="M228,104a12,12,0,0,1-24,0V69l-59.51,59.51a12,12,0,0,1-17-17L187,52H152a12,12,0,0,1,0-24h64a12,12,0,0,1,12,12Zm-44,24a12,12,0,0,0-12,12v64H52V84h64a12,12,0,0,0,0-24H48A20,20,0,0,0,28,80V208a20,20,0,0,0,20,20H176a20,20,0,0,0,20-20V140A12,12,0,0,0,184,128Z"></path>
</svg>