<svg width="20" height="20" viewBox="0 0 20 20" fill="none" xmlns="http://www.w3.org/2000/svg">
  <path d="M12.0468 5.00012L11.8662 5.20225C14.0485 5.85794 15.0619 6.80451 15.0619 6.80451C12.0117 5.16281 8.42977 5.16281 5.46991 6.43969C4.99332 6.6566 4.71238 6.80451 4.71238 6.80451C4.71238 6.80451 5.77593 5.80864 8.08864 5.15295L7.95821 5.00012C7.95821 5.00012 6.19734 4.96068 4.35117 6.3263C4.35117 6.3263 2.5 9.61954 2.5 13.6819C2.5 13.6819 3.5786 15.5109 6.41807 15.5997C6.41807 15.5997 6.89466 15.0327 7.28094 14.5545C5.6505 14.0763 5.03345 13.0656 5.03345 13.0656C5.22409 13.1938 5.53513 13.3664 5.5602 13.3811C7.72743 14.5742 10.8077 14.9637 13.5719 13.8248C14.0234 13.6622 14.5201 13.4206 15.0469 13.0804C15.0469 13.0804 14.4047 14.1157 12.7241 14.5841C13.1104 15.0623 13.5719 15.6046 13.5719 15.6046C16.4114 15.5158 17.5 13.6868 17.5 13.6868C17.5 9.62448 15.6489 6.33123 15.6489 6.33123C13.8077 4.96068 12.0468 5.00012 12.0468 5.00012ZM7.60704 12.5085C6.88964 12.5085 6.29767 11.8775 6.29767 11.1084C6.29767 10.3393 6.87459 9.70829 7.60704 9.70829C8.33947 9.70829 8.93145 10.3393 8.9164 11.1084C8.9164 11.8775 8.33947 12.5085 7.60704 12.5085ZM12.2927 12.5085C11.5753 12.5085 10.9833 11.8775 10.9833 11.1084C10.9833 10.3393 11.5602 9.70829 12.2927 9.70829C13.0251 9.70829 13.6021 10.3393 13.6021 11.1084C13.6021 11.8775 13.0251 12.5085 12.2927 12.5085Z" fill="#4D4F4C"/>
</svg>
