<svg width="16" height="16" viewBox="0 0 16 16" fill="none" xmlns="http://www.w3.org/2000/svg">
<g clip-path="url(#clip0_3957_12657)">
<path d="M16 8C16 3.58172 12.4183 0 8 0C3.58172 0 0 3.58172 0 8C0 12.4183 3.58172 16 8 16C12.4183 16 16 12.4183 16 8Z" fill="#969894"/>
<path fill-rule="evenodd" clip-rule="evenodd" d="M1.73047 10.1796V7.99969C1.73047 4.53729 4.53729 1.73047 7.99969 1.73047C9.70748 1.73047 11.2558 2.41335 12.3865 3.52095L11.0537 4.35374C10.2275 3.66091 9.16236 3.24372 7.99969 3.24372C5.37304 3.24372 3.24372 5.37304 3.24372 7.99969H4.75699L1.73047 10.1796ZM4.92268 11.6263C5.7521 12.3308 6.82628 12.7557 7.99972 12.7557C10.6264 12.7557 12.7557 10.6264 12.7557 7.99972H11.2424L14.2688 5.7839L14.2689 7.99972C14.2689 11.4621 11.4621 14.269 7.99972 14.269C6.28132 14.269 4.7244 13.5776 3.59194 12.4578L4.92268 11.6263ZM10.4047 10.0804H8.67524L7.99972 9.16788L7.3242 10.0804H5.59476L7.16158 8.03564L5.59472 5.91902H7.21607L7.99972 6.94178L8.7834 5.91903H10.4048L8.83788 8.03564L10.4047 10.0804Z" fill="white"/>
</g>
<defs>
<clipPath id="clip0_3957_12657">
<rect width="16" height="16" fill="white"/>
</clipPath>
</defs>
</svg>
