<svg width="20" height="20" viewBox="0 0 20 20" fill="none" xmlns="http://www.w3.org/2000/svg">
  <path fill-rule="evenodd" clip-rule="evenodd" d="M7.21187 16.1669C12.8721 16.1669 15.9693 11.5488 15.9693 7.55083C15.9693 7.42092 15.9693 7.291 15.9633 7.16108C16.5636 6.73587 17.0857 6.19848 17.5 5.59022C16.9477 5.83233 16.3535 5.99179 15.7292 6.06856C16.3655 5.69651 16.8517 5.10006 17.0857 4.3914C16.4915 4.73983 15.8313 4.98786 15.129 5.12368C14.5647 4.53314 13.7664 4.16699 12.8841 4.16699C11.1855 4.16699 9.80487 5.52525 9.80487 7.19651C9.80487 7.43272 9.83492 7.66303 9.88292 7.88744C7.32592 7.76342 5.05701 6.55281 3.53842 4.72211C3.27431 5.17092 3.12425 5.69061 3.12425 6.24572C3.12425 7.2969 3.67047 8.22406 4.49279 8.76734C3.9886 8.74962 3.5144 8.61381 3.10024 8.38942C3.10024 8.40122 3.10024 8.41304 3.10024 8.43075C3.10024 9.89531 4.16266 11.1236 5.56722 11.4012C5.30911 11.4721 5.03901 11.5075 4.7569 11.5075C4.55881 11.5075 4.36674 11.4898 4.18067 11.4543C4.57082 12.6591 5.71127 13.5331 7.05581 13.5567C5.99939 14.3717 4.67286 14.8559 3.2323 14.8559C2.98619 14.8559 2.74009 14.8441 2.5 14.8146C3.85654 15.6649 5.47718 16.1669 7.21187 16.1669Z" fill="#4D4F4C"/>
</svg>
