<svg xmlns="http://www.w3.org/2000/svg" width="20" height="20" fill="none"><path d="m12.047 5-.18.202c2.181.656 3.195 1.603 3.195 1.603-3.05-1.642-6.632-1.642-9.592-.365-.477.217-.758.365-.758.365s1.064-.996 3.377-1.652L7.959 5S6.196 4.96 4.35 6.326c0 0-1.851 3.294-1.851 7.356 0 0 1.079 1.829 3.918 1.918 0 0 .477-.567.863-1.045-1.63-.479-2.248-1.49-2.248-1.49.191.129.502.301.527.316 2.167 1.193 5.248 1.583 8.012.444a7.292 7.292 0 0 0 1.475-.745s-.642 1.036-2.323 1.504c.386.478.848 1.02.848 1.02 2.84-.088 3.928-1.917 3.928-1.917 0-4.063-1.851-7.356-1.851-7.356-1.841-1.37-3.602-1.33-3.602-1.33Zm-4.44 7.508c-.717 0-1.31-.63-1.31-1.4 0-.769.578-1.4 1.31-1.4.732 0 1.324.631 1.31 1.4 0 .77-.578 1.4-1.31 1.4Zm4.686 0c-.718 0-1.31-.63-1.31-1.4 0-.769.577-1.4 1.31-1.4.732 0 1.31.631 1.31 1.4 0 .77-.578 1.4-1.31 1.4Z" fill="#060D00"/></svg>