<svg width="18" height="18" viewBox="0 0 18 18" fill="none" xmlns="http://www.w3.org/2000/svg">
<path fill-rule="evenodd" clip-rule="evenodd" d="M8.25 3C5.35051 3 3 5.35051 3 8.25C3 11.1495 5.35051 13.5 8.25 13.5C9.42925 13.5 10.5177 13.1112 11.3941 12.4548L14.0303 15.091L15.091 14.0303L12.4548 11.3941C13.1112 10.5177 13.5 9.42925 13.5 8.25C13.5 5.35051 11.1495 3 8.25 3ZM4.5 8.25C4.5 6.17893 6.17893 4.5 8.25 4.5C10.3211 4.5 12 6.17893 12 8.25C12 10.3211 10.3211 12 8.25 12C6.17893 12 4.5 10.3211 4.5 8.25Z" fill="currentcolor"/>
</svg>
