<svg  viewBox="0 0 24 24" fill="none" xmlns="http://www.w3.org/2000/svg">
<path fill-rule="evenodd" clip-rule="evenodd" d="M6.88386 9.88383L10.75 6.01768L10.75 15H13.25L13.25 6.01774L17.1161 9.88383L18.8839 8.11606L12 1.23218L5.11609 8.11606L6.88386 9.88383ZM5.25 19V11.75H2.75V19C2.75 19.862 3.09241 20.6886 3.7019 21.2981C4.3114 21.9076 5.13805 22.25 6 22.25H18C18.862 22.25 19.6886 21.9076 20.2981 21.2981C20.9076 20.6886 21.25 19.862 21.25 19V11.75H18.75V19C18.75 19.1989 18.671 19.3897 18.5303 19.5303C18.3897 19.671 18.1989 19.75 18 19.75H6C5.80109 19.75 5.61032 19.671 5.46967 19.5303C5.32902 19.3897 5.25 19.1989 5.25 19Z" fill="currentColor"/>
</svg>
