<svg width="14" height="14" fill="none" xmlns="http://www.w3.org/2000/svg">
  <path fill-rule="evenodd" clip-rule="evenodd" d="M5.333 2.833c.186 0 .35.123.4.302l.453 1.582a2.083 2.083 0 0 0 1.43 1.43l1.582.452a.417.417 0 0 1 0 .801l-1.582.452a2.083 2.083 0 0 0-1.43 1.431l-.452 1.581a.417.417 0 0 1-.801 0l-.452-1.58A2.083 2.083 0 0 0 3.05 7.851L1.469 7.4a.417.417 0 0 1 0-.8l1.58-.453a2.083 2.083 0 0 0 1.432-1.43l.452-1.582a.417.417 0 0 1 .4-.302ZM10.333 1.167c.191 0 .358.13.404.315l.144.575c.13.523.539.93 1.061 1.061l.576.144a.417.417 0 0 1 0 .809l-.576.144c-.522.13-.93.538-1.06 1.06l-.145.576a.417.417 0 0 1-.808 0l-.144-.575a1.458 1.458 0 0 0-1.061-1.061l-.575-.144a.417.417 0 0 1 0-.809l.575-.144c.523-.13.93-.538 1.061-1.06l.144-.576a.417.417 0 0 1 .404-.315ZM9.5 8.666c.18 0 .338.115.395.285l.22.657a.833.833 0 0 0 .526.527l.657.22a.417.417 0 0 1 0 .79l-.657.22a.834.834 0 0 0-.527.526l-.219.657a.417.417 0 0 1-.79 0l-.22-.657a.834.834 0 0 0-.527-.527l-.657-.219a.417.417 0 0 1 0-.79l.657-.22a.833.833 0 0 0 .528-.527l.219-.657a.417.417 0 0 1 .395-.285Z" fill="#4D4F4C"/>
</svg>
