<?xml version="1.0" standalone="no"?>
<!DOCTYPE svg PUBLIC "-//W3C//DTD SVG 20010904//EN"
 "http://www.w3.org/TR/2001/REC-SVG-20010904/DTD/svg10.dtd">
<svg version="1.0" xmlns="http://www.w3.org/2000/svg"
 width="512.000000pt" height="512.000000pt" viewBox="0 0 512.000000 512.000000"
 preserveAspectRatio="xMidYMid meet">
<metadata>
Created by potrace 1.14, written by Peter Selinger 2001-2017
</metadata>
<g transform="translate(0.000000,512.000000) scale(0.100000,-0.100000)"
fill="#000000" stroke="none">
<path d="M2028 4299 c-90 -13 -165 -69 -208 -156 -19 -38 -24 -64 -24 -133 -1
-113 6 -155 48 -286 20 -61 36 -113 36 -115 0 -2 -168 -4 -372 -4 -205 1 -391
-4 -413 -9 -116 -28 -201 -134 -209 -262 -5 -81 24 -212 73 -323 22 -52 39
-96 37 -98 -2 -2 -158 -5 -347 -7 -272 -1 -350 -5 -374 -16 -185 -87 -209
-302 -64 -569 50 -92 243 -432 273 -481 11 -19 21 -37 21 -40 1 -19 254 -429
305 -494 103 -130 175 -194 301 -268 127 -75 262 -120 399 -133 36 -4 76 -9
90 -12 14 -3 714 -7 1555 -8 1642 -2 1571 -4 1663 47 108 59 182 186 184 313
1 58 -15 121 -124 505 -17 58 -32 112 -33 120 -10 42 -165 592 -169 598 -3 5
-7 20 -10 35 -2 14 -30 117 -61 229 -32 112 -77 275 -102 363 -24 88 -51 183
-59 210 -7 28 -39 140 -70 250 -75 268 -100 347 -137 430 -39 86 -38 85 -113
159 -95 96 -188 136 -349 152 -90 9 -1687 11 -1747 3z"/>
</g>
</svg>
